<svg xmlns="http://www.w3.org/2000/svg" xmlns:xlink="http://www.w3.org/1999/xlink" xmlns:lucid="lucid" width="1723" height="769"><g transform="translate(462.83333333333326 -112.5)" lucid:page-tab-id="Ux6KUjsFG64N"><path d="M-500 0h2000v1000H-500z" fill="#fff"/><path d="M-441.33 140a6 6 0 0 1 6-6h1668a6 6 0 0 1 6 6v714a6 6 0 0 1-6 6h-1668a6 6 0 0 1-6-6z" stroke="#5e5e5e" stroke-width="3" fill-opacity="0"/><use xlink:href="#a" transform="matrix(1,0,0,1,-433.33333333333326,142) translate(713.5123456790124 19.555555555555557)"/><use xlink:href="#b" transform="matrix(1,0,0,1,-433.33333333333326,142) translate(863.7777777777778 19.555555555555557)"/><path d="M140 660c11.05 0 20 8.95 20 20s-8.95 20-20 20h-460c-11.05 0-20-8.95-20-20s8.95-20 20-20z" stroke="#5e5e5e" stroke-width="3" fill-opacity="0"/><use xlink:href="#c" transform="matrix(1,0,0,1,-312,668) translate(41.75617283950612 19.88888888888889)"/><use xlink:href="#d" transform="matrix(1,0,0,1,-312,668) translate(212.52777777777777 19.88888888888889)"/><use xlink:href="#e" transform="matrix(1,0,0,1,-312,668) translate(356.1388888888889 19.88888888888889)"/><path d="M140.92 780c10.54 0 19.08 8.54 19.08 19.08s-8.54 19.1-19.08 19.1h-461.84c-10.54 0-19.08-8.56-19.08-19.1 0-10.54 8.54-19.08 19.08-19.08z" stroke="#5e5e5e" stroke-width="3" fill-opacity="0"/><use xlink:href="#f" transform="matrix(1,0,0,1,-312.91700192703524,788) translate(39.8364197530864 19.88888888888889)"/><use xlink:href="#g" transform="matrix(1,0,0,1,-312.91700192703524,788) translate(186.1635802469136 19.88888888888889)"/><use xlink:href="#h" transform="matrix(1,0,0,1,-312.91700192703524,788) translate(289.03395061728395 19.88888888888889)"/><use xlink:href="#i" transform="matrix(1,0,0,1,-312.91700192703524,788) translate(318.1635802469136 19.88888888888889)"/><path d="M-380 188h622.48v446H-380z" stroke="#333" stroke-width="2" fill="#fff"/><path d="M-380 228.27h622.48M-380 372.17h622.48" stroke="#333" stroke-width="2" fill="none"/><use xlink:href="#j" transform="matrix(1,0,0,1,-372,196) translate(245.83858024691358 16.544444444444444)"/><use xlink:href="#k" transform="matrix(1,0,0,1,-368,236.26666666666665) translate(0 24.533333333333342)"/><use xlink:href="#l" transform="matrix(1,0,0,1,-368,236.26666666666665) translate(15.005555555555553 24.533333333333342)"/><use xlink:href="#m" transform="matrix(1,0,0,1,-368,236.26666666666665) translate(95.72037037037035 24.533333333333342)"/><use xlink:href="#k" transform="matrix(1,0,0,1,-368,236.26666666666665) translate(0 54.13333333333334)"/><use xlink:href="#n" transform="matrix(1,0,0,1,-368,236.26666666666665) translate(15.005555555555553 54.13333333333334)"/><use xlink:href="#o" transform="matrix(1,0,0,1,-368,236.26666666666665) translate(106.75185185185182 54.13333333333334)"/><use xlink:href="#k" transform="matrix(1,0,0,1,-368,236.26666666666665) translate(0 83.73333333333333)"/><use xlink:href="#p" transform="matrix(1,0,0,1,-368,236.26666666666665) translate(15.005555555555553 83.73333333333333)"/><use xlink:href="#q" transform="matrix(1,0,0,1,-368,236.26666666666665) translate(303.7425925925925 83.73333333333333)"/><use xlink:href="#k" transform="matrix(1,0,0,1,-368,236.26666666666665) translate(0 113.33333333333333)"/><use xlink:href="#r" transform="matrix(1,0,0,1,-368,236.26666666666665) translate(15.005555555555553 113.33333333333333)"/><use xlink:href="#s" transform="matrix(1,0,0,1,-368,236.26666666666665) translate(246.25555555555547 113.33333333333333)"/><use xlink:href="#t" transform="matrix(1,0,0,1,-368,380.16666666666663) translate(0 24.833333333333353)"/><use xlink:href="#u" transform="matrix(1,0,0,1,-368,380.16666666666663) translate(21.240740740740737 24.833333333333353)"/><use xlink:href="#v" transform="matrix(1,0,0,1,-368,380.16666666666663) translate(181.16296296296292 24.833333333333353)"/><use xlink:href="#t" transform="matrix(1,0,0,1,-368,380.16666666666663) translate(0 54.43333333333335)"/><use xlink:href="#w" transform="matrix(1,0,0,1,-368,380.16666666666663) translate(21.240740740740737 54.43333333333335)"/><use xlink:href="#q" transform="matrix(1,0,0,1,-368,380.16666666666663) translate(151.0833333333333 54.43333333333335)"/><use xlink:href="#t" transform="matrix(1,0,0,1,-368,380.16666666666663) translate(0 84.03333333333335)"/><use xlink:href="#x" transform="matrix(1,0,0,1,-368,380.16666666666663) translate(21.240740740740737 84.03333333333335)"/><use xlink:href="#y" transform="matrix(1,0,0,1,-368,380.16666666666663) translate(190.82407407407402 84.03333333333335)"/><use xlink:href="#z" transform="matrix(1,0,0,1,-368,380.16666666666663) translate(245.1592592592592 84.03333333333335)"/><use xlink:href="#A" transform="matrix(1,0,0,1,-368,380.16666666666663) translate(386.23888888888877 84.03333333333335)"/><use xlink:href="#B" transform="matrix(1,0,0,1,-368,380.16666666666663) translate(540.8166666666665 84.03333333333335)"/><use xlink:href="#t" transform="matrix(1,0,0,1,-368,380.16666666666663) translate(0 113.63333333333334)"/><use xlink:href="#C" transform="matrix(1,0,0,1,-368,380.16666666666663) translate(21.240740740740737 113.63333333333334)"/><use xlink:href="#D" transform="matrix(1,0,0,1,-368,380.16666666666663) translate(278.66481481481475 113.63333333333334)"/><use xlink:href="#E" transform="matrix(1,0,0,1,-368,380.16666666666663) translate(318.33703703703696 113.63333333333334)"/><use xlink:href="#D" transform="matrix(1,0,0,1,-368,380.16666666666663) translate(414.19444444444434 113.63333333333334)"/><use xlink:href="#F" transform="matrix(1,0,0,1,-368,380.16666666666663) translate(453.86666666666656 113.63333333333334)"/><use xlink:href="#G" transform="matrix(1,0,0,1,-368,380.16666666666663) translate(525.0574074074073 113.63333333333334)"/><use xlink:href="#H" transform="matrix(1,0,0,1,-368,380.16666666666663) translate(0 143.23333333333332)"/><use xlink:href="#I" transform="matrix(1,0,0,1,-368,380.16666666666663) translate(110.86296296296292 143.23333333333332)"/><use xlink:href="#t" transform="matrix(1,0,0,1,-368,380.16666666666663) translate(0 172.83333333333331)"/><use xlink:href="#J" transform="matrix(1,0,0,1,-368,380.16666666666663) translate(21.240740740740737 172.83333333333331)"/><use xlink:href="#t" transform="matrix(1,0,0,1,-368,380.16666666666663) translate(0 202.4333333333333)"/><use xlink:href="#K" transform="matrix(1,0,0,1,-368,380.16666666666663) translate(21.240740740740737 202.4333333333333)"/><use xlink:href="#I" transform="matrix(1,0,0,1,-368,380.16666666666663) translate(193.70185185185179 202.4333333333333)"/><use xlink:href="#t" transform="matrix(1,0,0,1,-368,380.16666666666663) translate(0 232.0333333333333)"/><use xlink:href="#L" transform="matrix(1,0,0,1,-368,380.16666666666663) translate(21.240740740740737 232.0333333333333)"/><use xlink:href="#M" transform="matrix(1,0,0,1,-368,380.16666666666663) translate(300.45370370370364 232.0333333333333)"/><g transform="matrix(1,0,0,1,-368,380.16666666666663)"><a xlink:href="http://MPI.Comm" target="_blank"><path class="lucid-link lucid-hotspot lucid-overlay-hotspot" fill-opacity="0" d="M181.16 5.1h123.06v29.6H181.16z"/></a></g><path d="M471.14 248h700v320h-700z" stroke="#333" stroke-width="2" fill="#fff"/><path d="M471.14 288.27h700m-700 125.3h700" stroke="#333" stroke-width="2" fill="none"/><g><use xlink:href="#N" transform="matrix(1,0,0,1,479.1454341858123,256) translate(282.6533950617284 16.544444444444444)"/></g><g><use xlink:href="#k" transform="matrix(1,0,0,1,483.1454341858123,296.26666666666665) translate(0 30.33333333333334)"/><use xlink:href="#O" transform="matrix(1,0,0,1,483.1454341858123,296.26666666666665) translate(15.005555555555553 30.33333333333334)"/><use xlink:href="#P" transform="matrix(1,0,0,1,483.1454341858123,296.26666666666665) translate(179.2444444444444 30.33333333333334)"/><use xlink:href="#k" transform="matrix(1,0,0,1,483.1454341858123,296.26666666666665) translate(0 59.93333333333334)"/><use xlink:href="#Q" transform="matrix(1,0,0,1,483.1454341858123,296.26666666666665) translate(15.005555555555553 59.93333333333334)"/><use xlink:href="#B" transform="matrix(1,0,0,1,483.1454341858123,296.26666666666665) translate(183.49259259259256 59.93333333333334)"/><use xlink:href="#k" transform="matrix(1,0,0,1,483.1454341858123,296.26666666666665) translate(0 89.53333333333333)"/><use xlink:href="#R" transform="matrix(1,0,0,1,483.1454341858123,296.26666666666665) translate(15.005555555555553 89.53333333333333)"/><use xlink:href="#M" transform="matrix(1,0,0,1,483.1454341858123,296.26666666666665) translate(315.9388888888887 89.53333333333333)"/></g><g><use xlink:href="#S" transform="matrix(1,0,0,1,483.1454341858123,421.5666666666666) translate(0 30.033333333333342)"/><use xlink:href="#T" transform="matrix(1,0,0,1,483.1454341858123,421.5666666666666) translate(20.55555555555555 30.033333333333342)"/><use xlink:href="#U" transform="matrix(1,0,0,1,483.1454341858123,421.5666666666666) translate(384.38888888888874 30.033333333333342)"/><use xlink:href="#V" transform="matrix(1,0,0,1,483.1454341858123,421.5666666666666) translate(525.2629629629628 30.033333333333342)"/><use xlink:href="#W" transform="matrix(1,0,0,1,483.1454341858123,421.5666666666666) translate(0 59.63333333333334)"/><use xlink:href="#S" transform="matrix(1,0,0,1,483.1454341858123,421.5666666666666) translate(0 89.23333333333333)"/><use xlink:href="#X" transform="matrix(1,0,0,1,483.1454341858123,421.5666666666666) translate(20.55555555555555 89.23333333333333)"/><use xlink:href="#Y" transform="matrix(1,0,0,1,483.1454341858123,421.5666666666666) translate(346.15555555555534 89.23333333333333)"/><use xlink:href="#Z" transform="matrix(1,0,0,1,483.1454341858123,421.5666666666666) translate(476.0666666666664 89.23333333333333)"/><use xlink:href="#F" transform="matrix(1,0,0,1,483.1454341858123,421.5666666666666) translate(539.1037037037034 89.23333333333333)"/><use xlink:href="#G" transform="matrix(1,0,0,1,483.1454341858123,421.5666666666666) translate(610.2944444444441 89.23333333333333)"/><use xlink:href="#H" transform="matrix(1,0,0,1,483.1454341858123,421.5666666666666) translate(0 118.83333333333333)"/><use xlink:href="#aa" transform="matrix(1,0,0,1,483.1454341858123,421.5666666666666) translate(110.86296296296292 118.83333333333333)"/><use xlink:href="#ab" transform="matrix(1,0,0,1,483.1454341858123,421.5666666666666) translate(175.2018518518518 118.83333333333333)"/></g><path d="M302.1 406.73h-58.12v-1h58.12zm167.54-3.34h-58.12v-1h58.13z" stroke="#333" stroke-width=".05" fill="#333"/><path d="M244 406.73h-.52v-1h.5z" fill="#333"/><path d="M244.02 406.75h-.57v-1.05h.57zm-.52-1v.95h.47v-.95z" stroke="#333" stroke-width=".05" fill="#333"/><path d="M470.14 403.4h-.5v-1h.5z" fill="#333"/><path d="M470.17 403.4h-.56v-1.04h.57zm-.5-1v.96h.45v-.95z" stroke="#333" stroke-width=".05" fill="#333"/><g><use xlink:href="#ac" transform="matrix(1,0,0,1,251.04775661834077,372.6262996941896) translate(0 19.73333333333333)"/></g><g><use xlink:href="#ad" transform="matrix(1,0,0,1,427.36319988780224,369.28584474885844) translate(0 19.73333333333333)"/></g><g><use xlink:href="#ae" transform="matrix(1,0,0,1,302.1000640558691,389.756072221524) translate(0 19.73333333333333)"/></g><path d="M140.92 720c10.54 0 19.08 8.54 19.08 19.08s-8.54 19.1-19.08 19.1h-461.84c-10.54 0-19.08-8.56-19.08-19.1 0-10.54 8.54-19.08 19.08-19.08z" stroke="#5e5e5e" stroke-width="3" fill-opacity="0"/><g><use xlink:href="#af" transform="matrix(1,0,0,1,-312.91700192703524,728) translate(6.802469135802426 19.72222222222222)"/><use xlink:href="#ag" transform="matrix(1,0,0,1,-312.91700192703524,728) translate(169.42592592592592 19.72222222222222)"/><use xlink:href="#ah" transform="matrix(1,0,0,1,-312.91700192703524,728) translate(304.9567901234568 19.72222222222222)"/><use xlink:href="#ai" transform="matrix(1,0,0,1,-312.91700192703524,728) translate(332.1172839506173 19.72222222222222)"/><use xlink:href="#aj" transform="matrix(1,0,0,1,-312.91700192703524,728) translate(371.4320987654321 19.72222222222222)"/><use xlink:href="#ak" transform="matrix(1,0,0,1,-312.91700192703524,728) translate(398.5925925925926 19.72222222222222)"/><use xlink:href="#al" transform="matrix(1,0,0,1,-312.91700192703524,728) translate(210.1327160493827 49.05555555555556)"/></g><g transform="matrix(1,0,0,1,-312.91700192703524,728)"><a xlink:href="http://MPI.Comm," target="_blank"><path class="lucid-link lucid-hotspot lucid-overlay-hotspot" fill-opacity="0" d="M169.43.17h128.74V29.5H169.43z"/></a></g><defs><path fill="#333" d="M67-125c0 53 21 87 73 88 37 1 54-22 65-47l45 17C233-25 199 4 140 4 58 4 20-42 15-125 8-235 124-281 211-232c18 10 29 29 36 50l-46 12c-8-25-30-41-62-41-52 0-71 34-72 86" id="am"/><path fill="#333" d="M110-194c64 0 96 36 96 99 0 64-35 99-97 99-61 0-95-36-95-99 0-62 34-99 96-99zm-1 164c35 0 45-28 45-65 0-40-10-65-43-65-34 0-45 26-45 65 0 36 10 65 43 65" id="an"/><path fill="#333" d="M135-150c-39-12-60 13-60 57V0H25l-1-190h47c2 13-1 29 3 40 6-28 27-53 61-41v41" id="ao"/><path fill="#333" d="M88-194c31-1 46 15 58 34l-1-101h50l1 261h-48c-2-10 0-23-3-31C134-8 116 4 84 4 32 4 16-41 15-95c0-56 19-97 73-99zm17 164c33 0 40-30 41-66 1-37-9-64-41-64s-38 30-39 65c0 43 13 65 39 65" id="ap"/><path fill="#333" d="M25-224v-37h50v37H25zM25 0v-190h50V0H25" id="aq"/><path fill="#333" d="M135-194c87-1 58 113 63 194h-50c-7-57 23-157-34-157-59 0-34 97-39 157H25l-1-190h47c2 12-1 28 3 38 12-26 28-41 61-42" id="ar"/><path fill="#333" d="M133-34C117-15 103 5 69 4 32 3 11-16 11-54c-1-60 55-63 116-61 1-26-3-47-28-47-18 1-26 9-28 27l-52-2c7-38 36-58 82-57s74 22 75 68l1 82c-1 14 12 18 25 15v27c-30 8-71 5-69-32zm-48 3c29 0 43-24 42-57-32 0-66-3-65 30 0 17 8 27 23 27" id="as"/><path fill="#333" d="M115-3C79 11 28 4 28-45v-112H4v-33h27l15-45h31v45h36v33H77v99c-1 23 16 31 38 25v30" id="at"/><path fill="#333" d="M185-48c-13 30-37 53-82 52C43 2 14-33 14-96s30-98 90-98c62 0 83 45 84 108H66c0 31 8 55 39 56 18 0 30-7 34-22zm-45-69c5-46-57-63-70-21-2 6-4 13-4 21h74" id="au"/><g id="a"><use transform="matrix(0.06790123456790123,0,0,0.06790123456790123,0,0)" xlink:href="#am"/><use transform="matrix(0.06790123456790123,0,0,0.06790123456790123,17.586419753086417,0)" xlink:href="#an"/><use transform="matrix(0.06790123456790123,0,0,0.06790123456790123,32.456790123456784,0)" xlink:href="#an"/><use transform="matrix(0.06790123456790123,0,0,0.06790123456790123,47.32716049382715,0)" xlink:href="#ao"/><use transform="matrix(0.06790123456790123,0,0,0.06790123456790123,56.83333333333332,0)" xlink:href="#ap"/><use transform="matrix(0.06790123456790123,0,0,0.06790123456790123,71.7037037037037,0)" xlink:href="#aq"/><use transform="matrix(0.06790123456790123,0,0,0.06790123456790123,78.49382716049382,0)" xlink:href="#ar"/><use transform="matrix(0.06790123456790123,0,0,0.06790123456790123,93.36419753086419,0)" xlink:href="#as"/><use transform="matrix(0.06790123456790123,0,0,0.06790123456790123,106.94444444444443,0)" xlink:href="#at"/><use transform="matrix(0.06790123456790123,0,0,0.06790123456790123,115.02469135802468,0)" xlink:href="#au"/><use transform="matrix(0.06790123456790123,0,0,0.06790123456790123,128.60493827160494,0)" xlink:href="#ap"/></g><path fill="#333" d="M220-157c-53 9-28 100-34 157h-49v-107c1-27-5-49-29-50C55-147 81-57 75 0H25l-1-190h47c2 12-1 28 3 38 10-53 101-56 108 0 13-22 24-43 59-42 82 1 51 116 57 194h-49v-107c-1-25-5-48-29-50" id="av"/><path fill="#333" d="M85 4C-2 5 27-109 22-190h50c7 57-23 150 33 157 60-5 35-97 40-157h50l1 190h-47c-2-12 1-28-3-38-12 25-28 42-61 42" id="aw"/><path fill="#333" d="M25 0v-261h50V0H25" id="ax"/><g id="b"><use transform="matrix(0.06790123456790123,0,0,0.06790123456790123,0,0)" xlink:href="#av"/><use transform="matrix(0.06790123456790123,0,0,0.06790123456790123,21.728395061728392,0)" xlink:href="#an"/><use transform="matrix(0.06790123456790123,0,0,0.06790123456790123,36.59876543209876,0)" xlink:href="#ap"/><use transform="matrix(0.06790123456790123,0,0,0.06790123456790123,51.469135802469125,0)" xlink:href="#aw"/><use transform="matrix(0.06790123456790123,0,0,0.06790123456790123,66.33950617283949,0)" xlink:href="#ax"/><use transform="matrix(0.06790123456790123,0,0,0.06790123456790123,73.12962962962962,0)" xlink:href="#au"/></g><path fill="#333" d="M114-163C36-179 61-72 57 0H25l-1-190h30c1 12-1 29 2 39 6-27 23-49 58-41v29" id="ay"/><path fill="#333" d="M141-36C126-15 110 5 73 4 37 3 15-17 15-53c-1-64 63-63 125-63 3-35-9-54-41-54-24 1-41 7-42 31l-33-3c5-37 33-52 76-52 45 0 72 20 72 64v82c-1 20 7 32 28 27v20c-31 9-61-2-59-35zM48-53c0 20 12 33 32 33 41-3 63-29 60-74-43 2-92-5-92 41" id="az"/><path fill="#333" d="M117-194c89-4 53 116 60 194h-32v-121c0-31-8-49-39-48C34-167 62-67 57 0H25l-1-190h30c1 10-1 24 2 32 11-22 29-35 61-36" id="aA"/><path fill="#333" d="M85-194c31 0 48 13 60 33l-1-100h32l1 261h-30c-2-10 0-23-3-31C134-8 116 4 85 4 32 4 16-35 15-94c0-66 23-100 70-100zm9 24c-40 0-46 34-46 75 0 40 6 74 45 74 42 0 51-32 51-76 0-42-9-74-50-73" id="aB"/><path fill="#333" d="M100-194c62-1 85 37 85 99 1 63-27 99-86 99S16-35 15-95c0-66 28-99 85-99zM99-20c44 1 53-31 53-75 0-43-8-75-51-75s-53 32-53 75 10 74 51 75" id="aC"/><path fill="#333" d="M210-169c-67 3-38 105-44 169h-31v-121c0-29-5-50-35-48C34-165 62-65 56 0H25l-1-190h30c1 10-1 24 2 32 10-44 99-50 107 0 11-21 27-35 58-36 85-2 47 119 55 194h-31v-121c0-29-5-49-35-48" id="aD"/><path fill="#333" d="M87 75C49 33 22-17 22-94c0-76 28-126 65-167h31c-38 41-64 92-64 168S80 34 118 75H87" id="aE"/><path fill="#333" d="M96-169c-40 0-48 33-48 73s9 75 48 75c24 0 41-14 43-38l32 2c-6 37-31 61-74 61-59 0-76-41-82-99-10-93 101-131 147-64 4 7 5 14 7 22l-32 3c-4-21-16-35-41-35" id="aF"/><path fill="#333" d="M33-154v-36h34v36H33zM33 0v-36h34V0H33" id="aG"/><g id="c"><use transform="matrix(0.06790123456790123,0,0,0.06790123456790123,0,0)" xlink:href="#ay"/><use transform="matrix(0.06790123456790123,0,0,0.06790123456790123,8.080246913580247,0)" xlink:href="#az"/><use transform="matrix(0.06790123456790123,0,0,0.06790123456790123,21.660493827160494,0)" xlink:href="#aA"/><use transform="matrix(0.06790123456790123,0,0,0.06790123456790123,35.24074074074074,0)" xlink:href="#aB"/><use transform="matrix(0.06790123456790123,0,0,0.06790123456790123,48.82098765432099,0)" xlink:href="#aC"/><use transform="matrix(0.06790123456790123,0,0,0.06790123456790123,62.401234567901234,0)" xlink:href="#aD"/><use transform="matrix(0.06790123456790123,0,0,0.06790123456790123,82.7037037037037,0)" xlink:href="#aE"/><use transform="matrix(0.06790123456790123,0,0,0.06790123456790123,90.78395061728395,0)" xlink:href="#aF"/><use transform="matrix(0.06790123456790123,0,0,0.06790123456790123,103.00617283950618,0)" xlink:href="#aC"/><use transform="matrix(0.06790123456790123,0,0,0.06790123456790123,116.58641975308643,0)" xlink:href="#aD"/><use transform="matrix(0.06790123456790123,0,0,0.06790123456790123,136.8888888888889,0)" xlink:href="#aD"/><use transform="matrix(0.06790123456790123,0,0,0.06790123456790123,157.19135802469143,0)" xlink:href="#aG"/></g><path fill="#333" d="M240 0l2-218c-23 76-54 145-80 218h-23L58-218 59 0H30v-248h44l77 211c21-75 51-140 76-211h43V0h-30" id="aH"/><path fill="#333" d="M30-248c87 1 191-15 191 75 0 78-77 80-158 76V0H30v-248zm33 125c57 0 124 11 124-50 0-59-68-47-124-48v98" id="aI"/><path fill="#333" d="M33 0v-248h34V0H33" id="aJ"/><path fill="#333" d="M33 0v-38h34V0H33" id="aK"/><path fill="#333" d="M212-179c-10-28-35-45-73-45-59 0-87 40-87 99 0 60 29 101 89 101 43 0 62-24 78-52l27 14C228-24 195 4 139 4 59 4 22-46 18-125c-6-104 99-153 187-111 19 9 31 26 39 46" id="aL"/><path fill="#333" d="M33-261c38 41 65 92 65 168S71 34 33 75H2C39 34 66-17 66-93S39-220 2-261h31" id="aM"/><g id="d"><use transform="matrix(0.06790123456790123,0,0,0.06790123456790123,0,0)" xlink:href="#aH"/><use transform="matrix(0.06790123456790123,0,0,0.06790123456790123,20.30246913580247,0)" xlink:href="#aI"/><use transform="matrix(0.06790123456790123,0,0,0.06790123456790123,36.59876543209876,0)" xlink:href="#aJ"/><use transform="matrix(0.06790123456790123,0,0,0.06790123456790123,43.388888888888886,0)" xlink:href="#aK"/><use transform="matrix(0.06790123456790123,0,0,0.06790123456790123,50.17901234567901,0)" xlink:href="#aL"/><use transform="matrix(0.06790123456790123,0,0,0.06790123456790123,67.76543209876543,0)" xlink:href="#aC"/><use transform="matrix(0.06790123456790123,0,0,0.06790123456790123,81.34567901234567,0)" xlink:href="#aD"/><use transform="matrix(0.06790123456790123,0,0,0.06790123456790123,101.64814814814814,0)" xlink:href="#aD"/><use transform="matrix(0.06790123456790123,0,0,0.06790123456790123,121.9506172839506,0)" xlink:href="#aM"/><use transform="matrix(0.06790123456790123,0,0,0.06790123456790123,130.03086419753086,0)" xlink:href="#aG"/></g><path fill="#333" d="M101-234c-31-9-42 10-38 44h38v23H63V0H32v-167H5v-23h27c-7-52 17-82 69-68v24" id="aN"/><path fill="#333" d="M24 0v-261h32V0H24" id="aO"/><path fill="#333" d="M59-47c-2 24 18 29 38 22v24C64 9 27 4 27-40v-127H5v-23h24l9-43h21v43h35v23H59v120" id="aP"/><g id="e"><use transform="matrix(0.06790123456790123,0,0,0.06790123456790123,0,0)" xlink:href="#aN"/><use transform="matrix(0.06790123456790123,0,0,0.06790123456790123,6.790123456790123,0)" xlink:href="#aO"/><use transform="matrix(0.06790123456790123,0,0,0.06790123456790123,12.15432098765432,0)" xlink:href="#aC"/><use transform="matrix(0.06790123456790123,0,0,0.06790123456790123,25.734567901234566,0)" xlink:href="#az"/><use transform="matrix(0.06790123456790123,0,0,0.06790123456790123,39.31481481481481,0)" xlink:href="#aP"/></g><path fill="#333" d="M115-194c55 1 70 41 70 98S169 2 115 4C84 4 66-9 55-30l1 105H24l-1-265h31l2 30c10-21 28-34 59-34zm-8 174c40 0 45-34 45-75s-6-73-45-74c-42 0-51 32-51 76 0 43 10 73 51 73" id="aQ"/><path fill="#333" d="M100-194c63 0 86 42 84 106H49c0 40 14 67 53 68 26 1 43-12 49-29l28 8c-11 28-37 45-77 45C44 4 14-33 15-96c1-61 26-98 85-98zm52 81c6-60-76-77-97-28-3 7-6 17-6 28h103" id="aR"/><path fill="#333" d="M84 4C-5 8 30-112 23-190h32v120c0 31 7 50 39 49 72-2 45-101 50-169h31l1 190h-30c-1-10 1-25-2-33-11 22-28 36-60 37" id="aS"/><g id="f"><use transform="matrix(0.06790123456790123,0,0,0.06790123456790123,0,0)" xlink:href="#aQ"/><use transform="matrix(0.06790123456790123,0,0,0.06790123456790123,13.580246913580247,0)" xlink:href="#az"/><use transform="matrix(0.06790123456790123,0,0,0.06790123456790123,27.160493827160494,0)" xlink:href="#ay"/><use transform="matrix(0.06790123456790123,0,0,0.06790123456790123,35.24074074074074,0)" xlink:href="#az"/><use transform="matrix(0.06790123456790123,0,0,0.06790123456790123,48.82098765432099,0)" xlink:href="#aO"/><use transform="matrix(0.06790123456790123,0,0,0.06790123456790123,54.18518518518518,0)" xlink:href="#aO"/><use transform="matrix(0.06790123456790123,0,0,0.06790123456790123,59.54938271604938,0)" xlink:href="#aR"/><use transform="matrix(0.06790123456790123,0,0,0.06790123456790123,73.12962962962962,0)" xlink:href="#aO"/><use transform="matrix(0.06790123456790123,0,0,0.06790123456790123,78.49382716049382,0)" xlink:href="#aE"/><use transform="matrix(0.06790123456790123,0,0,0.06790123456790123,86.57407407407408,0)" xlink:href="#aN"/><use transform="matrix(0.06790123456790123,0,0,0.06790123456790123,93.3641975308642,0)" xlink:href="#aS"/><use transform="matrix(0.06790123456790123,0,0,0.06790123456790123,106.94444444444446,0)" xlink:href="#aA"/><use transform="matrix(0.06790123456790123,0,0,0.06790123456790123,120.52469135802471,0)" xlink:href="#aF"/><use transform="matrix(0.06790123456790123,0,0,0.06790123456790123,132.74691358024694,0)" xlink:href="#aG"/></g><path fill="#333" d="M115-194c53 0 69 39 70 98 0 66-23 100-70 100C84 3 66-7 56-30L54 0H23l1-261h32v101c10-23 28-34 59-34zm-8 174c40 0 45-34 45-75 0-40-5-75-45-74-42 0-51 32-51 76 0 43 10 73 51 73" id="aT"/><g id="g"><use transform="matrix(0.06790123456790123,0,0,0.06790123456790123,0,0)" xlink:href="#aL"/><use transform="matrix(0.06790123456790123,0,0,0.06790123456790123,17.586419753086417,0)" xlink:href="#az"/><use transform="matrix(0.06790123456790123,0,0,0.06790123456790123,31.166666666666664,0)" xlink:href="#aO"/><use transform="matrix(0.06790123456790123,0,0,0.06790123456790123,36.53086419753086,0)" xlink:href="#aO"/><use transform="matrix(0.06790123456790123,0,0,0.06790123456790123,41.895061728395056,0)" xlink:href="#az"/><use transform="matrix(0.06790123456790123,0,0,0.06790123456790123,55.4753086419753,0)" xlink:href="#aT"/><use transform="matrix(0.06790123456790123,0,0,0.06790123456790123,69.05555555555554,0)" xlink:href="#aO"/><use transform="matrix(0.06790123456790123,0,0,0.06790123456790123,74.41975308641975,0)" xlink:href="#aR"/><use transform="matrix(0.06790123456790123,0,0,0.06790123456790123,88,0)" xlink:href="#aM"/></g><path fill="#333" d="M16-82v-28h88v28H16" id="aU"/><path fill="#333" d="M18-27v-27l151-64-151-65v-27l175 74v36" id="aV"/><g id="h"><use transform="matrix(0.06790123456790123,0,0,0.06790123456790123,0,0)" xlink:href="#aU"/><use transform="matrix(0.06790123456790123,0,0,0.06790123456790123,8.080246913580247,0)" xlink:href="#aV"/></g><g id="i"><use transform="matrix(0.06790123456790123,0,0,0.06790123456790123,0,0)" xlink:href="#aL"/><use transform="matrix(0.06790123456790123,0,0,0.06790123456790123,17.586419753086417,0)" xlink:href="#az"/><use transform="matrix(0.06790123456790123,0,0,0.06790123456790123,31.166666666666664,0)" xlink:href="#aO"/><use transform="matrix(0.06790123456790123,0,0,0.06790123456790123,36.53086419753086,0)" xlink:href="#aO"/><use transform="matrix(0.06790123456790123,0,0,0.06790123456790123,41.895061728395056,0)" xlink:href="#az"/><use transform="matrix(0.06790123456790123,0,0,0.06790123456790123,55.4753086419753,0)" xlink:href="#aT"/><use transform="matrix(0.06790123456790123,0,0,0.06790123456790123,69.05555555555554,0)" xlink:href="#aO"/><use transform="matrix(0.06790123456790123,0,0,0.06790123456790123,74.41975308641975,0)" xlink:href="#aR"/></g><g id="j"><use transform="matrix(0.056172839506172835,0,0,0.056172839506172835,0,0)" xlink:href="#am"/><use transform="matrix(0.056172839506172835,0,0,0.056172839506172835,14.548765432098763,0)" xlink:href="#an"/><use transform="matrix(0.056172839506172835,0,0,0.056172839506172835,26.850617283950612,0)" xlink:href="#an"/><use transform="matrix(0.056172839506172835,0,0,0.056172839506172835,39.15246913580246,0)" xlink:href="#ao"/><use transform="matrix(0.056172839506172835,0,0,0.056172839506172835,47.01666666666666,0)" xlink:href="#ap"/><use transform="matrix(0.056172839506172835,0,0,0.056172839506172835,59.318518518518516,0)" xlink:href="#aq"/><use transform="matrix(0.056172839506172835,0,0,0.056172839506172835,64.9358024691358,0)" xlink:href="#ar"/><use transform="matrix(0.056172839506172835,0,0,0.056172839506172835,77.23765432098764,0)" xlink:href="#as"/><use transform="matrix(0.056172839506172835,0,0,0.056172839506172835,88.47222222222221,0)" xlink:href="#at"/><use transform="matrix(0.056172839506172835,0,0,0.056172839506172835,95.15679012345679,0)" xlink:href="#an"/><use transform="matrix(0.056172839506172835,0,0,0.056172839506172835,107.45864197530864,0)" xlink:href="#ao"/></g><use transform="matrix(0.0685185185185185,0,0,0.0685185185185185,0,0)" xlink:href="#aU" id="k"/><g id="l"><use transform="matrix(0.0685185185185185,0,0,0.0685185185185185,0,0)" xlink:href="#aF"/><use transform="matrix(0.0685185185185185,0,0,0.0685185185185185,12.33333333333333,0)" xlink:href="#aC"/><use transform="matrix(0.0685185185185185,0,0,0.0685185185185185,26.03703703703703,0)" xlink:href="#aD"/><use transform="matrix(0.0685185185185185,0,0,0.0685185185185185,46.524074074074065,0)" xlink:href="#aD"/><use transform="matrix(0.0685185185185185,0,0,0.0685185185185185,67.01111111111109,0)" xlink:href="#aG"/></g><g id="m"><use transform="matrix(0.0685185185185185,0,0,0.0685185185185185,0,0)" xlink:href="#aH"/><use transform="matrix(0.0685185185185185,0,0,0.0685185185185185,20.487037037037034,0)" xlink:href="#aI"/><use transform="matrix(0.0685185185185185,0,0,0.0685185185185185,36.93148148148148,0)" xlink:href="#aJ"/><use transform="matrix(0.0685185185185185,0,0,0.0685185185185185,43.783333333333324,0)" xlink:href="#aK"/><use transform="matrix(0.0685185185185185,0,0,0.0685185185185185,50.63518518518517,0)" xlink:href="#aL"/><use transform="matrix(0.0685185185185185,0,0,0.0685185185185185,68.38148148148147,0)" xlink:href="#aC"/><use transform="matrix(0.0685185185185185,0,0,0.0685185185185185,82.08518518518517,0)" xlink:href="#aD"/><use transform="matrix(0.0685185185185185,0,0,0.0685185185185185,102.5722222222222,0)" xlink:href="#aD"/></g><path fill="#333" d="M24-231v-30h32v30H24zM-9 49c24 4 33-6 33-30v-209h32V24c2 40-23 58-65 49V49" id="aW"/><path fill="#333" d="M135-143c-3-34-86-38-87 0 15 53 115 12 119 90S17 21 10-45l28-5c4 36 97 45 98 0-10-56-113-15-118-90-4-57 82-63 122-42 12 7 21 19 24 35" id="aX"/><g id="n"><use transform="matrix(0.0685185185185185,0,0,0.0685185185185185,0,0)" xlink:href="#aC"/><use transform="matrix(0.0685185185185185,0,0,0.0685185185185185,13.7037037037037,0)" xlink:href="#aT"/><use transform="matrix(0.0685185185185185,0,0,0.0685185185185185,27.4074074074074,0)" xlink:href="#aW"/><use transform="matrix(0.0685185185185185,0,0,0.0685185185185185,32.82037037037036,0)" xlink:href="#aR"/><use transform="matrix(0.0685185185185185,0,0,0.0685185185185185,46.524074074074065,0)" xlink:href="#aF"/><use transform="matrix(0.0685185185185185,0,0,0.0685185185185185,58.8574074074074,0)" xlink:href="#aP"/><use transform="matrix(0.0685185185185185,0,0,0.0685185185185185,65.70925925925924,0)" xlink:href="#aX"/><use transform="matrix(0.0685185185185185,0,0,0.0685185185185185,78.04259259259257,0)" xlink:href="#aG"/></g><path fill="#333" d="M24-231v-30h32v30H24zM24 0v-190h32V0H24" id="aY"/><g id="o"><use transform="matrix(0.0685185185185185,0,0,0.0685185185185185,0,0)" xlink:href="#aB"/><use transform="matrix(0.0685185185185185,0,0,0.0685185185185185,13.7037037037037,0)" xlink:href="#aY"/><use transform="matrix(0.0685185185185185,0,0,0.0685185185185185,19.116666666666664,0)" xlink:href="#aF"/><use transform="matrix(0.0685185185185185,0,0,0.0685185185185185,31.449999999999996,0)" xlink:href="#aP"/></g><path fill="#333" d="M-5 72V49h209v23H-5" id="aZ"/><path fill="#333" d="M206 0h-36l-40-164L89 0H53L-1-190h32L70-26l43-164h34l41 164 42-164h31" id="ba"/><path fill="#333" d="M106-169C34-169 62-67 57 0H25v-261h32l-1 103c12-21 28-36 61-36 89 0 53 116 60 194h-32v-121c2-32-8-49-39-48" id="bb"/><g id="p"><use transform="matrix(0.0685185185185185,0,0,0.0685185185185185,0,0)" xlink:href="#aY"/><use transform="matrix(0.0685185185185185,0,0,0.0685185185185185,5.412962962962962,0)" xlink:href="#aX"/><use transform="matrix(0.0685185185185185,0,0,0.0685185185185185,17.746296296296293,0)" xlink:href="#aZ"/><use transform="matrix(0.0685185185185185,0,0,0.0685185185185185,31.449999999999996,0)" xlink:href="#aY"/><use transform="matrix(0.0685185185185185,0,0,0.0685185185185185,36.86296296296297,0)" xlink:href="#aA"/><use transform="matrix(0.0685185185185185,0,0,0.0685185185185185,50.56666666666666,0)" xlink:href="#aX"/><use transform="matrix(0.0685185185185185,0,0,0.0685185185185185,62.89999999999999,0)" xlink:href="#aY"/><use transform="matrix(0.0685185185185185,0,0,0.0685185185185185,68.31296296296296,0)" xlink:href="#aB"/><use transform="matrix(0.0685185185185185,0,0,0.0685185185185185,82.01666666666665,0)" xlink:href="#aR"/><use transform="matrix(0.0685185185185185,0,0,0.0685185185185185,95.72037037037035,0)" xlink:href="#aZ"/><use transform="matrix(0.0685185185185185,0,0,0.0685185185185185,109.42407407407404,0)" xlink:href="#ba"/><use transform="matrix(0.0685185185185185,0,0,0.0685185185185185,127.17037037037034,0)" xlink:href="#aY"/><use transform="matrix(0.0685185185185185,0,0,0.0685185185185185,132.5833333333333,0)" xlink:href="#aP"/><use transform="matrix(0.0685185185185185,0,0,0.0685185185185185,139.43518518518513,0)" xlink:href="#bb"/><use transform="matrix(0.0685185185185185,0,0,0.0685185185185185,153.13888888888883,0)" xlink:href="#aZ"/><use transform="matrix(0.0685185185185185,0,0,0.0685185185185185,166.84259259259252,0)" xlink:href="#aX"/><use transform="matrix(0.0685185185185185,0,0,0.0685185185185185,179.17592592592587,0)" xlink:href="#aP"/><use transform="matrix(0.0685185185185185,0,0,0.0685185185185185,186.02777777777771,0)" xlink:href="#az"/><use transform="matrix(0.0685185185185185,0,0,0.0685185185185185,199.7314814814814,0)" xlink:href="#aP"/><use transform="matrix(0.0685185185185185,0,0,0.0685185185185185,206.58333333333326,0)" xlink:href="#aR"/><use transform="matrix(0.0685185185185185,0,0,0.0685185185185185,220.28703703703695,0)" xlink:href="#aD"/><use transform="matrix(0.0685185185185185,0,0,0.0685185185185185,240.77407407407398,0)" xlink:href="#aR"/><use transform="matrix(0.0685185185185185,0,0,0.0685185185185185,254.47777777777767,0)" xlink:href="#aA"/><use transform="matrix(0.0685185185185185,0,0,0.0685185185185185,268.1814814814814,0)" xlink:href="#aP"/><use transform="matrix(0.0685185185185185,0,0,0.0685185185185185,275.03333333333325,0)" xlink:href="#aG"/></g><g id="q"><use transform="matrix(0.0685185185185185,0,0,0.0685185185185185,0,0)" xlink:href="#aT"/><use transform="matrix(0.0685185185185185,0,0,0.0685185185185185,13.7037037037037,0)" xlink:href="#aC"/><use transform="matrix(0.0685185185185185,0,0,0.0685185185185185,27.4074074074074,0)" xlink:href="#aC"/><use transform="matrix(0.0685185185185185,0,0,0.0685185185185185,41.11111111111111,0)" xlink:href="#aO"/></g><path fill="#333" d="M177-190C167-65 218 103 67 71c-23-6-38-20-44-43l32-5c15 47 100 32 89-28v-30C133-14 115 1 83 1 29 1 15-40 15-95c0-56 16-97 71-98 29-1 48 16 59 35 1-10 0-23 2-32h30zM94-22c36 0 50-32 50-73 0-42-14-75-50-75-39 0-46 34-46 75s6 73 46 73" id="bc"/><g id="r"><use transform="matrix(0.0685185185185185,0,0,0.0685185185185185,0,0)" xlink:href="#ay"/><use transform="matrix(0.0685185185185185,0,0,0.0685185185185185,8.153703703703702,0)" xlink:href="#aR"/><use transform="matrix(0.0685185185185185,0,0,0.0685185185185185,21.8574074074074,0)" xlink:href="#bc"/><use transform="matrix(0.0685185185185185,0,0,0.0685185185185185,35.5611111111111,0)" xlink:href="#aY"/><use transform="matrix(0.0685185185185185,0,0,0.0685185185185185,40.97407407407407,0)" xlink:href="#aX"/><use transform="matrix(0.0685185185185185,0,0,0.0685185185185185,53.307407407407396,0)" xlink:href="#aP"/><use transform="matrix(0.0685185185185185,0,0,0.0685185185185185,60.159259259259244,0)" xlink:href="#ay"/><use transform="matrix(0.0685185185185185,0,0,0.0685185185185185,68.31296296296294,0)" xlink:href="#az"/><use transform="matrix(0.0685185185185185,0,0,0.0685185185185185,82.01666666666664,0)" xlink:href="#aP"/><use transform="matrix(0.0685185185185185,0,0,0.0685185185185185,88.86851851851848,0)" xlink:href="#aY"/><use transform="matrix(0.0685185185185185,0,0,0.0685185185185185,94.28148148148145,0)" xlink:href="#aC"/><use transform="matrix(0.0685185185185185,0,0,0.0685185185185185,107.98518518518514,0)" xlink:href="#aA"/><use transform="matrix(0.0685185185185185,0,0,0.0685185185185185,121.68888888888884,0)" xlink:href="#aZ"/><use transform="matrix(0.0685185185185185,0,0,0.0685185185185185,135.39259259259254,0)" xlink:href="#aF"/><use transform="matrix(0.0685185185185185,0,0,0.0685185185185185,147.72592592592588,0)" xlink:href="#aC"/><use transform="matrix(0.0685185185185185,0,0,0.0685185185185185,161.42962962962957,0)" xlink:href="#aS"/><use transform="matrix(0.0685185185185185,0,0,0.0685185185185185,175.13333333333327,0)" xlink:href="#aA"/><use transform="matrix(0.0685185185185185,0,0,0.0685185185185185,188.83703703703696,0)" xlink:href="#aP"/><use transform="matrix(0.0685185185185185,0,0,0.0685185185185185,195.6888888888888,0)" xlink:href="#aR"/><use transform="matrix(0.0685185185185185,0,0,0.0685185185185185,209.3925925925925,0)" xlink:href="#ay"/><use transform="matrix(0.0685185185185185,0,0,0.0685185185185185,217.54629629629622,0)" xlink:href="#aG"/></g><g id="s"><use transform="matrix(0.0685185185185185,0,0,0.0685185185185185,0,0)" xlink:href="#aY"/><use transform="matrix(0.0685185185185185,0,0,0.0685185185185185,5.412962962962962,0)" xlink:href="#aA"/><use transform="matrix(0.0685185185185185,0,0,0.0685185185185185,19.116666666666664,0)" xlink:href="#aP"/></g><path fill="#333" d="M118-107v75H92v-75H18v-26h74v-75h26v75h74v26h-74" id="bd"/><use transform="matrix(0.0685185185185185,0,0,0.0685185185185185,0,0)" xlink:href="#bd" id="t"/><g id="u"><use transform="matrix(0.0685185185185185,0,0,0.0685185185185185,0,0)" xlink:href="#aH"/><use transform="matrix(0.0685185185185185,0,0,0.0685185185185185,20.487037037037034,0)" xlink:href="#aI"/><use transform="matrix(0.0685185185185185,0,0,0.0685185185185185,36.93148148148148,0)" xlink:href="#aJ"/><use transform="matrix(0.0685185185185185,0,0,0.0685185185185185,43.783333333333324,0)" xlink:href="#aZ"/><use transform="matrix(0.0685185185185185,0,0,0.0685185185185185,57.48703703703703,0)" xlink:href="#aL"/><use transform="matrix(0.0685185185185185,0,0,0.0685185185185185,75.23333333333332,0)" xlink:href="#aC"/><use transform="matrix(0.0685185185185185,0,0,0.0685185185185185,88.93703703703702,0)" xlink:href="#aD"/><use transform="matrix(0.0685185185185185,0,0,0.0685185185185185,109.42407407407404,0)" xlink:href="#aD"/><use transform="matrix(0.0685185185185185,0,0,0.0685185185185185,129.91111111111107,0)" xlink:href="#aE"/><use transform="matrix(0.0685185185185185,0,0,0.0685185185185185,138.06481481481478,0)" xlink:href="#aM"/><use transform="matrix(0.0685185185185185,0,0,0.0685185185185185,146.2185185185185,0)" xlink:href="#aG"/></g><g id="v"><use transform="matrix(0.0685185185185185,0,0,0.0685185185185185,0,0)" xlink:href="#aH"/><use transform="matrix(0.0685185185185185,0,0,0.0685185185185185,20.487037037037034,0)" xlink:href="#aI"/><use transform="matrix(0.0685185185185185,0,0,0.0685185185185185,36.93148148148148,0)" xlink:href="#aJ"/><use transform="matrix(0.0685185185185185,0,0,0.0685185185185185,43.783333333333324,0)" xlink:href="#aK"/><use transform="matrix(0.0685185185185185,0,0,0.0685185185185185,50.63518518518517,0)" xlink:href="#aL"/><use transform="matrix(0.0685185185185185,0,0,0.0685185185185185,68.38148148148147,0)" xlink:href="#aC"/><use transform="matrix(0.0685185185185185,0,0,0.0685185185185185,82.08518518518517,0)" xlink:href="#aD"/><use transform="matrix(0.0685185185185185,0,0,0.0685185185185185,102.5722222222222,0)" xlink:href="#aD"/><path fill="#8080ff" d="M-1.23 1.7H124.3v1.82H-1.23z"/></g><g id="w"><use transform="matrix(0.0685185185185185,0,0,0.0685185185185185,0,0)" xlink:href="#aY"/><use transform="matrix(0.0685185185185185,0,0,0.0685185185185185,5.412962962962962,0)" xlink:href="#aX"/><use transform="matrix(0.0685185185185185,0,0,0.0685185185185185,17.746296296296293,0)" xlink:href="#aZ"/><use transform="matrix(0.0685185185185185,0,0,0.0685185185185185,31.449999999999996,0)" xlink:href="#aO"/><use transform="matrix(0.0685185185185185,0,0,0.0685185185185185,36.86296296296297,0)" xlink:href="#aR"/><use transform="matrix(0.0685185185185185,0,0,0.0685185185185185,50.56666666666666,0)" xlink:href="#az"/><use transform="matrix(0.0685185185185185,0,0,0.0685185185185185,64.27037037037036,0)" xlink:href="#aB"/><use transform="matrix(0.0685185185185185,0,0,0.0685185185185185,77.97407407407405,0)" xlink:href="#aR"/><use transform="matrix(0.0685185185185185,0,0,0.0685185185185185,91.67777777777775,0)" xlink:href="#ay"/><use transform="matrix(0.0685185185185185,0,0,0.0685185185185185,99.83148148148145,0)" xlink:href="#aE"/><use transform="matrix(0.0685185185185185,0,0,0.0685185185185185,107.98518518518514,0)" xlink:href="#aM"/><use transform="matrix(0.0685185185185185,0,0,0.0685185185185185,116.13888888888884,0)" xlink:href="#aG"/></g><g id="x"><use transform="matrix(0.0685185185185185,0,0,0.0685185185185185,0,0)" xlink:href="#ay"/><use transform="matrix(0.0685185185185185,0,0,0.0685185185185185,8.153703703703702,0)" xlink:href="#aR"/><use transform="matrix(0.0685185185185185,0,0,0.0685185185185185,21.8574074074074,0)" xlink:href="#bc"/><use transform="matrix(0.0685185185185185,0,0,0.0685185185185185,35.5611111111111,0)" xlink:href="#aY"/><use transform="matrix(0.0685185185185185,0,0,0.0685185185185185,40.97407407407407,0)" xlink:href="#aX"/><use transform="matrix(0.0685185185185185,0,0,0.0685185185185185,53.307407407407396,0)" xlink:href="#aP"/><use transform="matrix(0.0685185185185185,0,0,0.0685185185185185,60.159259259259244,0)" xlink:href="#aR"/><use transform="matrix(0.0685185185185185,0,0,0.0685185185185185,73.86296296296294,0)" xlink:href="#ay"/><use transform="matrix(0.0685185185185185,0,0,0.0685185185185185,82.01666666666664,0)" xlink:href="#aE"/><use transform="matrix(0.0685185185185185,0,0,0.0685185185185185,90.17037037037034,0)" xlink:href="#aC"/><use transform="matrix(0.0685185185185185,0,0,0.0685185185185185,103.87407407407403,0)" xlink:href="#aT"/><use transform="matrix(0.0685185185185185,0,0,0.0685185185185185,117.57777777777773,0)" xlink:href="#aW"/><use transform="matrix(0.0685185185185185,0,0,0.0685185185185185,122.99074074074069,0)" xlink:href="#aR"/><use transform="matrix(0.0685185185185185,0,0,0.0685185185185185,136.6944444444444,0)" xlink:href="#aF"/><use transform="matrix(0.0685185185185185,0,0,0.0685185185185185,149.02777777777774,0)" xlink:href="#aP"/><use transform="matrix(0.0685185185185185,0,0,0.0685185185185185,155.8796296296296,0)" xlink:href="#aG"/></g><path fill="#333" d="M205 0l-28-72H64L36 0H1l101-248h38L239 0h-34zm-38-99l-47-123c-12 45-31 82-46 123h93" id="be"/><path fill="#333" d="M179-190L93 31C79 59 56 82 12 73V49c39 6 53-20 64-50L1-190h34L92-34l54-156h33" id="bf"/><path fill="#333" d="M68-38c1 34 0 65-14 84H32c9-13 17-26 17-46H33v-38h35" id="bg"/><g id="y"><use transform="matrix(0.0685185185185185,0,0,0.0685185185185185,0,0)" xlink:href="#be"/><use transform="matrix(0.0685185185185185,0,0,0.0685185185185185,16.444444444444443,0)" xlink:href="#aA"/><use transform="matrix(0.0685185185185185,0,0,0.0685185185185185,30.148148148148145,0)" xlink:href="#bf"/><use transform="matrix(0.0685185185185185,0,0,0.0685185185185185,40.63148148148147,0)" xlink:href="#bg"/></g><g id="z"><use transform="matrix(0.0685185185185185,0,0,0.0685185185185185,0,0)" xlink:href="#aA"/><use transform="matrix(0.0685185185185185,0,0,0.0685185185185185,13.7037037037037,0)" xlink:href="#az"/><use transform="matrix(0.0685185185185185,0,0,0.0685185185185185,27.4074074074074,0)" xlink:href="#aD"/><use transform="matrix(0.0685185185185185,0,0,0.0685185185185185,47.89444444444443,0)" xlink:href="#aR"/><use transform="matrix(0.0685185185185185,0,0,0.0685185185185185,61.598148148148134,0)" xlink:href="#aX"/><use transform="matrix(0.0685185185185185,0,0,0.0685185185185185,73.93148148148147,0)" xlink:href="#aQ"/><use transform="matrix(0.0685185185185185,0,0,0.0685185185185185,87.63518518518516,0)" xlink:href="#az"/><use transform="matrix(0.0685185185185185,0,0,0.0685185185185185,101.33888888888886,0)" xlink:href="#aF"/><use transform="matrix(0.0685185185185185,0,0,0.0685185185185185,113.67222222222219,0)" xlink:href="#aR"/><use transform="matrix(0.0685185185185185,0,0,0.0685185185185185,127.37592592592588,0)" xlink:href="#aG"/></g><path fill="#333" d="M140-251c81 0 123 46 123 126C263-46 219 4 140 4 59 4 17-45 17-125s42-126 123-126zm0 227c63 0 89-41 89-101s-29-99-89-99c-61 0-89 39-89 99S79-25 140-24" id="bh"/><path fill="#333" d="M26 75v-336h71v23H56V52h41v23H26" id="bi"/><path fill="#333" d="M3 75V52h41v-290H3v-23h71V75H3" id="bj"/><g id="A"><use transform="matrix(0.0685185185185185,0,0,0.0685185185185185,0,0)" xlink:href="#bh"/><use transform="matrix(0.0685185185185185,0,0,0.0685185185185185,19.185185185185183,0)" xlink:href="#aQ"/><use transform="matrix(0.0685185185185185,0,0,0.0685185185185185,32.888888888888886,0)" xlink:href="#aP"/><use transform="matrix(0.0685185185185185,0,0,0.0685185185185185,39.74074074074073,0)" xlink:href="#aY"/><use transform="matrix(0.0685185185185185,0,0,0.0685185185185185,45.1537037037037,0)" xlink:href="#aC"/><use transform="matrix(0.0685185185185185,0,0,0.0685185185185185,58.8574074074074,0)" xlink:href="#aA"/><use transform="matrix(0.0685185185185185,0,0,0.0685185185185185,72.5611111111111,0)" xlink:href="#az"/><use transform="matrix(0.0685185185185185,0,0,0.0685185185185185,86.2648148148148,0)" xlink:href="#aO"/><use transform="matrix(0.0685185185185185,0,0,0.0685185185185185,91.67777777777776,0)" xlink:href="#bi"/><use transform="matrix(0.0685185185185185,0,0,0.0685185185185185,98.52962962962961,0)" xlink:href="#aX"/><use transform="matrix(0.0685185185185185,0,0,0.0685185185185185,110.86296296296294,0)" xlink:href="#aP"/><use transform="matrix(0.0685185185185185,0,0,0.0685185185185185,117.7148148148148,0)" xlink:href="#ay"/><use transform="matrix(0.0685185185185185,0,0,0.0685185185185185,125.86851851851848,0)" xlink:href="#bj"/><use transform="matrix(0.0685185185185185,0,0,0.0685185185185185,132.72037037037035,0)" xlink:href="#aM"/><use transform="matrix(0.0685185185185185,0,0,0.0685185185185185,140.87407407407406,0)" xlink:href="#aG"/></g><g id="B"><use transform="matrix(0.0685185185185185,0,0,0.0685185185185185,0,0)" xlink:href="#aX"/><use transform="matrix(0.0685185185185185,0,0,0.0685185185185185,12.33333333333333,0)" xlink:href="#aP"/><use transform="matrix(0.0685185185185185,0,0,0.0685185185185185,19.185185185185176,0)" xlink:href="#ay"/></g><g id="C"><use transform="matrix(0.0685185185185185,0,0,0.0685185185185185,0,0)" xlink:href="#aT"/><use transform="matrix(0.0685185185185185,0,0,0.0685185185185185,13.7037037037037,0)" xlink:href="#ay"/><use transform="matrix(0.0685185185185185,0,0,0.0685185185185185,21.8574074074074,0)" xlink:href="#aC"/><use transform="matrix(0.0685185185185185,0,0,0.0685185185185185,35.5611111111111,0)" xlink:href="#az"/><use transform="matrix(0.0685185185185185,0,0,0.0685185185185185,49.264814814814805,0)" xlink:href="#aB"/><use transform="matrix(0.0685185185185185,0,0,0.0685185185185185,62.96851851851851,0)" xlink:href="#aF"/><use transform="matrix(0.0685185185185185,0,0,0.0685185185185185,75.30185185185184,0)" xlink:href="#az"/><use transform="matrix(0.0685185185185185,0,0,0.0685185185185185,89.00555555555552,0)" xlink:href="#aX"/><use transform="matrix(0.0685185185185185,0,0,0.0685185185185185,101.33888888888886,0)" xlink:href="#aP"/><use transform="matrix(0.0685185185185185,0,0,0.0685185185185185,108.19074074074071,0)" xlink:href="#aE"/><use transform="matrix(0.0685185185185185,0,0,0.0685185185185185,116.3444444444444,0)" xlink:href="#aA"/><use transform="matrix(0.0685185185185185,0,0,0.0685185185185185,130.0481481481481,0)" xlink:href="#az"/><use transform="matrix(0.0685185185185185,0,0,0.0685185185185185,143.7518518518518,0)" xlink:href="#aD"/><use transform="matrix(0.0685185185185185,0,0,0.0685185185185185,164.23888888888882,0)" xlink:href="#aR"/><use transform="matrix(0.0685185185185185,0,0,0.0685185185185185,177.94259259259252,0)" xlink:href="#aX"/><use transform="matrix(0.0685185185185185,0,0,0.0685185185185185,190.27592592592586,0)" xlink:href="#aQ"/><use transform="matrix(0.0685185185185185,0,0,0.0685185185185185,203.97962962962956,0)" xlink:href="#az"/><use transform="matrix(0.0685185185185185,0,0,0.0685185185185185,217.68333333333325,0)" xlink:href="#aF"/><use transform="matrix(0.0685185185185185,0,0,0.0685185185185185,230.0166666666666,0)" xlink:href="#aR"/><use transform="matrix(0.0685185185185185,0,0,0.0685185185185185,243.7203703703703,0)" xlink:href="#aG"/></g><g id="D"><use transform="matrix(0.0685185185185185,0,0,0.0685185185185185,0,0)" xlink:href="#aX"/><use transform="matrix(0.0685185185185185,0,0,0.0685185185185185,12.33333333333333,0)" xlink:href="#aP"/><use transform="matrix(0.0685185185185185,0,0,0.0685185185185185,19.185185185185176,0)" xlink:href="#ay"/><use transform="matrix(0.0685185185185185,0,0,0.0685185185185185,25.96851851851851,0)" xlink:href="#bg"/></g><g id="E"><use transform="matrix(0.0685185185185185,0,0,0.0685185185185185,0,0)" xlink:href="#aD"/><use transform="matrix(0.0685185185185185,0,0,0.0685185185185185,20.487037037037034,0)" xlink:href="#aR"/><use transform="matrix(0.0685185185185185,0,0,0.0685185185185185,34.190740740740736,0)" xlink:href="#aP"/><use transform="matrix(0.0685185185185185,0,0,0.0685185185185185,41.042592592592584,0)" xlink:href="#bb"/><use transform="matrix(0.0685185185185185,0,0,0.0685185185185185,54.746296296296286,0)" xlink:href="#aC"/><use transform="matrix(0.0685185185185185,0,0,0.0685185185185185,68.44999999999999,0)" xlink:href="#aB"/><use transform="matrix(0.0685185185185185,0,0,0.0685185185185185,82.15370370370368,0)" xlink:href="#aG"/></g><path fill="#333" d="M80-196l47-18 7 23-49 13 32 44-20 13-27-46-27 45-21-12 33-44-49-13 8-23 47 19-2-53h23" id="bk"/><g id="F"><use transform="matrix(0.0685185185185185,0,0,0.0685185185185185,0,0)" xlink:href="#bk"/><use transform="matrix(0.0685185185185185,0,0,0.0685185185185185,9.592592592592592,0)" xlink:href="#az"/><use transform="matrix(0.0685185185185185,0,0,0.0685185185185185,23.29629629629629,0)" xlink:href="#ay"/><use transform="matrix(0.0685185185185185,0,0,0.0685185185185185,31.449999999999992,0)" xlink:href="#bc"/><use transform="matrix(0.0685185185185185,0,0,0.0685185185185185,45.15370370370369,0)" xlink:href="#aX"/><use transform="matrix(0.0685185185185185,0,0,0.0685185185185185,57.48703703703702,0)" xlink:href="#aG"/></g><g id="G"><use transform="matrix(0.0685185185185185,0,0,0.0685185185185185,0,0)" xlink:href="#be"/><use transform="matrix(0.0685185185185185,0,0,0.0685185185185185,16.444444444444443,0)" xlink:href="#aA"/><use transform="matrix(0.0685185185185185,0,0,0.0685185185185185,30.148148148148145,0)" xlink:href="#bf"/><use transform="matrix(0.0685185185185185,0,0,0.0685185185185185,40.63148148148147,0)" xlink:href="#bg"/></g><path fill="#333" d="M143 0L79-87 56-68V0H24v-261h32v163l83-92h37l-77 82L181 0h-38" id="bl"/><g id="H"><use transform="matrix(0.0685185185185185,0,0,0.0685185185185185,0,0)" xlink:href="#bk"/><use transform="matrix(0.0685185185185185,0,0,0.0685185185185185,9.592592592592592,0)" xlink:href="#bk"/><use transform="matrix(0.0685185185185185,0,0,0.0685185185185185,19.185185185185183,0)" xlink:href="#bl"/><use transform="matrix(0.0685185185185185,0,0,0.0685185185185185,31.518518518518512,0)" xlink:href="#ba"/><use transform="matrix(0.0685185185185185,0,0,0.0685185185185185,49.264814814814805,0)" xlink:href="#az"/><use transform="matrix(0.0685185185185185,0,0,0.0685185185185185,62.96851851851851,0)" xlink:href="#ay"/><use transform="matrix(0.0685185185185185,0,0,0.0685185185185185,71.1222222222222,0)" xlink:href="#bc"/><use transform="matrix(0.0685185185185185,0,0,0.0685185185185185,84.8259259259259,0)" xlink:href="#aX"/><use transform="matrix(0.0685185185185185,0,0,0.0685185185185185,97.15925925925923,0)" xlink:href="#aG"/></g><g id="I"><use transform="matrix(0.0685185185185185,0,0,0.0685185185185185,0,0)" xlink:href="#be"/><use transform="matrix(0.0685185185185185,0,0,0.0685185185185185,16.444444444444443,0)" xlink:href="#aA"/><use transform="matrix(0.0685185185185185,0,0,0.0685185185185185,30.148148148148145,0)" xlink:href="#bf"/><use transform="matrix(0.0685185185185185,0,0,0.0685185185185185,42.481481481481474,0)" xlink:href="#aM"/></g><g id="J"><use transform="matrix(0.0685185185185185,0,0,0.0685185185185185,0,0)" xlink:href="#aZ"/><use transform="matrix(0.0685185185185185,0,0,0.0685185185185185,13.7037037037037,0)" xlink:href="#aZ"/><use transform="matrix(0.0685185185185185,0,0,0.0685185185185185,27.4074074074074,0)" xlink:href="#aR"/><use transform="matrix(0.0685185185185185,0,0,0.0685185185185185,41.11111111111111,0)" xlink:href="#aA"/><use transform="matrix(0.0685185185185185,0,0,0.0685185185185185,54.8148148148148,0)" xlink:href="#aP"/><use transform="matrix(0.0685185185185185,0,0,0.0685185185185185,61.66666666666665,0)" xlink:href="#aR"/><use transform="matrix(0.0685185185185185,0,0,0.0685185185185185,75.37037037037035,0)" xlink:href="#ay"/><use transform="matrix(0.0685185185185185,0,0,0.0685185185185185,83.52407407407405,0)" xlink:href="#aZ"/><use transform="matrix(0.0685185185185185,0,0,0.0685185185185185,97.22777777777775,0)" xlink:href="#aZ"/><use transform="matrix(0.0685185185185185,0,0,0.0685185185185185,110.93148148148144,0)" xlink:href="#aE"/><use transform="matrix(0.0685185185185185,0,0,0.0685185185185185,119.08518518518514,0)" xlink:href="#aM"/></g><path fill="#333" d="M141 0L90-78 38 0H4l68-98-65-92h35l48 74 47-74h35l-64 92 68 98h-35" id="bm"/><g id="K"><use transform="matrix(0.0685185185185185,0,0,0.0685185185185185,0,0)" xlink:href="#aZ"/><use transform="matrix(0.0685185185185185,0,0,0.0685185185185185,13.7037037037037,0)" xlink:href="#aZ"/><use transform="matrix(0.0685185185185185,0,0,0.0685185185185185,27.4074074074074,0)" xlink:href="#aR"/><use transform="matrix(0.0685185185185185,0,0,0.0685185185185185,41.11111111111111,0)" xlink:href="#bm"/><use transform="matrix(0.0685185185185185,0,0,0.0685185185185185,53.44444444444443,0)" xlink:href="#aY"/><use transform="matrix(0.0685185185185185,0,0,0.0685185185185185,58.8574074074074,0)" xlink:href="#aP"/><use transform="matrix(0.0685185185185185,0,0,0.0685185185185185,65.70925925925924,0)" xlink:href="#aZ"/><use transform="matrix(0.0685185185185185,0,0,0.0685185185185185,79.41296296296294,0)" xlink:href="#aZ"/><use transform="matrix(0.0685185185185185,0,0,0.0685185185185185,93.11666666666663,0)" xlink:href="#aE"/><use transform="matrix(0.0685185185185185,0,0,0.0685185185185185,101.27037037037034,0)" xlink:href="#bk"/><use transform="matrix(0.0685185185185185,0,0,0.0685185185185185,110.86296296296292,0)" xlink:href="#az"/><use transform="matrix(0.0685185185185185,0,0,0.0685185185185185,124.56666666666662,0)" xlink:href="#ay"/><use transform="matrix(0.0685185185185185,0,0,0.0685185185185185,132.72037037037032,0)" xlink:href="#bc"/><use transform="matrix(0.0685185185185185,0,0,0.0685185185185185,146.424074074074,0)" xlink:href="#aX"/><use transform="matrix(0.0685185185185185,0,0,0.0685185185185185,158.75740740740736,0)" xlink:href="#aG"/></g><g id="L"><use transform="matrix(0.0685185185185185,0,0,0.0685185185185185,0,0)" xlink:href="#aY"/><use transform="matrix(0.0685185185185185,0,0,0.0685185185185185,5.412962962962962,0)" xlink:href="#aX"/><use transform="matrix(0.0685185185185185,0,0,0.0685185185185185,17.746296296296293,0)" xlink:href="#aZ"/><use transform="matrix(0.0685185185185185,0,0,0.0685185185185185,31.449999999999996,0)" xlink:href="#ay"/><use transform="matrix(0.0685185185185185,0,0,0.0685185185185185,39.6037037037037,0)" xlink:href="#aR"/><use transform="matrix(0.0685185185185185,0,0,0.0685185185185185,53.3074074074074,0)" xlink:href="#az"/><use transform="matrix(0.0685185185185185,0,0,0.0685185185185185,67.0111111111111,0)" xlink:href="#aB"/><use transform="matrix(0.0685185185185185,0,0,0.0685185185185185,80.7148148148148,0)" xlink:href="#bf"/><use transform="matrix(0.0685185185185185,0,0,0.0685185185185185,93.04814814814813,0)" xlink:href="#aZ"/><use transform="matrix(0.0685185185185185,0,0,0.0685185185185185,106.75185185185181,0)" xlink:href="#aP"/><use transform="matrix(0.0685185185185185,0,0,0.0685185185185185,113.60370370370367,0)" xlink:href="#aC"/><use transform="matrix(0.0685185185185185,0,0,0.0685185185185185,127.30740740740737,0)" xlink:href="#aZ"/><use transform="matrix(0.0685185185185185,0,0,0.0685185185185185,141.01111111111106,0)" xlink:href="#aT"/><use transform="matrix(0.0685185185185185,0,0,0.0685185185185185,154.71481481481476,0)" xlink:href="#ay"/><use transform="matrix(0.0685185185185185,0,0,0.0685185185185185,162.86851851851847,0)" xlink:href="#aC"/><use transform="matrix(0.0685185185185185,0,0,0.0685185185185185,176.57222222222217,0)" xlink:href="#az"/><use transform="matrix(0.0685185185185185,0,0,0.0685185185185185,190.27592592592586,0)" xlink:href="#aB"/><use transform="matrix(0.0685185185185185,0,0,0.0685185185185185,203.97962962962956,0)" xlink:href="#aF"/><use transform="matrix(0.0685185185185185,0,0,0.0685185185185185,216.3129629629629,0)" xlink:href="#az"/><use transform="matrix(0.0685185185185185,0,0,0.0685185185185185,230.0166666666666,0)" xlink:href="#aX"/><use transform="matrix(0.0685185185185185,0,0,0.0685185185185185,242.34999999999994,0)" xlink:href="#aP"/><use transform="matrix(0.0685185185185185,0,0,0.0685185185185185,249.20185185185179,0)" xlink:href="#aE"/><use transform="matrix(0.0685185185185185,0,0,0.0685185185185185,257.3555555555555,0)" xlink:href="#aM"/><use transform="matrix(0.0685185185185185,0,0,0.0685185185185185,265.5092592592592,0)" xlink:href="#aG"/></g><g id="M"><use transform="matrix(0.0685185185185185,0,0,0.0685185185185185,0,0)" xlink:href="#aT"/><use transform="matrix(0.0685185185185185,0,0,0.0685185185185185,13.7037037037037,0)" xlink:href="#aC"/><use transform="matrix(0.0685185185185185,0,0,0.0685185185185185,27.4074074074074,0)" xlink:href="#aC"/><use transform="matrix(0.0685185185185185,0,0,0.0685185185185185,41.11111111111111,0)" xlink:href="#aO"/></g><g id="N"><use transform="matrix(0.056172839506172835,0,0,0.056172839506172835,0,0)" xlink:href="#am"/><use transform="matrix(0.056172839506172835,0,0,0.056172839506172835,14.548765432098763,0)" xlink:href="#an"/><use transform="matrix(0.056172839506172835,0,0,0.056172839506172835,26.850617283950612,0)" xlink:href="#an"/><use transform="matrix(0.056172839506172835,0,0,0.056172839506172835,39.15246913580246,0)" xlink:href="#ao"/><use transform="matrix(0.056172839506172835,0,0,0.056172839506172835,47.01666666666666,0)" xlink:href="#ap"/><use transform="matrix(0.056172839506172835,0,0,0.056172839506172835,59.318518518518516,0)" xlink:href="#aq"/><use transform="matrix(0.056172839506172835,0,0,0.056172839506172835,64.9358024691358,0)" xlink:href="#ar"/><use transform="matrix(0.056172839506172835,0,0,0.056172839506172835,77.23765432098764,0)" xlink:href="#as"/><use transform="matrix(0.056172839506172835,0,0,0.056172839506172835,88.47222222222221,0)" xlink:href="#at"/><use transform="matrix(0.056172839506172835,0,0,0.056172839506172835,95.15679012345679,0)" xlink:href="#au"/><use transform="matrix(0.056172839506172835,0,0,0.056172839506172835,106.39135802469136,0)" xlink:href="#ap"/></g><g id="O"><use transform="matrix(0.0685185185185185,0,0,0.0685185185185185,0,0)" xlink:href="#aZ"/><use transform="matrix(0.0685185185185185,0,0,0.0685185185185185,13.7037037037037,0)" xlink:href="#aZ"/><use transform="matrix(0.0685185185185185,0,0,0.0685185185185185,27.4074074074074,0)" xlink:href="#aF"/><use transform="matrix(0.0685185185185185,0,0,0.0685185185185185,39.74074074074073,0)" xlink:href="#aC"/><use transform="matrix(0.0685185185185185,0,0,0.0685185185185185,53.444444444444436,0)" xlink:href="#aC"/><use transform="matrix(0.0685185185185185,0,0,0.0685185185185185,67.14814814814814,0)" xlink:href="#ay"/><use transform="matrix(0.0685185185185185,0,0,0.0685185185185185,75.30185185185184,0)" xlink:href="#aB"/><use transform="matrix(0.0685185185185185,0,0,0.0685185185185185,89.00555555555552,0)" xlink:href="#aY"/><use transform="matrix(0.0685185185185185,0,0,0.0685185185185185,94.4185185185185,0)" xlink:href="#aA"/><use transform="matrix(0.0685185185185185,0,0,0.0685185185185185,108.12222222222219,0)" xlink:href="#az"/><use transform="matrix(0.0685185185185185,0,0,0.0685185185185185,121.82592592592589,0)" xlink:href="#aP"/><use transform="matrix(0.0685185185185185,0,0,0.0685185185185185,128.67777777777775,0)" xlink:href="#aC"/><use transform="matrix(0.0685185185185185,0,0,0.0685185185185185,142.38148148148144,0)" xlink:href="#ay"/><use transform="matrix(0.0685185185185185,0,0,0.0685185185185185,150.53518518518516,0)" xlink:href="#aG"/></g><g id="P"><use transform="matrix(0.0685185185185185,0,0,0.0685185185185185,0,0)" xlink:href="#aL"/><use transform="matrix(0.0685185185185185,0,0,0.0685185185185185,17.746296296296293,0)" xlink:href="#aC"/><use transform="matrix(0.0685185185185185,0,0,0.0685185185185185,31.449999999999996,0)" xlink:href="#aC"/><use transform="matrix(0.0685185185185185,0,0,0.0685185185185185,45.1537037037037,0)" xlink:href="#ay"/><use transform="matrix(0.0685185185185185,0,0,0.0685185185185185,53.307407407407396,0)" xlink:href="#aB"/><use transform="matrix(0.0685185185185185,0,0,0.0685185185185185,67.01111111111109,0)" xlink:href="#aY"/><use transform="matrix(0.0685185185185185,0,0,0.0685185185185185,72.42407407407406,0)" xlink:href="#aA"/><use transform="matrix(0.0685185185185185,0,0,0.0685185185185185,86.12777777777775,0)" xlink:href="#az"/><use transform="matrix(0.0685185185185185,0,0,0.0685185185185185,99.83148148148145,0)" xlink:href="#aP"/><use transform="matrix(0.0685185185185185,0,0,0.0685185185185185,106.6833333333333,0)" xlink:href="#aC"/><use transform="matrix(0.0685185185185185,0,0,0.0685185185185185,120.38703703703699,0)" xlink:href="#ay"/></g><g id="Q"><use transform="matrix(0.0685185185185185,0,0,0.0685185185185185,0,0)" xlink:href="#aZ"/><use transform="matrix(0.0685185185185185,0,0,0.0685185185185185,13.7037037037037,0)" xlink:href="#aZ"/><use transform="matrix(0.0685185185185185,0,0,0.0685185185185185,27.4074074074074,0)" xlink:href="#aA"/><use transform="matrix(0.0685185185185185,0,0,0.0685185185185185,41.11111111111111,0)" xlink:href="#az"/><use transform="matrix(0.0685185185185185,0,0,0.0685185185185185,54.8148148148148,0)" xlink:href="#aD"/><use transform="matrix(0.0685185185185185,0,0,0.0685185185185185,75.30185185185184,0)" xlink:href="#aR"/><use transform="matrix(0.0685185185185185,0,0,0.0685185185185185,89.00555555555552,0)" xlink:href="#aX"/><use transform="matrix(0.0685185185185185,0,0,0.0685185185185185,101.33888888888886,0)" xlink:href="#aQ"/><use transform="matrix(0.0685185185185185,0,0,0.0685185185185185,115.04259259259256,0)" xlink:href="#az"/><use transform="matrix(0.0685185185185185,0,0,0.0685185185185185,128.74629629629626,0)" xlink:href="#aF"/><use transform="matrix(0.0685185185185185,0,0,0.0685185185185185,141.0796296296296,0)" xlink:href="#aR"/><use transform="matrix(0.0685185185185185,0,0,0.0685185185185185,154.7833333333333,0)" xlink:href="#aG"/></g><g id="R"><use transform="matrix(0.0685185185185185,0,0,0.0685185185185185,0,0)" xlink:href="#aZ"/><use transform="matrix(0.0685185185185185,0,0,0.0685185185185185,13.7037037037037,0)" xlink:href="#aZ"/><use transform="matrix(0.0685185185185185,0,0,0.0685185185185185,27.4074074074074,0)" xlink:href="#aY"/><use transform="matrix(0.0685185185185185,0,0,0.0685185185185185,32.82037037037036,0)" xlink:href="#aX"/><use transform="matrix(0.0685185185185185,0,0,0.0685185185185185,45.15370370370369,0)" xlink:href="#aZ"/><use transform="matrix(0.0685185185185185,0,0,0.0685185185185185,58.8574074074074,0)" xlink:href="#aY"/><use transform="matrix(0.0685185185185185,0,0,0.0685185185185185,64.27037037037036,0)" xlink:href="#aA"/><use transform="matrix(0.0685185185185185,0,0,0.0685185185185185,77.97407407407405,0)" xlink:href="#aX"/><use transform="matrix(0.0685185185185185,0,0,0.0685185185185185,90.30740740740738,0)" xlink:href="#aY"/><use transform="matrix(0.0685185185185185,0,0,0.0685185185185185,95.72037037037035,0)" xlink:href="#aB"/><use transform="matrix(0.0685185185185185,0,0,0.0685185185185185,109.42407407407404,0)" xlink:href="#aR"/><use transform="matrix(0.0685185185185185,0,0,0.0685185185185185,123.12777777777774,0)" xlink:href="#aZ"/><use transform="matrix(0.0685185185185185,0,0,0.0685185185185185,136.83148148148143,0)" xlink:href="#aQ"/><use transform="matrix(0.0685185185185185,0,0,0.0685185185185185,150.53518518518513,0)" xlink:href="#az"/><use transform="matrix(0.0685185185185185,0,0,0.0685185185185185,164.23888888888882,0)" xlink:href="#ay"/><use transform="matrix(0.0685185185185185,0,0,0.0685185185185185,172.39259259259254,0)" xlink:href="#az"/><use transform="matrix(0.0685185185185185,0,0,0.0685185185185185,186.09629629629623,0)" xlink:href="#aO"/><use transform="matrix(0.0685185185185185,0,0,0.0685185185185185,191.50925925925918,0)" xlink:href="#aO"/><use transform="matrix(0.0685185185185185,0,0,0.0685185185185185,196.92222222222213,0)" xlink:href="#aR"/><use transform="matrix(0.0685185185185185,0,0,0.0685185185185185,210.62592592592583,0)" xlink:href="#aO"/><use transform="matrix(0.0685185185185185,0,0,0.0685185185185185,216.03888888888878,0)" xlink:href="#aZ"/><use transform="matrix(0.0685185185185185,0,0,0.0685185185185185,229.74259259259244,0)" xlink:href="#aT"/><use transform="matrix(0.0685185185185185,0,0,0.0685185185185185,243.44629629629617,0)" xlink:href="#aO"/><use transform="matrix(0.0685185185185185,0,0,0.0685185185185185,248.85925925925912,0)" xlink:href="#aC"/><use transform="matrix(0.0685185185185185,0,0,0.0685185185185185,262.56296296296284,0)" xlink:href="#aF"/><use transform="matrix(0.0685185185185185,0,0,0.0685185185185185,274.89629629629616,0)" xlink:href="#bl"/><use transform="matrix(0.0685185185185185,0,0,0.0685185185185185,287.22962962962947,0)" xlink:href="#aG"/></g><path fill="#333" d="M158-156l-14 65h45v19h-49L124 0h-19l15-72H56L41 0H22l15-72H2v-19h39l14-65H11v-19h48l15-71h20l-16 71h64l16-71h19l-16 71h37v19h-40zm-83 0L61-91h63l14-65H75" id="bn"/><use transform="matrix(0.0685185185185185,0,0,0.0685185185185185,0,0)" xlink:href="#bn" id="S"/><g id="T"><use transform="matrix(0.0685185185185185,0,0,0.0685185185185185,0,0)" xlink:href="#ay"/><use transform="matrix(0.0685185185185185,0,0,0.0685185185185185,8.153703703703702,0)" xlink:href="#aR"/><use transform="matrix(0.0685185185185185,0,0,0.0685185185185185,21.8574074074074,0)" xlink:href="#bc"/><use transform="matrix(0.0685185185185185,0,0,0.0685185185185185,35.5611111111111,0)" xlink:href="#aY"/><use transform="matrix(0.0685185185185185,0,0,0.0685185185185185,40.97407407407407,0)" xlink:href="#aX"/><use transform="matrix(0.0685185185185185,0,0,0.0685185185185185,53.307407407407396,0)" xlink:href="#aP"/><use transform="matrix(0.0685185185185185,0,0,0.0685185185185185,60.159259259259244,0)" xlink:href="#aR"/><use transform="matrix(0.0685185185185185,0,0,0.0685185185185185,73.86296296296294,0)" xlink:href="#ay"/><use transform="matrix(0.0685185185185185,0,0,0.0685185185185185,82.01666666666664,0)" xlink:href="#aZ"/><use transform="matrix(0.0685185185185185,0,0,0.0685185185185185,95.72037037037033,0)" xlink:href="#aF"/><use transform="matrix(0.0685185185185185,0,0,0.0685185185185185,108.05370370370365,0)" xlink:href="#aC"/><use transform="matrix(0.0685185185185185,0,0,0.0685185185185185,121.75740740740736,0)" xlink:href="#aC"/><use transform="matrix(0.0685185185185185,0,0,0.0685185185185185,135.46111111111105,0)" xlink:href="#ay"/><use transform="matrix(0.0685185185185185,0,0,0.0685185185185185,143.61481481481476,0)" xlink:href="#aB"/><use transform="matrix(0.0685185185185185,0,0,0.0685185185185185,157.31851851851846,0)" xlink:href="#aY"/><use transform="matrix(0.0685185185185185,0,0,0.0685185185185185,162.7314814814814,0)" xlink:href="#aA"/><use transform="matrix(0.0685185185185185,0,0,0.0685185185185185,176.4351851851851,0)" xlink:href="#az"/><use transform="matrix(0.0685185185185185,0,0,0.0685185185185185,190.1388888888888,0)" xlink:href="#aP"/><use transform="matrix(0.0685185185185185,0,0,0.0685185185185185,196.99074074074065,0)" xlink:href="#aC"/><use transform="matrix(0.0685185185185185,0,0,0.0685185185185185,210.69444444444434,0)" xlink:href="#ay"/><use transform="matrix(0.0685185185185185,0,0,0.0685185185185185,218.84814814814806,0)" xlink:href="#aE"/><use transform="matrix(0.0685185185185185,0,0,0.0685185185185185,227.00185185185177,0)" xlink:href="#aF"/><use transform="matrix(0.0685185185185185,0,0,0.0685185185185185,239.3351851851851,0)" xlink:href="#aC"/><use transform="matrix(0.0685185185185185,0,0,0.0685185185185185,253.0388888888888,0)" xlink:href="#aC"/><use transform="matrix(0.0685185185185185,0,0,0.0685185185185185,266.74259259259253,0)" xlink:href="#ay"/><use transform="matrix(0.0685185185185185,0,0,0.0685185185185185,274.8962962962962,0)" xlink:href="#aB"/><use transform="matrix(0.0685185185185185,0,0,0.0685185185185185,288.5999999999999,0)" xlink:href="#aY"/><use transform="matrix(0.0685185185185185,0,0,0.0685185185185185,294.0129629629629,0)" xlink:href="#aA"/><use transform="matrix(0.0685185185185185,0,0,0.0685185185185185,307.71666666666664,0)" xlink:href="#az"/><use transform="matrix(0.0685185185185185,0,0,0.0685185185185185,321.4203703703703,0)" xlink:href="#aP"/><use transform="matrix(0.0685185185185185,0,0,0.0685185185185185,328.2722222222221,0)" xlink:href="#aC"/><use transform="matrix(0.0685185185185185,0,0,0.0685185185185185,341.9759259259258,0)" xlink:href="#ay"/><use transform="matrix(0.0685185185185185,0,0,0.0685185185185185,350.1296296296295,0)" xlink:href="#aG"/></g><g id="U"><use transform="matrix(0.0685185185185185,0,0,0.0685185185185185,0,0)" xlink:href="#aL"/><use transform="matrix(0.0685185185185185,0,0,0.0685185185185185,17.746296296296293,0)" xlink:href="#aC"/><use transform="matrix(0.0685185185185185,0,0,0.0685185185185185,31.449999999999996,0)" xlink:href="#aC"/><use transform="matrix(0.0685185185185185,0,0,0.0685185185185185,45.1537037037037,0)" xlink:href="#ay"/><use transform="matrix(0.0685185185185185,0,0,0.0685185185185185,53.307407407407396,0)" xlink:href="#aB"/><use transform="matrix(0.0685185185185185,0,0,0.0685185185185185,67.01111111111109,0)" xlink:href="#aY"/><use transform="matrix(0.0685185185185185,0,0,0.0685185185185185,72.42407407407406,0)" xlink:href="#aA"/><use transform="matrix(0.0685185185185185,0,0,0.0685185185185185,86.12777777777775,0)" xlink:href="#az"/><use transform="matrix(0.0685185185185185,0,0,0.0685185185185185,99.83148148148145,0)" xlink:href="#aP"/><use transform="matrix(0.0685185185185185,0,0,0.0685185185185185,106.6833333333333,0)" xlink:href="#aC"/><use transform="matrix(0.0685185185185185,0,0,0.0685185185185185,120.38703703703699,0)" xlink:href="#ay"/><use transform="matrix(0.0685185185185185,0,0,0.0685185185185185,127.17037037037032,0)" xlink:href="#bg"/></g><g id="V"><use transform="matrix(0.0685185185185185,0,0,0.0685185185185185,0,0)" xlink:href="#aA"/><use transform="matrix(0.0685185185185185,0,0,0.0685185185185185,13.7037037037037,0)" xlink:href="#az"/><use transform="matrix(0.0685185185185185,0,0,0.0685185185185185,27.4074074074074,0)" xlink:href="#aD"/><use transform="matrix(0.0685185185185185,0,0,0.0685185185185185,47.89444444444443,0)" xlink:href="#aR"/><use transform="matrix(0.0685185185185185,0,0,0.0685185185185185,61.598148148148134,0)" xlink:href="#aX"/><use transform="matrix(0.0685185185185185,0,0,0.0685185185185185,73.93148148148147,0)" xlink:href="#aQ"/><use transform="matrix(0.0685185185185185,0,0,0.0685185185185185,87.63518518518516,0)" xlink:href="#az"/><use transform="matrix(0.0685185185185185,0,0,0.0685185185185185,101.33888888888886,0)" xlink:href="#aF"/><use transform="matrix(0.0685185185185185,0,0,0.0685185185185185,113.67222222222219,0)" xlink:href="#aR"/><use transform="matrix(0.0685185185185185,0,0,0.0685185185185185,127.37592592592588,0)" xlink:href="#aG"/></g><g id="W"><use transform="matrix(0.0685185185185185,0,0,0.0685185185185185,0,0)" xlink:href="#bh"/><use transform="matrix(0.0685185185185185,0,0,0.0685185185185185,19.185185185185183,0)" xlink:href="#aQ"/><use transform="matrix(0.0685185185185185,0,0,0.0685185185185185,32.888888888888886,0)" xlink:href="#aP"/><use transform="matrix(0.0685185185185185,0,0,0.0685185185185185,39.74074074074073,0)" xlink:href="#aY"/><use transform="matrix(0.0685185185185185,0,0,0.0685185185185185,45.1537037037037,0)" xlink:href="#aC"/><use transform="matrix(0.0685185185185185,0,0,0.0685185185185185,58.8574074074074,0)" xlink:href="#aA"/><use transform="matrix(0.0685185185185185,0,0,0.0685185185185185,72.5611111111111,0)" xlink:href="#az"/><use transform="matrix(0.0685185185185185,0,0,0.0685185185185185,86.2648148148148,0)" xlink:href="#aO"/><use transform="matrix(0.0685185185185185,0,0,0.0685185185185185,91.67777777777776,0)" xlink:href="#bi"/><use transform="matrix(0.0685185185185185,0,0,0.0685185185185185,98.52962962962961,0)" xlink:href="#aX"/><use transform="matrix(0.0685185185185185,0,0,0.0685185185185185,110.86296296296294,0)" xlink:href="#aP"/><use transform="matrix(0.0685185185185185,0,0,0.0685185185185185,117.7148148148148,0)" xlink:href="#ay"/><use transform="matrix(0.0685185185185185,0,0,0.0685185185185185,125.86851851851848,0)" xlink:href="#bj"/><use transform="matrix(0.0685185185185185,0,0,0.0685185185185185,132.72037037037035,0)" xlink:href="#aM"/></g><g id="X"><use transform="matrix(0.0685185185185185,0,0,0.0685185185185185,0,0)" xlink:href="#ay"/><use transform="matrix(0.0685185185185185,0,0,0.0685185185185185,8.153703703703702,0)" xlink:href="#aS"/><use transform="matrix(0.0685185185185185,0,0,0.0685185185185185,21.8574074074074,0)" xlink:href="#aA"/><use transform="matrix(0.0685185185185185,0,0,0.0685185185185185,35.5611111111111,0)" xlink:href="#aZ"/><use transform="matrix(0.0685185185185185,0,0,0.0685185185185185,49.264814814814805,0)" xlink:href="#aD"/><use transform="matrix(0.0685185185185185,0,0,0.0685185185185185,69.75185185185184,0)" xlink:href="#aR"/><use transform="matrix(0.0685185185185185,0,0,0.0685185185185185,83.45555555555553,0)" xlink:href="#aP"/><use transform="matrix(0.0685185185185185,0,0,0.0685185185185185,90.30740740740738,0)" xlink:href="#bb"/><use transform="matrix(0.0685185185185185,0,0,0.0685185185185185,104.01111111111108,0)" xlink:href="#aC"/><use transform="matrix(0.0685185185185185,0,0,0.0685185185185185,117.71481481481477,0)" xlink:href="#aB"/><use transform="matrix(0.0685185185185185,0,0,0.0685185185185185,131.41851851851848,0)" xlink:href="#aZ"/><use transform="matrix(0.0685185185185185,0,0,0.0685185185185185,145.12222222222218,0)" xlink:href="#aY"/><use transform="matrix(0.0685185185185185,0,0,0.0685185185185185,150.53518518518513,0)" xlink:href="#aA"/><use transform="matrix(0.0685185185185185,0,0,0.0685185185185185,164.23888888888882,0)" xlink:href="#aZ"/><use transform="matrix(0.0685185185185185,0,0,0.0685185185185185,177.94259259259252,0)" xlink:href="#aQ"/><use transform="matrix(0.0685185185185185,0,0,0.0685185185185185,191.6462962962962,0)" xlink:href="#az"/><use transform="matrix(0.0685185185185185,0,0,0.0685185185185185,205.3499999999999,0)" xlink:href="#ay"/><use transform="matrix(0.0685185185185185,0,0,0.0685185185185185,213.50370370370362,0)" xlink:href="#az"/><use transform="matrix(0.0685185185185185,0,0,0.0685185185185185,227.20740740740732,0)" xlink:href="#aO"/><use transform="matrix(0.0685185185185185,0,0,0.0685185185185185,232.62037037037027,0)" xlink:href="#aO"/><use transform="matrix(0.0685185185185185,0,0,0.0685185185185185,238.03333333333322,0)" xlink:href="#aR"/><use transform="matrix(0.0685185185185185,0,0,0.0685185185185185,251.7370370370369,0)" xlink:href="#aO"/><use transform="matrix(0.0685185185185185,0,0,0.0685185185185185,257.14999999999986,0)" xlink:href="#aE"/><use transform="matrix(0.0685185185185185,0,0,0.0685185185185185,265.30370370370355,0)" xlink:href="#aN"/><use transform="matrix(0.0685185185185185,0,0,0.0685185185185185,272.1555555555554,0)" xlink:href="#aS"/><use transform="matrix(0.0685185185185185,0,0,0.0685185185185185,285.8592592592591,0)" xlink:href="#aA"/><use transform="matrix(0.0685185185185185,0,0,0.0685185185185185,299.5629629629628,0)" xlink:href="#aF"/><use transform="matrix(0.0685185185185185,0,0,0.0685185185185185,311.8962962962961,0)" xlink:href="#aG"/></g><g id="Y"><use transform="matrix(0.0685185185185185,0,0,0.0685185185185185,0,0)" xlink:href="#aL"/><use transform="matrix(0.0685185185185185,0,0,0.0685185185185185,17.746296296296293,0)" xlink:href="#az"/><use transform="matrix(0.0685185185185185,0,0,0.0685185185185185,31.449999999999996,0)" xlink:href="#aO"/><use transform="matrix(0.0685185185185185,0,0,0.0685185185185185,36.86296296296297,0)" xlink:href="#aO"/><use transform="matrix(0.0685185185185185,0,0,0.0685185185185185,42.275925925925925,0)" xlink:href="#az"/><use transform="matrix(0.0685185185185185,0,0,0.0685185185185185,55.97962962962963,0)" xlink:href="#aT"/><use transform="matrix(0.0685185185185185,0,0,0.0685185185185185,69.68333333333332,0)" xlink:href="#aO"/><use transform="matrix(0.0685185185185185,0,0,0.0685185185185185,75.09629629629629,0)" xlink:href="#aR"/><use transform="matrix(0.0685185185185185,0,0,0.0685185185185185,88.79999999999998,0)" xlink:href="#bi"/><use transform="matrix(0.0685185185185185,0,0,0.0685185185185185,95.65185185185183,0)" xlink:href="#aK"/><use transform="matrix(0.0685185185185185,0,0,0.0685185185185185,102.50370370370369,0)" xlink:href="#aK"/><use transform="matrix(0.0685185185185185,0,0,0.0685185185185185,109.35555555555553,0)" xlink:href="#aK"/><use transform="matrix(0.0685185185185185,0,0,0.0685185185185185,116.20740740740737,0)" xlink:href="#bg"/></g><g id="Z"><use transform="matrix(0.0685185185185185,0,0,0.0685185185185185,0,0)" xlink:href="#be"/><use transform="matrix(0.0685185185185185,0,0,0.0685185185185185,16.444444444444443,0)" xlink:href="#aA"/><use transform="matrix(0.0685185185185185,0,0,0.0685185185185185,30.148148148148145,0)" xlink:href="#bf"/><use transform="matrix(0.0685185185185185,0,0,0.0685185185185185,42.481481481481474,0)" xlink:href="#bj"/><use transform="matrix(0.0685185185185185,0,0,0.0685185185185185,49.33333333333332,0)" xlink:href="#bg"/></g><g id="aa"><use transform="matrix(0.0685185185185185,0,0,0.0685185185185185,0,0)" xlink:href="#be"/><use transform="matrix(0.0685185185185185,0,0,0.0685185185185185,16.444444444444443,0)" xlink:href="#aA"/><use transform="matrix(0.0685185185185185,0,0,0.0685185185185185,30.148148148148145,0)" xlink:href="#bf"/><use transform="matrix(0.0685185185185185,0,0,0.0685185185185185,42.481481481481474,0)" xlink:href="#aM"/><use transform="matrix(0.0685185185185185,0,0,0.0685185185185185,50.63518518518518,0)" xlink:href="#aG"/></g><g id="ab"><use transform="matrix(0.0685185185185185,0,0,0.0685185185185185,0,0)" xlink:href="#be"/><use transform="matrix(0.0685185185185185,0,0,0.0685185185185185,16.444444444444443,0)" xlink:href="#aA"/><use transform="matrix(0.0685185185185185,0,0,0.0685185185185185,30.148148148148145,0)" xlink:href="#bf"/></g><path fill="#333" d="M27 0v-27h64v-190l-56 39v-29l58-41h29v221h61V0H27" id="bo"/><use transform="matrix(0.0685185185185185,0,0,0.0685185185185185,0,0)" xlink:href="#bo" id="ac"/><path fill="#333" d="M101-251c68 0 85 55 85 127S166 4 100 4C33 4 14-52 14-124c0-73 17-127 87-127zm-1 229c47 0 54-49 54-102s-4-102-53-102c-51 0-55 48-55 102 0 53 5 102 54 102" id="bp"/><g id="ad"><use transform="matrix(0.0685185185185185,0,0,0.0685185185185185,0,0)" xlink:href="#bp"/><use transform="matrix(0.0685185185185185,0,0,0.0685185185185185,13.7037037037037,0)" xlink:href="#aK"/><use transform="matrix(0.0685185185185185,0,0,0.0685185185185185,20.555555555555554,0)" xlink:href="#aK"/><use transform="matrix(0.0685185185185185,0,0,0.0685185185185185,27.4074074074074,0)" xlink:href="#bk"/></g><g id="ae"><use transform="matrix(0.0685185185185185,0,0,0.0685185185185185,0,0)" xlink:href="#ay"/><use transform="matrix(0.0685185185185185,0,0,0.0685185185185185,8.153703703703702,0)" xlink:href="#aR"/><use transform="matrix(0.0685185185185185,0,0,0.0685185185185185,21.8574074074074,0)" xlink:href="#bc"/><use transform="matrix(0.0685185185185185,0,0,0.0685185185185185,35.5611111111111,0)" xlink:href="#aY"/><use transform="matrix(0.0685185185185185,0,0,0.0685185185185185,40.97407407407407,0)" xlink:href="#aX"/><use transform="matrix(0.0685185185185185,0,0,0.0685185185185185,53.307407407407396,0)" xlink:href="#aP"/><use transform="matrix(0.0685185185185185,0,0,0.0685185185185185,60.159259259259244,0)" xlink:href="#aR"/><use transform="matrix(0.0685185185185185,0,0,0.0685185185185185,73.86296296296294,0)" xlink:href="#ay"/><use transform="matrix(0.0685185185185185,0,0,0.0685185185185185,82.01666666666664,0)" xlink:href="#aR"/><use transform="matrix(0.0685185185185185,0,0,0.0685185185185185,95.72037037037033,0)" xlink:href="#aB"/></g><g id="af"><use transform="matrix(0.06790123456790123,0,0,0.06790123456790123,0,0)" xlink:href="#ay"/><use transform="matrix(0.06790123456790123,0,0,0.06790123456790123,8.080246913580247,0)" xlink:href="#az"/><use transform="matrix(0.06790123456790123,0,0,0.06790123456790123,21.660493827160494,0)" xlink:href="#aA"/><use transform="matrix(0.06790123456790123,0,0,0.06790123456790123,35.24074074074074,0)" xlink:href="#aB"/><use transform="matrix(0.06790123456790123,0,0,0.06790123456790123,48.82098765432099,0)" xlink:href="#aY"/><use transform="matrix(0.06790123456790123,0,0,0.06790123456790123,54.18518518518518,0)" xlink:href="#aA"/><use transform="matrix(0.06790123456790123,0,0,0.06790123456790123,67.76543209876543,0)" xlink:href="#aP"/><use transform="matrix(0.06790123456790123,0,0,0.06790123456790123,74.55555555555556,0)" xlink:href="#aE"/><use transform="matrix(0.06790123456790123,0,0,0.06790123456790123,82.6358024691358,0)" xlink:href="#aF"/><use transform="matrix(0.06790123456790123,0,0,0.06790123456790123,94.85802469135803,0)" xlink:href="#aC"/><use transform="matrix(0.06790123456790123,0,0,0.06790123456790123,108.43827160493828,0)" xlink:href="#aD"/><use transform="matrix(0.06790123456790123,0,0,0.06790123456790123,128.74074074074076,0)" xlink:href="#aD"/><use transform="matrix(0.06790123456790123,0,0,0.06790123456790123,149.04320987654324,0)" xlink:href="#aG"/></g><g id="ag"><use transform="matrix(0.06790123456790123,0,0,0.06790123456790123,0,0)" xlink:href="#aH"/><use transform="matrix(0.06790123456790123,0,0,0.06790123456790123,20.30246913580247,0)" xlink:href="#aI"/><use transform="matrix(0.06790123456790123,0,0,0.06790123456790123,36.59876543209876,0)" xlink:href="#aJ"/><use transform="matrix(0.06790123456790123,0,0,0.06790123456790123,43.388888888888886,0)" xlink:href="#aK"/><use transform="matrix(0.06790123456790123,0,0,0.06790123456790123,50.17901234567901,0)" xlink:href="#aL"/><use transform="matrix(0.06790123456790123,0,0,0.06790123456790123,67.76543209876543,0)" xlink:href="#aC"/><use transform="matrix(0.06790123456790123,0,0,0.06790123456790123,81.34567901234567,0)" xlink:href="#aD"/><use transform="matrix(0.06790123456790123,0,0,0.06790123456790123,101.64814814814814,0)" xlink:href="#aD"/><use transform="matrix(0.06790123456790123,0,0,0.06790123456790123,121.9506172839506,0)" xlink:href="#bg"/><path fill="#8080ff" d="M-1.22 1.7h131.2v1.78H-1.23z"/></g><g id="ah"><use transform="matrix(0.06790123456790123,0,0,0.06790123456790123,0,0)" xlink:href="#az"/><use transform="matrix(0.06790123456790123,0,0,0.06790123456790123,13.580246913580247,0)" xlink:href="#aG"/></g><g id="ai"><use transform="matrix(0.06790123456790123,0,0,0.06790123456790123,0,0)" xlink:href="#aY"/><use transform="matrix(0.06790123456790123,0,0,0.06790123456790123,5.364197530864197,0)" xlink:href="#aA"/><use transform="matrix(0.06790123456790123,0,0,0.06790123456790123,18.944444444444443,0)" xlink:href="#aP"/><use transform="matrix(0.06790123456790123,0,0,0.06790123456790123,25.734567901234566,0)" xlink:href="#bg"/></g><g id="aj"><use transform="matrix(0.06790123456790123,0,0,0.06790123456790123,0,0)" xlink:href="#aT"/><use transform="matrix(0.06790123456790123,0,0,0.06790123456790123,13.580246913580247,0)" xlink:href="#aG"/></g><g id="ak"><use transform="matrix(0.06790123456790123,0,0,0.06790123456790123,0,0)" xlink:href="#aY"/><use transform="matrix(0.06790123456790123,0,0,0.06790123456790123,5.364197530864197,0)" xlink:href="#aA"/><use transform="matrix(0.06790123456790123,0,0,0.06790123456790123,18.944444444444443,0)" xlink:href="#aP"/><use transform="matrix(0.06790123456790123,0,0,0.06790123456790123,25.734567901234566,0)" xlink:href="#aM"/><use transform="matrix(0.06790123456790123,0,0,0.06790123456790123,33.81481481481481,0)" xlink:href="#aG"/></g><g id="al"><use transform="matrix(0.06790123456790123,0,0,0.06790123456790123,0,0)" xlink:href="#aY"/><use transform="matrix(0.06790123456790123,0,0,0.06790123456790123,5.364197530864197,0)" xlink:href="#aA"/><use transform="matrix(0.06790123456790123,0,0,0.06790123456790123,18.944444444444443,0)" xlink:href="#aP"/></g></defs></g></svg>