<svg xmlns="http://www.w3.org/2000/svg" xmlns:xlink="http://www.w3.org/1999/xlink" xmlns:lucid="lucid" width="923" height="674.08"><g transform="translate(1.5 412.58333333333337)" lucid:page-tab-id="iJ.KGXgwHonw"><path d="M0-500h1000V500H0z" fill="#fff"/><path d="M20-385.08a6 6 0 0 1 6-6h868a6 6 0 0 1 6 6V234a6 6 0 0 1-6 6H26a6 6 0 0 1-6-6z" stroke="#5e5e5e" stroke-width="3" fill-opacity="0"/><use xlink:href="#a" transform="matrix(1,0,0,1,28,-383.08333333333337) translate(364.9012345679012 17.77777777777778)"/><use xlink:href="#b" transform="matrix(1,0,0,1,28,-383.08333333333337) translate(420.2716049382716 17.77777777777778)"/><path d="M70-320h780v521H70z" stroke="#333" stroke-width="2" fill="#fff"/><path d="M70-282.4h780M70-94.7h780" stroke="#333" stroke-width="2" fill="none"/><use xlink:href="#c" transform="matrix(1,0,0,1,78,-312) translate(362.075 14.6)"/><use xlink:href="#d" transform="matrix(1,0,0,1,82,-274.4) translate(0 24.800000000000004)"/><use xlink:href="#e" transform="matrix(1,0,0,1,82,-274.4) translate(10.95 24.800000000000004)"/><use xlink:href="#f" transform="matrix(1,0,0,1,82,-274.4) translate(169.79999999999998 24.800000000000004)"/><use xlink:href="#d" transform="matrix(1,0,0,1,82,-274.4) translate(0 46.400000000000006)"/><use xlink:href="#g" transform="matrix(1,0,0,1,82,-274.4) translate(10.95 46.400000000000006)"/><use xlink:href="#h" transform="matrix(1,0,0,1,82,-274.4) translate(119.80000000000001 46.400000000000006)"/><use xlink:href="#d" transform="matrix(1,0,0,1,82,-274.4) translate(0 68.00000000000001)"/><use xlink:href="#i" transform="matrix(1,0,0,1,82,-274.4) translate(10.95 68.00000000000001)"/><use xlink:href="#j" transform="matrix(1,0,0,1,82,-274.4) translate(65.95 68.00000000000001)"/><use xlink:href="#d" transform="matrix(1,0,0,1,82,-274.4) translate(0 89.60000000000002)"/><use xlink:href="#k" transform="matrix(1,0,0,1,82,-274.4) translate(10.95 89.60000000000002)"/><use xlink:href="#l" transform="matrix(1,0,0,1,82,-274.4) translate(125.45000000000002 89.60000000000002)"/><use xlink:href="#d" transform="matrix(1,0,0,1,82,-274.4) translate(0 111.20000000000002)"/><use xlink:href="#m" transform="matrix(1,0,0,1,82,-274.4) translate(10.95 111.20000000000002)"/><use xlink:href="#n" transform="matrix(1,0,0,1,82,-274.4) translate(107.8 111.20000000000002)"/><use xlink:href="#d" transform="matrix(1,0,0,1,82,-274.4) translate(0 132.8)"/><use xlink:href="#o" transform="matrix(1,0,0,1,82,-274.4) translate(10.95 132.8)"/><use xlink:href="#n" transform="matrix(1,0,0,1,82,-274.4) translate(122.75 132.8)"/><use xlink:href="#d" transform="matrix(1,0,0,1,82,-274.4) translate(0 154.4)"/><use xlink:href="#p" transform="matrix(1,0,0,1,82,-274.4) translate(10.95 154.4)"/><use xlink:href="#q" transform="matrix(1,0,0,1,82,-274.4) translate(203.49999999999994 154.4)"/><g><use xlink:href="#d" transform="matrix(1,0,0,1,82,-86.69999999999999) translate(0 24.800000000000004)"/><use xlink:href="#r" transform="matrix(1,0,0,1,82,-86.69999999999999) translate(10.95 24.800000000000004)"/><use xlink:href="#s" transform="matrix(1,0,0,1,82,-86.69999999999999) translate(239.7 24.800000000000004)"/><use xlink:href="#d" transform="matrix(1,0,0,1,82,-86.69999999999999) translate(0 46.400000000000006)"/><use xlink:href="#t" transform="matrix(1,0,0,1,82,-86.69999999999999) translate(10.95 46.400000000000006)"/><use xlink:href="#u" transform="matrix(1,0,0,1,82,-86.69999999999999) translate(0 68.00000000000001)"/><use xlink:href="#v" transform="matrix(1,0,0,1,82,-86.69999999999999) translate(15.5 68.00000000000001)"/><use xlink:href="#w" transform="matrix(1,0,0,1,82,-86.69999999999999) translate(0 89.60000000000002)"/><use xlink:href="#x" transform="matrix(1,0,0,1,82,-86.69999999999999) translate(20 89.60000000000002)"/><use xlink:href="#y" transform="matrix(1,0,0,1,82,-86.69999999999999) translate(112.9 89.60000000000002)"/><use xlink:href="#w" transform="matrix(1,0,0,1,82,-86.69999999999999) translate(0 111.20000000000002)"/><use xlink:href="#z" transform="matrix(1,0,0,1,82,-86.69999999999999) translate(20 111.20000000000002)"/><use xlink:href="#A" transform="matrix(1,0,0,1,82,-86.69999999999999) translate(59 111.20000000000002)"/><use xlink:href="#w" transform="matrix(1,0,0,1,82,-86.69999999999999) translate(0 132.8)"/><use xlink:href="#B" transform="matrix(1,0,0,1,82,-86.69999999999999) translate(20 132.8)"/><use xlink:href="#C" transform="matrix(1,0,0,1,82,-86.69999999999999) translate(102.8 132.8)"/><use xlink:href="#D" transform="matrix(1,0,0,1,82,-86.69999999999999) translate(391.24999999999994 132.8)"/><use xlink:href="#w" transform="matrix(1,0,0,1,82,-86.69999999999999) translate(0 154.4)"/><use xlink:href="#E" transform="matrix(1,0,0,1,82,-86.69999999999999) translate(20 154.4)"/><use xlink:href="#F" transform="matrix(1,0,0,1,82,-86.69999999999999) translate(168.8 154.4)"/><use xlink:href="#G" transform="matrix(1,0,0,1,82,-86.69999999999999) translate(263.6 154.4)"/><use xlink:href="#w" transform="matrix(1,0,0,1,82,-86.69999999999999) translate(0 176)"/><use xlink:href="#H" transform="matrix(1,0,0,1,82,-86.69999999999999) translate(20 176)"/><use xlink:href="#I" transform="matrix(1,0,0,1,82,-86.69999999999999) translate(106.95 176)"/><use xlink:href="#w" transform="matrix(1,0,0,1,82,-86.69999999999999) translate(0 197.6)"/><use xlink:href="#J" transform="matrix(1,0,0,1,82,-86.69999999999999) translate(20 197.6)"/><use xlink:href="#K" transform="matrix(1,0,0,1,82,-86.69999999999999) translate(83.85000000000001 197.6)"/><use xlink:href="#w" transform="matrix(1,0,0,1,82,-86.69999999999999) translate(0 219.2)"/><use xlink:href="#L" transform="matrix(1,0,0,1,82,-86.69999999999999) translate(20 219.2)"/><use xlink:href="#I" transform="matrix(1,0,0,1,82,-86.69999999999999) translate(184.79999999999998 219.2)"/><use xlink:href="#M" transform="matrix(1,0,0,1,82,-86.69999999999999) translate(0 240.79999999999998)"/><use xlink:href="#u" transform="matrix(1,0,0,1,82,-86.69999999999999) translate(0 262.4)"/><use xlink:href="#N" transform="matrix(1,0,0,1,82,-86.69999999999999) translate(15.5 262.4)"/><use xlink:href="#O" transform="matrix(1,0,0,1,82,-86.69999999999999) translate(139.2 262.4)"/></g><g transform="matrix(1,0,0,1,82,-274.4)"><a xlink:href="http://tf.keras.Metric" target="_blank"><path class="lucid-link lucid-hotspot lucid-overlay-hotspot" fill-opacity="0" d="M189.65 96.8h102.8v21.6h-102.8z"/></a><a xlink:href="http://tf.keras.Metric" target="_blank"><path class="lucid-link lucid-hotspot lucid-overlay-hotspot" fill-opacity="0" d="M204.6 118.4h102.8V140H204.6z"/></a></g><defs><path fill="#333" d="M24-248c120-7 223 5 221 122C244-46 201 0 124 0H24v-248zM76-40c74 7 117-18 117-86 0-67-45-88-117-82v168" id="P"/><path fill="#333" d="M110-194c64 0 96 36 96 99 0 64-35 99-97 99-61 0-95-36-95-99 0-62 34-99 96-99zm-1 164c35 0 45-28 45-65 0-40-10-65-43-65-34 0-45 26-45 65 0 36 10 65 43 65" id="Q"/><path fill="#333" d="M25-224v-37h50v37H25zM75 22c2 45-34 59-81 51V38c22 5 31-5 31-27v-201h50V22" id="R"/><g id="a"><use transform="matrix(0.06172839506172839,0,0,0.06172839506172839,0,0)" xlink:href="#P"/><use transform="matrix(0.06172839506172839,0,0,0.06172839506172839,15.987654320987653,0)" xlink:href="#Q"/><use transform="matrix(0.06172839506172839,0,0,0.06172839506172839,29.50617283950617,0)" xlink:href="#R"/><use transform="matrix(0.06172839506172839,0,0,0.06172839506172839,35.67901234567901,0)" xlink:href="#Q"/></g><path fill="#333" d="M220-157c-53 9-28 100-34 157h-49v-107c1-27-5-49-29-50C55-147 81-57 75 0H25l-1-190h47c2 12-1 28 3 38 10-53 101-56 108 0 13-22 24-43 59-42 82 1 51 116 57 194h-49v-107c-1-25-5-48-29-50" id="S"/><path fill="#333" d="M88-194c31-1 46 15 58 34l-1-101h50l1 261h-48c-2-10 0-23-3-31C134-8 116 4 84 4 32 4 16-41 15-95c0-56 19-97 73-99zm17 164c33 0 40-30 41-66 1-37-9-64-41-64s-38 30-39 65c0 43 13 65 39 65" id="T"/><path fill="#333" d="M85 4C-2 5 27-109 22-190h50c7 57-23 150 33 157 60-5 35-97 40-157h50l1 190h-47c-2-12 1-28-3-38-12 25-28 42-61 42" id="U"/><path fill="#333" d="M25 0v-261h50V0H25" id="V"/><path fill="#333" d="M185-48c-13 30-37 53-82 52C43 2 14-33 14-96s30-98 90-98c62 0 83 45 84 108H66c0 31 8 55 39 56 18 0 30-7 34-22zm-45-69c5-46-57-63-70-21-2 6-4 13-4 21h74" id="W"/><g id="b"><use transform="matrix(0.06172839506172839,0,0,0.06172839506172839,0,0)" xlink:href="#S"/><use transform="matrix(0.06172839506172839,0,0,0.06172839506172839,19.753086419753085,0)" xlink:href="#Q"/><use transform="matrix(0.06172839506172839,0,0,0.06172839506172839,33.2716049382716,0)" xlink:href="#T"/><use transform="matrix(0.06172839506172839,0,0,0.06172839506172839,46.79012345679012,0)" xlink:href="#U"/><use transform="matrix(0.06172839506172839,0,0,0.06172839506172839,60.30864197530864,0)" xlink:href="#V"/><use transform="matrix(0.06172839506172839,0,0,0.06172839506172839,66.48148148148148,0)" xlink:href="#W"/></g><g id="c"><use transform="matrix(0.05,0,0,0.05,0,0)" xlink:href="#P"/><use transform="matrix(0.05,0,0,0.05,12.950000000000001,0)" xlink:href="#Q"/><use transform="matrix(0.05,0,0,0.05,23.900000000000002,0)" xlink:href="#R"/><use transform="matrix(0.05,0,0,0.05,28.900000000000002,0)" xlink:href="#Q"/></g><path fill="#333" d="M16-82v-28h88v28H16" id="X"/><use transform="matrix(0.05,0,0,0.05,0,0)" xlink:href="#X" id="d"/><path fill="#333" d="M59-47c-2 24 18 29 38 22v24C64 9 27 4 27-40v-127H5v-23h24l9-43h21v43h35v23H59v120" id="Y"/><path fill="#333" d="M114-163C36-179 61-72 57 0H25l-1-190h30c1 12-1 29 2 39 6-27 23-49 58-41v29" id="Z"/><path fill="#333" d="M141-36C126-15 110 5 73 4 37 3 15-17 15-53c-1-64 63-63 125-63 3-35-9-54-41-54-24 1-41 7-42 31l-33-3c5-37 33-52 76-52 45 0 72 20 72 64v82c-1 20 7 32 28 27v20c-31 9-61-2-59-35zM48-53c0 20 12 33 32 33 41-3 63-29 60-74-43 2-92-5-92 41" id="aa"/><path fill="#333" d="M24-231v-30h32v30H24zM24 0v-190h32V0H24" id="ab"/><path fill="#333" d="M117-194c89-4 53 116 60 194h-32v-121c0-31-8-49-39-48C34-167 62-67 57 0H25l-1-190h30c1 10-1 24 2 32 11-22 29-35 61-36" id="ac"/><path fill="#333" d="M-5 72V49h209v23H-5" id="ad"/><path fill="#333" d="M135-143c-3-34-86-38-87 0 15 53 115 12 119 90S17 21 10-45l28-5c4 36 97 45 98 0-10-56-113-15-118-90-4-57 82-63 122-42 12 7 21 19 24 35" id="ae"/><path fill="#333" d="M100-194c63 0 86 42 84 106H49c0 40 14 67 53 68 26 1 43-12 49-29l28 8c-11 28-37 45-77 45C44 4 14-33 15-96c1-61 26-98 85-98zm52 81c6-60-76-77-97-28-3 7-6 17-6 28h103" id="af"/><path fill="#333" d="M115-194c55 1 70 41 70 98S169 2 115 4C84 4 66-9 55-30l1 105H24l-1-265h31l2 30c10-21 28-34 59-34zm-8 174c40 0 45-34 45-75s-6-73-45-74c-42 0-51 32-51 76 0 43 10 73 51 73" id="ag"/><path fill="#333" d="M96-169c-40 0-48 33-48 73s9 75 48 75c24 0 41-14 43-38l32 2c-6 37-31 61-74 61-59 0-76-41-82-99-10-93 101-131 147-64 4 7 5 14 7 22l-32 3c-4-21-16-35-41-35" id="ah"/><path fill="#333" d="M100-194c62-1 85 37 85 99 1 63-27 99-86 99S16-35 15-95c0-66 28-99 85-99zM99-20c44 1 53-31 53-75 0-43-8-75-51-75s-53 32-53 75 10 74 51 75" id="ai"/><path fill="#333" d="M84 4C-5 8 30-112 23-190h32v120c0 31 7 50 39 49 72-2 45-101 50-169h31l1 190h-30c-1-10 1-25-2-33-11 22-28 36-60 37" id="aj"/><path fill="#333" d="M33-154v-36h34v36H33zM33 0v-36h34V0H33" id="ak"/><g id="e"><use transform="matrix(0.05,0,0,0.05,0,0)" xlink:href="#Y"/><use transform="matrix(0.05,0,0,0.05,5,0)" xlink:href="#Z"/><use transform="matrix(0.05,0,0,0.05,10.95,0)" xlink:href="#aa"/><use transform="matrix(0.05,0,0,0.05,20.95,0)" xlink:href="#ab"/><use transform="matrix(0.05,0,0,0.05,24.9,0)" xlink:href="#ac"/><use transform="matrix(0.05,0,0,0.05,34.9,0)" xlink:href="#ad"/><use transform="matrix(0.05,0,0,0.05,44.9,0)" xlink:href="#ae"/><use transform="matrix(0.05,0,0,0.05,53.900000000000006,0)" xlink:href="#Y"/><use transform="matrix(0.05,0,0,0.05,58.900000000000006,0)" xlink:href="#af"/><use transform="matrix(0.05,0,0,0.05,68.9,0)" xlink:href="#ag"/><use transform="matrix(0.05,0,0,0.05,78.9,0)" xlink:href="#ad"/><use transform="matrix(0.05,0,0,0.05,88.9,0)" xlink:href="#ah"/><use transform="matrix(0.05,0,0,0.05,97.9,0)" xlink:href="#ai"/><use transform="matrix(0.05,0,0,0.05,107.9,0)" xlink:href="#aj"/><use transform="matrix(0.05,0,0,0.05,117.9,0)" xlink:href="#ac"/><use transform="matrix(0.05,0,0,0.05,127.9,0)" xlink:href="#Y"/><use transform="matrix(0.05,0,0,0.05,132.9,0)" xlink:href="#af"/><use transform="matrix(0.05,0,0,0.05,142.9,0)" xlink:href="#Z"/><use transform="matrix(0.05,0,0,0.05,148.85,0)" xlink:href="#ak"/></g><path fill="#333" d="M101-234c-31-9-42 10-38 44h38v23H63V0H32v-167H5v-23h27c-7-52 17-82 69-68v24" id="al"/><path fill="#333" d="M24 0v-261h32V0H24" id="am"/><path fill="#333" d="M206 0h-36l-40-164L89 0H53L-1-190h32L70-26l43-164h34l41 164 42-164h31" id="an"/><path fill="#333" d="M33 0v-38h34V0H33" id="ao"/><path fill="#333" d="M137 0h-34L2-248h35l83 218 83-218h36" id="ap"/><path fill="#333" d="M115-194c53 0 69 39 70 98 0 66-23 100-70 100C84 3 66-7 56-30L54 0H23l1-261h32v101c10-23 28-34 59-34zm-8 174c40 0 45-34 45-75 0-40-5-75-45-74-42 0-51 32-51 76 0 43 10 73 51 73" id="aq"/><g id="f"><use transform="matrix(0.05,0,0,0.05,0,0)" xlink:href="#Y"/><use transform="matrix(0.05,0,0,0.05,5,0)" xlink:href="#af"/><use transform="matrix(0.05,0,0,0.05,15,0)" xlink:href="#ac"/><use transform="matrix(0.05,0,0,0.05,25,0)" xlink:href="#ae"/><use transform="matrix(0.05,0,0,0.05,34,0)" xlink:href="#ai"/><use transform="matrix(0.05,0,0,0.05,44,0)" xlink:href="#Z"/><use transform="matrix(0.05,0,0,0.05,49.95,0)" xlink:href="#al"/><use transform="matrix(0.05,0,0,0.05,54.95,0)" xlink:href="#am"/><use transform="matrix(0.05,0,0,0.05,58.900000000000006,0)" xlink:href="#ai"/><use transform="matrix(0.05,0,0,0.05,68.9,0)" xlink:href="#an"/><use transform="matrix(0.05,0,0,0.05,80.85000000000001,0)" xlink:href="#ao"/><use transform="matrix(0.05,0,0,0.05,85.85000000000001,0)" xlink:href="#ap"/><use transform="matrix(0.05,0,0,0.05,96.50000000000001,0)" xlink:href="#aa"/><use transform="matrix(0.05,0,0,0.05,106.5,0)" xlink:href="#Z"/><use transform="matrix(0.05,0,0,0.05,112.45,0)" xlink:href="#ab"/><use transform="matrix(0.05,0,0,0.05,116.40000000000003,0)" xlink:href="#aa"/><use transform="matrix(0.05,0,0,0.05,126.40000000000003,0)" xlink:href="#aq"/><use transform="matrix(0.05,0,0,0.05,136.40000000000003,0)" xlink:href="#am"/><use transform="matrix(0.05,0,0,0.05,140.35000000000002,0)" xlink:href="#af"/></g><path fill="#333" d="M108 0H70L1-190h34L89-25l56-165h34" id="ar"/><path fill="#333" d="M210-169c-67 3-38 105-44 169h-31v-121c0-29-5-50-35-48C34-165 62-65 56 0H25l-1-190h30c1 10-1 24 2 32 10-44 99-50 107 0 11-21 27-35 58-36 85-2 47 119 55 194h-31v-121c0-29-5-49-35-48" id="as"/><g id="g"><use transform="matrix(0.05,0,0,0.05,0,0)" xlink:href="#af"/><use transform="matrix(0.05,0,0,0.05,10,0)" xlink:href="#ac"/><use transform="matrix(0.05,0,0,0.05,20,0)" xlink:href="#ar"/><use transform="matrix(0.05,0,0,0.05,29,0)" xlink:href="#ab"/><use transform="matrix(0.05,0,0,0.05,32.95,0)" xlink:href="#Z"/><use transform="matrix(0.05,0,0,0.05,38.900000000000006,0)" xlink:href="#ai"/><use transform="matrix(0.05,0,0,0.05,48.900000000000006,0)" xlink:href="#ac"/><use transform="matrix(0.05,0,0,0.05,58.900000000000006,0)" xlink:href="#as"/><use transform="matrix(0.05,0,0,0.05,73.85000000000001,0)" xlink:href="#af"/><use transform="matrix(0.05,0,0,0.05,83.85000000000001,0)" xlink:href="#ac"/><use transform="matrix(0.05,0,0,0.05,93.85000000000001,0)" xlink:href="#Y"/><use transform="matrix(0.05,0,0,0.05,98.85000000000001,0)" xlink:href="#ak"/></g><path fill="#333" d="M177-190C167-65 218 103 67 71c-23-6-38-20-44-43l32-5c15 47 100 32 89-28v-30C133-14 115 1 83 1 29 1 15-40 15-95c0-56 16-97 71-98 29-1 48 16 59 35 1-10 0-23 2-32h30zM94-22c36 0 50-32 50-73 0-42-14-75-50-75-39 0-46 34-46 75s6 73 46 73" id="at"/><path fill="#333" d="M30-248c87 1 191-15 191 75 0 78-77 80-158 76V0H30v-248zm33 125c57 0 124 11 124-50 0-59-68-47-124-48v98" id="au"/><path fill="#333" d="M179-190L93 31C79 59 56 82 12 73V49c39 6 53-20 64-50L1-190h34L92-34l54-156h33" id="av"/><path fill="#333" d="M30 0v-248h187v28H63v79h144v27H63v87h162V0H30" id="aw"/><g id="h"><use transform="matrix(0.05,0,0,0.05,0,0)" xlink:href="#Y"/><use transform="matrix(0.05,0,0,0.05,5,0)" xlink:href="#al"/><use transform="matrix(0.05,0,0,0.05,10,0)" xlink:href="#ad"/><use transform="matrix(0.05,0,0,0.05,20,0)" xlink:href="#aa"/><use transform="matrix(0.05,0,0,0.05,30,0)" xlink:href="#at"/><use transform="matrix(0.05,0,0,0.05,40,0)" xlink:href="#af"/><use transform="matrix(0.05,0,0,0.05,50,0)" xlink:href="#ac"/><use transform="matrix(0.05,0,0,0.05,60,0)" xlink:href="#Y"/><use transform="matrix(0.05,0,0,0.05,65,0)" xlink:href="#ae"/><use transform="matrix(0.05,0,0,0.05,74,0)" xlink:href="#ao"/><use transform="matrix(0.05,0,0,0.05,79,0)" xlink:href="#au"/><use transform="matrix(0.05,0,0,0.05,91,0)" xlink:href="#av"/><use transform="matrix(0.05,0,0,0.05,100,0)" xlink:href="#aw"/><use transform="matrix(0.05,0,0,0.05,112,0)" xlink:href="#ac"/><use transform="matrix(0.05,0,0,0.05,122,0)" xlink:href="#ar"/><use transform="matrix(0.05,0,0,0.05,131,0)" xlink:href="#ab"/><use transform="matrix(0.05,0,0,0.05,134.95,0)" xlink:href="#Z"/><use transform="matrix(0.05,0,0,0.05,140.89999999999998,0)" xlink:href="#ai"/><use transform="matrix(0.05,0,0,0.05,150.89999999999998,0)" xlink:href="#ac"/><use transform="matrix(0.05,0,0,0.05,160.89999999999998,0)" xlink:href="#as"/><use transform="matrix(0.05,0,0,0.05,175.84999999999997,0)" xlink:href="#af"/><use transform="matrix(0.05,0,0,0.05,185.84999999999997,0)" xlink:href="#ac"/><use transform="matrix(0.05,0,0,0.05,195.84999999999997,0)" xlink:href="#Y"/></g><g id="i"><use transform="matrix(0.05,0,0,0.05,0,0)" xlink:href="#aa"/><use transform="matrix(0.05,0,0,0.05,10,0)" xlink:href="#at"/><use transform="matrix(0.05,0,0,0.05,20,0)" xlink:href="#af"/><use transform="matrix(0.05,0,0,0.05,30,0)" xlink:href="#ac"/><use transform="matrix(0.05,0,0,0.05,40,0)" xlink:href="#Y"/><use transform="matrix(0.05,0,0,0.05,45,0)" xlink:href="#ak"/></g><path fill="#333" d="M30-248c118-7 216 8 213 122C240-48 200 0 122 0H30v-248zM63-27c89 8 146-16 146-99s-60-101-146-95v194" id="ax"/><path fill="#333" d="M145-31C134-9 116 4 85 4 32 4 16-35 15-94c0-59 17-99 70-100 32-1 48 14 60 33 0-11-1-24 2-32h30l-1 268h-32zM93-21c41 0 51-33 51-76s-8-73-50-73c-40 0-46 35-46 75s5 74 45 74" id="ay"/><path fill="#333" d="M205 0l-28-72H64L36 0H1l101-248h38L239 0h-34zm-38-99l-47-123c-12 45-31 82-46 123h93" id="az"/><g id="j"><use transform="matrix(0.05,0,0,0.05,0,0)" xlink:href="#Y"/><use transform="matrix(0.05,0,0,0.05,5,0)" xlink:href="#al"/><use transform="matrix(0.05,0,0,0.05,10,0)" xlink:href="#ad"/><use transform="matrix(0.05,0,0,0.05,20,0)" xlink:href="#aa"/><use transform="matrix(0.05,0,0,0.05,30,0)" xlink:href="#at"/><use transform="matrix(0.05,0,0,0.05,40,0)" xlink:href="#af"/><use transform="matrix(0.05,0,0,0.05,50,0)" xlink:href="#ac"/><use transform="matrix(0.05,0,0,0.05,60,0)" xlink:href="#Y"/><use transform="matrix(0.05,0,0,0.05,65,0)" xlink:href="#ae"/><use transform="matrix(0.05,0,0,0.05,74,0)" xlink:href="#ao"/><use transform="matrix(0.05,0,0,0.05,79,0)" xlink:href="#ax"/><use transform="matrix(0.05,0,0,0.05,91.95,0)" xlink:href="#ay"/><use transform="matrix(0.05,0,0,0.05,101.95,0)" xlink:href="#ac"/><use transform="matrix(0.05,0,0,0.05,111.95,0)" xlink:href="#az"/><use transform="matrix(0.05,0,0,0.05,123.95,0)" xlink:href="#at"/><use transform="matrix(0.05,0,0,0.05,133.95,0)" xlink:href="#af"/><use transform="matrix(0.05,0,0,0.05,143.95,0)" xlink:href="#ac"/><use transform="matrix(0.05,0,0,0.05,153.95,0)" xlink:href="#Y"/></g><g id="k"><use transform="matrix(0.05,0,0,0.05,0,0)" xlink:href="#Z"/><use transform="matrix(0.05,0,0,0.05,5.95,0)" xlink:href="#af"/><use transform="matrix(0.05,0,0,0.05,15.949999999999998,0)" xlink:href="#ag"/><use transform="matrix(0.05,0,0,0.05,25.950000000000003,0)" xlink:href="#am"/><use transform="matrix(0.05,0,0,0.05,29.899999999999995,0)" xlink:href="#aa"/><use transform="matrix(0.05,0,0,0.05,39.9,0)" xlink:href="#av"/><use transform="matrix(0.05,0,0,0.05,48.9,0)" xlink:href="#ad"/><use transform="matrix(0.05,0,0,0.05,58.900000000000006,0)" xlink:href="#aq"/><use transform="matrix(0.05,0,0,0.05,68.9,0)" xlink:href="#aj"/><use transform="matrix(0.05,0,0,0.05,78.9,0)" xlink:href="#al"/><use transform="matrix(0.05,0,0,0.05,83.55000000000001,0)" xlink:href="#al"/><use transform="matrix(0.05,0,0,0.05,88.55000000000001,0)" xlink:href="#af"/><use transform="matrix(0.05,0,0,0.05,98.55000000000001,0)" xlink:href="#Z"/><use transform="matrix(0.05,0,0,0.05,104.5,0)" xlink:href="#ak"/></g><path fill="#333" d="M127-220V0H93v-220H8v-28h204v28h-85" id="aA"/><path fill="#333" d="M63-220v92h138v28H63V0H30v-248h175v28H63" id="aB"/><path fill="#333" d="M232-93c-1 65-40 97-104 97C67 4 28-28 28-90v-158h33c8 89-33 224 67 224 102 0 64-133 71-224h33v155" id="aC"/><path fill="#333" d="M233-177c-1 41-23 64-60 70L243 0h-38l-65-103H63V0H30v-248c88 3 205-21 203 71zM63-129c60-2 137 13 137-47 0-61-80-42-137-45v92" id="aD"/><path fill="#333" d="M160-131c35 5 61 23 61 61C221 17 115-2 30 0v-248c76 3 177-17 177 60 0 33-19 50-47 57zm-97-11c50-1 110 9 110-42 0-47-63-36-110-37v79zm0 115c55-2 124 14 124-45 0-56-70-42-124-44v89" id="aE"/><g id="l"><use transform="matrix(0.05,0,0,0.05,0,0)" xlink:href="#Y"/><use transform="matrix(0.05,0,0,0.05,5,0)" xlink:href="#al"/><use transform="matrix(0.05,0,0,0.05,10,0)" xlink:href="#ad"/><use transform="matrix(0.05,0,0,0.05,20,0)" xlink:href="#aa"/><use transform="matrix(0.05,0,0,0.05,30,0)" xlink:href="#at"/><use transform="matrix(0.05,0,0,0.05,40,0)" xlink:href="#af"/><use transform="matrix(0.05,0,0,0.05,50,0)" xlink:href="#ac"/><use transform="matrix(0.05,0,0,0.05,60,0)" xlink:href="#Y"/><use transform="matrix(0.05,0,0,0.05,65,0)" xlink:href="#ae"/><use transform="matrix(0.05,0,0,0.05,74,0)" xlink:href="#ao"/><use transform="matrix(0.05,0,0,0.05,79,0)" xlink:href="#aA"/><use transform="matrix(0.05,0,0,0.05,89.95,0)" xlink:href="#aB"/><use transform="matrix(0.05,0,0,0.05,100.9,0)" xlink:href="#aC"/><use transform="matrix(0.05,0,0,0.05,113.85000000000001,0)" xlink:href="#ac"/><use transform="matrix(0.05,0,0,0.05,123.85000000000001,0)" xlink:href="#ab"/><use transform="matrix(0.05,0,0,0.05,127.80000000000001,0)" xlink:href="#al"/><use transform="matrix(0.05,0,0,0.05,132.8,0)" xlink:href="#ai"/><use transform="matrix(0.05,0,0,0.05,142.8,0)" xlink:href="#Z"/><use transform="matrix(0.05,0,0,0.05,148.75,0)" xlink:href="#as"/><use transform="matrix(0.05,0,0,0.05,163.7,0)" xlink:href="#aD"/><use transform="matrix(0.05,0,0,0.05,176.64999999999998,0)" xlink:href="#af"/><use transform="matrix(0.05,0,0,0.05,186.64999999999998,0)" xlink:href="#ag"/><use transform="matrix(0.05,0,0,0.05,196.64999999999998,0)" xlink:href="#am"/><use transform="matrix(0.05,0,0,0.05,200.59999999999997,0)" xlink:href="#aa"/><use transform="matrix(0.05,0,0,0.05,210.59999999999997,0)" xlink:href="#av"/><use transform="matrix(0.05,0,0,0.05,219.59999999999997,0)" xlink:href="#aE"/><use transform="matrix(0.05,0,0,0.05,231.59999999999997,0)" xlink:href="#aj"/><use transform="matrix(0.05,0,0,0.05,241.59999999999997,0)" xlink:href="#al"/><use transform="matrix(0.05,0,0,0.05,246.24999999999997,0)" xlink:href="#al"/><use transform="matrix(0.05,0,0,0.05,251.24999999999997,0)" xlink:href="#af"/><use transform="matrix(0.05,0,0,0.05,261.25,0)" xlink:href="#Z"/></g><g id="m"><use transform="matrix(0.05,0,0,0.05,0,0)" xlink:href="#ad"/><use transform="matrix(0.05,0,0,0.05,10,0)" xlink:href="#Y"/><use transform="matrix(0.05,0,0,0.05,15,0)" xlink:href="#Z"/><use transform="matrix(0.05,0,0,0.05,20.95,0)" xlink:href="#aa"/><use transform="matrix(0.05,0,0,0.05,30.950000000000003,0)" xlink:href="#ab"/><use transform="matrix(0.05,0,0,0.05,34.9,0)" xlink:href="#ac"/><use transform="matrix(0.05,0,0,0.05,44.9,0)" xlink:href="#ad"/><use transform="matrix(0.05,0,0,0.05,54.900000000000006,0)" xlink:href="#am"/><use transform="matrix(0.05,0,0,0.05,58.85,0)" xlink:href="#ai"/><use transform="matrix(0.05,0,0,0.05,68.85,0)" xlink:href="#ae"/><use transform="matrix(0.05,0,0,0.05,77.85,0)" xlink:href="#ae"/><use transform="matrix(0.05,0,0,0.05,86.85,0)" xlink:href="#ak"/></g><path fill="#333" d="M143 0L79-87 56-68V0H24v-261h32v163l83-92h37l-77 82L181 0h-38" id="aF"/><path fill="#333" d="M240 0l2-218c-23 76-54 145-80 218h-23L58-218 59 0H30v-248h44l77 211c21-75 51-140 76-211h43V0h-30" id="aG"/><g id="n"><use transform="matrix(0.05,0,0,0.05,0,0)" xlink:href="#Y"/><use transform="matrix(0.05,0,0,0.05,5,0)" xlink:href="#af"/><use transform="matrix(0.05,0,0,0.05,15,0)" xlink:href="#ac"/><use transform="matrix(0.05,0,0,0.05,25,0)" xlink:href="#ae"/><use transform="matrix(0.05,0,0,0.05,34,0)" xlink:href="#ai"/><use transform="matrix(0.05,0,0,0.05,44,0)" xlink:href="#Z"/><use transform="matrix(0.05,0,0,0.05,49.95,0)" xlink:href="#al"/><use transform="matrix(0.05,0,0,0.05,54.95,0)" xlink:href="#am"/><use transform="matrix(0.05,0,0,0.05,58.900000000000006,0)" xlink:href="#ai"/><use transform="matrix(0.05,0,0,0.05,68.9,0)" xlink:href="#an"/><use transform="matrix(0.05,0,0,0.05,81.85000000000001,0)" xlink:href="#ao"/><use transform="matrix(0.05,0,0,0.05,86.85000000000001,0)" xlink:href="#aF"/><use transform="matrix(0.05,0,0,0.05,95.85000000000001,0)" xlink:href="#af"/><use transform="matrix(0.05,0,0,0.05,105.85000000000001,0)" xlink:href="#Z"/><use transform="matrix(0.05,0,0,0.05,111.80000000000001,0)" xlink:href="#aa"/><use transform="matrix(0.05,0,0,0.05,121.80000000000001,0)" xlink:href="#ae"/><use transform="matrix(0.05,0,0,0.05,130.8,0)" xlink:href="#ao"/><use transform="matrix(0.05,0,0,0.05,135.8,0)" xlink:href="#aG"/><use transform="matrix(0.05,0,0,0.05,150.75,0)" xlink:href="#af"/><use transform="matrix(0.05,0,0,0.05,160.75,0)" xlink:href="#Y"/><use transform="matrix(0.05,0,0,0.05,165.75,0)" xlink:href="#Z"/><use transform="matrix(0.05,0,0,0.05,171.7,0)" xlink:href="#ab"/><use transform="matrix(0.05,0,0,0.05,175.64999999999998,0)" xlink:href="#ah"/><path fill="#8080ff" d="M80.95 1.25h104.6v1.32H80.95z"/></g><g id="o"><use transform="matrix(0.05,0,0,0.05,0,0)" xlink:href="#ad"/><use transform="matrix(0.05,0,0,0.05,10,0)" xlink:href="#Y"/><use transform="matrix(0.05,0,0,0.05,15,0)" xlink:href="#Z"/><use transform="matrix(0.05,0,0,0.05,20.95,0)" xlink:href="#aa"/><use transform="matrix(0.05,0,0,0.05,30.950000000000003,0)" xlink:href="#ab"/><use transform="matrix(0.05,0,0,0.05,34.9,0)" xlink:href="#ac"/><use transform="matrix(0.05,0,0,0.05,44.9,0)" xlink:href="#ad"/><use transform="matrix(0.05,0,0,0.05,54.900000000000006,0)" xlink:href="#Z"/><use transform="matrix(0.05,0,0,0.05,60.85,0)" xlink:href="#af"/><use transform="matrix(0.05,0,0,0.05,70.85,0)" xlink:href="#Y"/><use transform="matrix(0.05,0,0,0.05,75.85,0)" xlink:href="#aj"/><use transform="matrix(0.05,0,0,0.05,85.85,0)" xlink:href="#Z"/><use transform="matrix(0.05,0,0,0.05,91.8,0)" xlink:href="#ac"/><use transform="matrix(0.05,0,0,0.05,101.8,0)" xlink:href="#ak"/></g><g id="p"><use transform="matrix(0.05,0,0,0.05,0,0)" xlink:href="#ad"/><use transform="matrix(0.05,0,0,0.05,10,0)" xlink:href="#Y"/><use transform="matrix(0.05,0,0,0.05,15,0)" xlink:href="#Z"/><use transform="matrix(0.05,0,0,0.05,20.95,0)" xlink:href="#aa"/><use transform="matrix(0.05,0,0,0.05,30.950000000000003,0)" xlink:href="#ab"/><use transform="matrix(0.05,0,0,0.05,34.9,0)" xlink:href="#ac"/><use transform="matrix(0.05,0,0,0.05,44.9,0)" xlink:href="#ad"/><use transform="matrix(0.05,0,0,0.05,54.900000000000006,0)" xlink:href="#ae"/><use transform="matrix(0.05,0,0,0.05,63.900000000000006,0)" xlink:href="#aj"/><use transform="matrix(0.05,0,0,0.05,73.9,0)" xlink:href="#as"/><use transform="matrix(0.05,0,0,0.05,88.85000000000001,0)" xlink:href="#as"/><use transform="matrix(0.05,0,0,0.05,103.80000000000001,0)" xlink:href="#aa"/><use transform="matrix(0.05,0,0,0.05,113.80000000000001,0)" xlink:href="#Z"/><use transform="matrix(0.05,0,0,0.05,119.75,0)" xlink:href="#av"/><use transform="matrix(0.05,0,0,0.05,128.75,0)" xlink:href="#ad"/><use transform="matrix(0.05,0,0,0.05,138.75,0)" xlink:href="#an"/><use transform="matrix(0.05,0,0,0.05,151.7,0)" xlink:href="#Z"/><use transform="matrix(0.05,0,0,0.05,157.64999999999998,0)" xlink:href="#ab"/><use transform="matrix(0.05,0,0,0.05,161.59999999999997,0)" xlink:href="#Y"/><use transform="matrix(0.05,0,0,0.05,166.59999999999997,0)" xlink:href="#af"/><use transform="matrix(0.05,0,0,0.05,176.59999999999997,0)" xlink:href="#Z"/><use transform="matrix(0.05,0,0,0.05,182.54999999999995,0)" xlink:href="#ak"/></g><path fill="#333" d="M185-189c-5-48-123-54-124 2 14 75 158 14 163 119 3 78-121 87-175 55-17-10-28-26-33-46l33-7c5 56 141 63 141-1 0-78-155-14-162-118-5-82 145-84 179-34 5 7 8 16 11 25" id="aH"/><path fill="#333" d="M266 0h-40l-56-210L115 0H75L2-248h35L96-30l15-64 43-154h32l59 218 59-218h35" id="aI"/><g id="q"><use transform="matrix(0.05,0,0,0.05,0,0)" xlink:href="#Y"/><use transform="matrix(0.05,0,0,0.05,5,0)" xlink:href="#af"/><use transform="matrix(0.05,0,0,0.05,15,0)" xlink:href="#ac"/><use transform="matrix(0.05,0,0,0.05,25,0)" xlink:href="#ae"/><use transform="matrix(0.05,0,0,0.05,34,0)" xlink:href="#ai"/><use transform="matrix(0.05,0,0,0.05,44,0)" xlink:href="#Z"/><use transform="matrix(0.05,0,0,0.05,49.95,0)" xlink:href="#al"/><use transform="matrix(0.05,0,0,0.05,54.95,0)" xlink:href="#am"/><use transform="matrix(0.05,0,0,0.05,58.900000000000006,0)" xlink:href="#ai"/><use transform="matrix(0.05,0,0,0.05,68.9,0)" xlink:href="#an"/><use transform="matrix(0.05,0,0,0.05,80.85000000000001,0)" xlink:href="#ao"/><use transform="matrix(0.05,0,0,0.05,85.85000000000001,0)" xlink:href="#aH"/><use transform="matrix(0.05,0,0,0.05,97.85000000000001,0)" xlink:href="#aj"/><use transform="matrix(0.05,0,0,0.05,107.85000000000001,0)" xlink:href="#as"/><use transform="matrix(0.05,0,0,0.05,122.80000000000001,0)" xlink:href="#as"/><use transform="matrix(0.05,0,0,0.05,137.75,0)" xlink:href="#aa"/><use transform="matrix(0.05,0,0,0.05,147.75,0)" xlink:href="#Z"/><use transform="matrix(0.05,0,0,0.05,153.7,0)" xlink:href="#av"/><use transform="matrix(0.05,0,0,0.05,162.7,0)" xlink:href="#aI"/><use transform="matrix(0.05,0,0,0.05,179.29999999999998,0)" xlink:href="#Z"/><use transform="matrix(0.05,0,0,0.05,185.24999999999997,0)" xlink:href="#ab"/><use transform="matrix(0.05,0,0,0.05,189.19999999999996,0)" xlink:href="#Y"/><use transform="matrix(0.05,0,0,0.05,194.19999999999996,0)" xlink:href="#af"/><use transform="matrix(0.05,0,0,0.05,204.19999999999996,0)" xlink:href="#Z"/></g><path fill="#333" d="M87 75C49 33 22-17 22-94c0-76 28-126 65-167h31c-38 41-64 92-64 168S80 34 118 75H87" id="aJ"/><path fill="#333" d="M85-194c31 0 48 13 60 33l-1-100h32l1 261h-30c-2-10 0-23-3-31C134-8 116 4 85 4 32 4 16-35 15-94c0-66 23-100 70-100zm9 24c-40 0-46 34-46 75 0 40 6 74 45 74 42 0 51-32 51-76 0-42-9-74-50-73" id="aK"/><g id="r"><use transform="matrix(0.05,0,0,0.05,0,0)" xlink:href="#ad"/><use transform="matrix(0.05,0,0,0.05,10,0)" xlink:href="#aa"/><use transform="matrix(0.05,0,0,0.05,20,0)" xlink:href="#ar"/><use transform="matrix(0.05,0,0,0.05,29,0)" xlink:href="#at"/><use transform="matrix(0.05,0,0,0.05,39,0)" xlink:href="#ad"/><use transform="matrix(0.05,0,0,0.05,49,0)" xlink:href="#Z"/><use transform="matrix(0.05,0,0,0.05,54.95,0)" xlink:href="#af"/><use transform="matrix(0.05,0,0,0.05,64.95,0)" xlink:href="#Y"/><use transform="matrix(0.05,0,0,0.05,69.95,0)" xlink:href="#aj"/><use transform="matrix(0.05,0,0,0.05,79.95,0)" xlink:href="#Z"/><use transform="matrix(0.05,0,0,0.05,85.9,0)" xlink:href="#ac"/><use transform="matrix(0.05,0,0,0.05,95.9,0)" xlink:href="#aJ"/><use transform="matrix(0.05,0,0,0.05,101.85000000000001,0)" xlink:href="#ac"/><use transform="matrix(0.05,0,0,0.05,111.85000000000001,0)" xlink:href="#aj"/><use transform="matrix(0.05,0,0,0.05,121.85000000000001,0)" xlink:href="#as"/><use transform="matrix(0.05,0,0,0.05,136.8,0)" xlink:href="#ad"/><use transform="matrix(0.05,0,0,0.05,146.8,0)" xlink:href="#af"/><use transform="matrix(0.05,0,0,0.05,156.8,0)" xlink:href="#ag"/><use transform="matrix(0.05,0,0,0.05,166.8,0)" xlink:href="#ab"/><use transform="matrix(0.05,0,0,0.05,170.75,0)" xlink:href="#ae"/><use transform="matrix(0.05,0,0,0.05,179.75,0)" xlink:href="#ai"/><use transform="matrix(0.05,0,0,0.05,189.75,0)" xlink:href="#aK"/><use transform="matrix(0.05,0,0,0.05,199.75,0)" xlink:href="#af"/><use transform="matrix(0.05,0,0,0.05,209.75,0)" xlink:href="#ae"/><use transform="matrix(0.05,0,0,0.05,218.75,0)" xlink:href="#ak"/></g><path fill="#333" d="M33-261c38 41 65 92 65 168S71 34 33 75H2C39 34 66-17 66-93S39-220 2-261h31" id="aL"/><g id="s"><use transform="matrix(0.05,0,0,0.05,0,0)" xlink:href="#ab"/><use transform="matrix(0.05,0,0,0.05,3.95,0)" xlink:href="#ac"/><use transform="matrix(0.05,0,0,0.05,13.949999999999998,0)" xlink:href="#Y"/><use transform="matrix(0.05,0,0,0.05,18.95,0)" xlink:href="#aL"/></g><g id="t"><use transform="matrix(0.05,0,0,0.05,0,0)" xlink:href="#ad"/><use transform="matrix(0.05,0,0,0.05,10,0)" xlink:href="#ah"/><use transform="matrix(0.05,0,0,0.05,19,0)" xlink:href="#ai"/><use transform="matrix(0.05,0,0,0.05,29,0)" xlink:href="#am"/><use transform="matrix(0.05,0,0,0.05,32.95,0)" xlink:href="#am"/><use transform="matrix(0.05,0,0,0.05,36.900000000000006,0)" xlink:href="#af"/><use transform="matrix(0.05,0,0,0.05,46.900000000000006,0)" xlink:href="#ah"/><use transform="matrix(0.05,0,0,0.05,55.900000000000006,0)" xlink:href="#Y"/><use transform="matrix(0.05,0,0,0.05,60.900000000000006,0)" xlink:href="#ad"/><use transform="matrix(0.05,0,0,0.05,70.9,0)" xlink:href="#ae"/><use transform="matrix(0.05,0,0,0.05,79.9,0)" xlink:href="#Y"/><use transform="matrix(0.05,0,0,0.05,84.9,0)" xlink:href="#af"/><use transform="matrix(0.05,0,0,0.05,94.9,0)" xlink:href="#ag"/><use transform="matrix(0.05,0,0,0.05,104.9,0)" xlink:href="#aJ"/><use transform="matrix(0.05,0,0,0.05,110.85000000000001,0)" xlink:href="#aL"/></g><path fill="#333" d="M118-107v75H92v-75H18v-26h74v-75h26v75h74v26h-74" id="aM"/><use transform="matrix(0.05,0,0,0.05,0,0)" xlink:href="#aM" id="u"/><g id="v"><use transform="matrix(0.05,0,0,0.05,0,0)" xlink:href="#ad"/><use transform="matrix(0.05,0,0,0.05,10,0)" xlink:href="#ad"/><use transform="matrix(0.05,0,0,0.05,20,0)" xlink:href="#ab"/><use transform="matrix(0.05,0,0,0.05,23.95,0)" xlink:href="#ac"/><use transform="matrix(0.05,0,0,0.05,33.95,0)" xlink:href="#ab"/><use transform="matrix(0.05,0,0,0.05,37.900000000000006,0)" xlink:href="#Y"/><use transform="matrix(0.05,0,0,0.05,42.900000000000006,0)" xlink:href="#ad"/><use transform="matrix(0.05,0,0,0.05,52.900000000000006,0)" xlink:href="#ad"/><use transform="matrix(0.05,0,0,0.05,62.900000000000006,0)" xlink:href="#aJ"/></g><g id="x"><use transform="matrix(0.05,0,0,0.05,0,0)" xlink:href="#ay"/><use transform="matrix(0.05,0,0,0.05,10,0)" xlink:href="#ad"/><use transform="matrix(0.05,0,0,0.05,20,0)" xlink:href="#ac"/><use transform="matrix(0.05,0,0,0.05,30,0)" xlink:href="#af"/><use transform="matrix(0.05,0,0,0.05,40,0)" xlink:href="#Y"/><use transform="matrix(0.05,0,0,0.05,45,0)" xlink:href="#an"/><use transform="matrix(0.05,0,0,0.05,57.95,0)" xlink:href="#ai"/><use transform="matrix(0.05,0,0,0.05,67.95,0)" xlink:href="#Z"/><use transform="matrix(0.05,0,0,0.05,73.9,0)" xlink:href="#aF"/><use transform="matrix(0.05,0,0,0.05,82.9,0)" xlink:href="#ak"/></g><path fill="#333" d="M190 0L58-211 59 0H30v-248h39L202-35l-2-213h31V0h-41" id="aN"/><path fill="#333" d="M68-38c1 34 0 65-14 84H32c9-13 17-26 17-46H33v-38h35" id="aO"/><g id="y"><use transform="matrix(0.05,0,0,0.05,0,0)" xlink:href="#Y"/><use transform="matrix(0.05,0,0,0.05,5,0)" xlink:href="#al"/><use transform="matrix(0.05,0,0,0.05,10,0)" xlink:href="#ad"/><use transform="matrix(0.05,0,0,0.05,20,0)" xlink:href="#aa"/><use transform="matrix(0.05,0,0,0.05,30,0)" xlink:href="#at"/><use transform="matrix(0.05,0,0,0.05,40,0)" xlink:href="#af"/><use transform="matrix(0.05,0,0,0.05,50,0)" xlink:href="#ac"/><use transform="matrix(0.05,0,0,0.05,60,0)" xlink:href="#Y"/><use transform="matrix(0.05,0,0,0.05,65,0)" xlink:href="#ae"/><use transform="matrix(0.05,0,0,0.05,74,0)" xlink:href="#ao"/><use transform="matrix(0.05,0,0,0.05,79,0)" xlink:href="#ac"/><use transform="matrix(0.05,0,0,0.05,89,0)" xlink:href="#af"/><use transform="matrix(0.05,0,0,0.05,99,0)" xlink:href="#Y"/><use transform="matrix(0.05,0,0,0.05,104,0)" xlink:href="#an"/><use transform="matrix(0.05,0,0,0.05,116.95,0)" xlink:href="#ai"/><use transform="matrix(0.05,0,0,0.05,126.95,0)" xlink:href="#Z"/><use transform="matrix(0.05,0,0,0.05,132.9,0)" xlink:href="#aF"/><use transform="matrix(0.05,0,0,0.05,141.9,0)" xlink:href="#ae"/><use transform="matrix(0.05,0,0,0.05,150.9,0)" xlink:href="#ao"/><use transform="matrix(0.05,0,0,0.05,155.9,0)" xlink:href="#aN"/><use transform="matrix(0.05,0,0,0.05,168.85,0)" xlink:href="#af"/><use transform="matrix(0.05,0,0,0.05,178.85,0)" xlink:href="#Y"/><use transform="matrix(0.05,0,0,0.05,183.85,0)" xlink:href="#an"/><use transform="matrix(0.05,0,0,0.05,196.79999999999998,0)" xlink:href="#ai"/><use transform="matrix(0.05,0,0,0.05,206.79999999999995,0)" xlink:href="#Z"/><use transform="matrix(0.05,0,0,0.05,212.74999999999997,0)" xlink:href="#aF"/><use transform="matrix(0.05,0,0,0.05,221.74999999999997,0)" xlink:href="#aO"/></g><g id="z"><use transform="matrix(0.05,0,0,0.05,0,0)" xlink:href="#af"/><use transform="matrix(0.05,0,0,0.05,10,0)" xlink:href="#ac"/><use transform="matrix(0.05,0,0,0.05,20,0)" xlink:href="#ar"/><use transform="matrix(0.05,0,0,0.05,29,0)" xlink:href="#ak"/></g><g id="A"><use transform="matrix(0.05,0,0,0.05,0,0)" xlink:href="#Y"/><use transform="matrix(0.05,0,0,0.05,5,0)" xlink:href="#al"/><use transform="matrix(0.05,0,0,0.05,10,0)" xlink:href="#ad"/><use transform="matrix(0.05,0,0,0.05,20,0)" xlink:href="#aa"/><use transform="matrix(0.05,0,0,0.05,30,0)" xlink:href="#at"/><use transform="matrix(0.05,0,0,0.05,40,0)" xlink:href="#af"/><use transform="matrix(0.05,0,0,0.05,50,0)" xlink:href="#ac"/><use transform="matrix(0.05,0,0,0.05,60,0)" xlink:href="#Y"/><use transform="matrix(0.05,0,0,0.05,65,0)" xlink:href="#ae"/><use transform="matrix(0.05,0,0,0.05,74,0)" xlink:href="#ao"/><use transform="matrix(0.05,0,0,0.05,79,0)" xlink:href="#af"/><use transform="matrix(0.05,0,0,0.05,89,0)" xlink:href="#ac"/><use transform="matrix(0.05,0,0,0.05,99,0)" xlink:href="#ar"/><use transform="matrix(0.05,0,0,0.05,108,0)" xlink:href="#ab"/><use transform="matrix(0.05,0,0,0.05,111.95,0)" xlink:href="#Z"/><use transform="matrix(0.05,0,0,0.05,117.9,0)" xlink:href="#ai"/><use transform="matrix(0.05,0,0,0.05,127.9,0)" xlink:href="#ac"/><use transform="matrix(0.05,0,0,0.05,137.9,0)" xlink:href="#as"/><use transform="matrix(0.05,0,0,0.05,152.85,0)" xlink:href="#af"/><use transform="matrix(0.05,0,0,0.05,162.85,0)" xlink:href="#ac"/><use transform="matrix(0.05,0,0,0.05,172.85,0)" xlink:href="#Y"/><use transform="matrix(0.05,0,0,0.05,177.85,0)" xlink:href="#ae"/><use transform="matrix(0.05,0,0,0.05,186.85,0)" xlink:href="#ao"/><use transform="matrix(0.05,0,0,0.05,191.85,0)" xlink:href="#au"/><use transform="matrix(0.05,0,0,0.05,203.85,0)" xlink:href="#av"/><use transform="matrix(0.05,0,0,0.05,212.85000000000002,0)" xlink:href="#aw"/><use transform="matrix(0.05,0,0,0.05,224.85000000000002,0)" xlink:href="#ac"/><use transform="matrix(0.05,0,0,0.05,234.85000000000002,0)" xlink:href="#ar"/><use transform="matrix(0.05,0,0,0.05,243.85000000000002,0)" xlink:href="#ab"/><use transform="matrix(0.05,0,0,0.05,247.79999999999995,0)" xlink:href="#Z"/><use transform="matrix(0.05,0,0,0.05,253.74999999999997,0)" xlink:href="#ai"/><use transform="matrix(0.05,0,0,0.05,263.75,0)" xlink:href="#ac"/><use transform="matrix(0.05,0,0,0.05,273.75,0)" xlink:href="#as"/><use transform="matrix(0.05,0,0,0.05,288.7,0)" xlink:href="#af"/><use transform="matrix(0.05,0,0,0.05,298.7,0)" xlink:href="#ac"/><use transform="matrix(0.05,0,0,0.05,308.7,0)" xlink:href="#Y"/><use transform="matrix(0.05,0,0,0.05,313.7,0)" xlink:href="#aO"/></g><path fill="#333" d="M9 0v-24l116-142H16v-24h144v24L44-24h123V0H9" id="aP"/><g id="B"><use transform="matrix(0.05,0,0,0.05,0,0)" xlink:href="#ai"/><use transform="matrix(0.05,0,0,0.05,10,0)" xlink:href="#ag"/><use transform="matrix(0.05,0,0,0.05,20,0)" xlink:href="#Y"/><use transform="matrix(0.05,0,0,0.05,25,0)" xlink:href="#ab"/><use transform="matrix(0.05,0,0,0.05,28.950000000000003,0)" xlink:href="#as"/><use transform="matrix(0.05,0,0,0.05,43.9,0)" xlink:href="#ab"/><use transform="matrix(0.05,0,0,0.05,47.85,0)" xlink:href="#aP"/><use transform="matrix(0.05,0,0,0.05,56.85,0)" xlink:href="#af"/><use transform="matrix(0.05,0,0,0.05,66.85,0)" xlink:href="#Z"/><use transform="matrix(0.05,0,0,0.05,72.8,0)" xlink:href="#ak"/></g><path fill="#333" d="M26 75v-336h71v23H56V52h41v23H26" id="aQ"/><path fill="#333" d="M140-251c81 0 123 46 123 126C263-46 219 4 140 4 59 4 17-45 17-125s42-126 123-126zm0 227c63 0 89-41 89-101s-29-99-89-99c-61 0-89 39-89 99S79-25 140-24" id="aR"/><g id="C"><use transform="matrix(0.05,0,0,0.05,0,0)" xlink:href="#aC"/><use transform="matrix(0.05,0,0,0.05,12.950000000000001,0)" xlink:href="#ac"/><use transform="matrix(0.05,0,0,0.05,22.950000000000003,0)" xlink:href="#ab"/><use transform="matrix(0.05,0,0,0.05,26.900000000000002,0)" xlink:href="#ai"/><use transform="matrix(0.05,0,0,0.05,36.900000000000006,0)" xlink:href="#ac"/><use transform="matrix(0.05,0,0,0.05,46.900000000000006,0)" xlink:href="#aQ"/><use transform="matrix(0.05,0,0,0.05,51.900000000000006,0)" xlink:href="#Y"/><use transform="matrix(0.05,0,0,0.05,56.900000000000006,0)" xlink:href="#al"/><use transform="matrix(0.05,0,0,0.05,61.900000000000006,0)" xlink:href="#ao"/><use transform="matrix(0.05,0,0,0.05,66.9,0)" xlink:href="#aF"/><use transform="matrix(0.05,0,0,0.05,75.9,0)" xlink:href="#af"/><use transform="matrix(0.05,0,0,0.05,85.9,0)" xlink:href="#Z"/><use transform="matrix(0.05,0,0,0.05,91.85000000000001,0)" xlink:href="#aa"/><use transform="matrix(0.05,0,0,0.05,101.85000000000001,0)" xlink:href="#ae"/><use transform="matrix(0.05,0,0,0.05,110.85000000000001,0)" xlink:href="#ao"/><use transform="matrix(0.05,0,0,0.05,115.85000000000001,0)" xlink:href="#ai"/><use transform="matrix(0.05,0,0,0.05,125.85000000000001,0)" xlink:href="#ag"/><use transform="matrix(0.05,0,0,0.05,135.85000000000002,0)" xlink:href="#Y"/><use transform="matrix(0.05,0,0,0.05,140.85000000000002,0)" xlink:href="#ab"/><use transform="matrix(0.05,0,0,0.05,144.8,0)" xlink:href="#as"/><use transform="matrix(0.05,0,0,0.05,159.75,0)" xlink:href="#ab"/><use transform="matrix(0.05,0,0,0.05,163.7,0)" xlink:href="#aP"/><use transform="matrix(0.05,0,0,0.05,172.7,0)" xlink:href="#af"/><use transform="matrix(0.05,0,0,0.05,182.7,0)" xlink:href="#Z"/><use transform="matrix(0.05,0,0,0.05,188.64999999999998,0)" xlink:href="#ae"/><use transform="matrix(0.05,0,0,0.05,197.64999999999998,0)" xlink:href="#ao"/><use transform="matrix(0.05,0,0,0.05,202.64999999999998,0)" xlink:href="#aR"/><use transform="matrix(0.05,0,0,0.05,216.64999999999998,0)" xlink:href="#ag"/><use transform="matrix(0.05,0,0,0.05,226.64999999999998,0)" xlink:href="#Y"/><use transform="matrix(0.05,0,0,0.05,231.64999999999998,0)" xlink:href="#ab"/><use transform="matrix(0.05,0,0,0.05,235.59999999999997,0)" xlink:href="#as"/><use transform="matrix(0.05,0,0,0.05,250.54999999999995,0)" xlink:href="#ab"/><use transform="matrix(0.05,0,0,0.05,254.49999999999991,0)" xlink:href="#aP"/><use transform="matrix(0.05,0,0,0.05,263.49999999999994,0)" xlink:href="#af"/><use transform="matrix(0.05,0,0,0.05,273.49999999999994,0)" xlink:href="#Z"/><use transform="matrix(0.05,0,0,0.05,278.44999999999993,0)" xlink:href="#aO"/></g><path fill="#333" d="M27 0v-27h64v-190l-56 39v-29l58-41h29v221h61V0H27" id="aS"/><path fill="#333" d="M3 75V52h41v-290H3v-23h71V75H3" id="aT"/><g id="D"><use transform="matrix(0.05,0,0,0.05,0,0)" xlink:href="#Y"/><use transform="matrix(0.05,0,0,0.05,5,0)" xlink:href="#al"/><use transform="matrix(0.05,0,0,0.05,10,0)" xlink:href="#ao"/><use transform="matrix(0.05,0,0,0.05,15,0)" xlink:href="#ah"/><use transform="matrix(0.05,0,0,0.05,24,0)" xlink:href="#ai"/><use transform="matrix(0.05,0,0,0.05,34,0)" xlink:href="#as"/><use transform="matrix(0.05,0,0,0.05,48.95,0)" xlink:href="#ag"/><use transform="matrix(0.05,0,0,0.05,58.95,0)" xlink:href="#aa"/><use transform="matrix(0.05,0,0,0.05,68.95,0)" xlink:href="#Y"/><use transform="matrix(0.05,0,0,0.05,73.95,0)" xlink:href="#ao"/><use transform="matrix(0.05,0,0,0.05,78.95,0)" xlink:href="#ar"/><use transform="matrix(0.05,0,0,0.05,87.95,0)" xlink:href="#aS"/><use transform="matrix(0.05,0,0,0.05,97.95,0)" xlink:href="#ao"/><use transform="matrix(0.05,0,0,0.05,102.95,0)" xlink:href="#Y"/><use transform="matrix(0.05,0,0,0.05,107.95,0)" xlink:href="#Z"/><use transform="matrix(0.05,0,0,0.05,113.9,0)" xlink:href="#aa"/><use transform="matrix(0.05,0,0,0.05,123.9,0)" xlink:href="#ab"/><use transform="matrix(0.05,0,0,0.05,127.85000000000001,0)" xlink:href="#ac"/><use transform="matrix(0.05,0,0,0.05,137.85000000000002,0)" xlink:href="#ao"/><use transform="matrix(0.05,0,0,0.05,142.85000000000002,0)" xlink:href="#aR"/><use transform="matrix(0.05,0,0,0.05,156.85000000000002,0)" xlink:href="#ag"/><use transform="matrix(0.05,0,0,0.05,166.85000000000002,0)" xlink:href="#Y"/><use transform="matrix(0.05,0,0,0.05,171.85000000000002,0)" xlink:href="#ab"/><use transform="matrix(0.05,0,0,0.05,175.8,0)" xlink:href="#as"/><use transform="matrix(0.05,0,0,0.05,190.75,0)" xlink:href="#ab"/><use transform="matrix(0.05,0,0,0.05,194.7,0)" xlink:href="#aP"/><use transform="matrix(0.05,0,0,0.05,203.7,0)" xlink:href="#af"/><use transform="matrix(0.05,0,0,0.05,213.69999999999996,0)" xlink:href="#Z"/><use transform="matrix(0.05,0,0,0.05,219.64999999999998,0)" xlink:href="#aT"/><use transform="matrix(0.05,0,0,0.05,224.64999999999998,0)" xlink:href="#aO"/></g><g id="E"><use transform="matrix(0.05,0,0,0.05,0,0)" xlink:href="#Y"/><use transform="matrix(0.05,0,0,0.05,5,0)" xlink:href="#aK"/><use transform="matrix(0.05,0,0,0.05,15,0)" xlink:href="#ad"/><use transform="matrix(0.05,0,0,0.05,25,0)" xlink:href="#af"/><use transform="matrix(0.05,0,0,0.05,35,0)" xlink:href="#Z"/><use transform="matrix(0.05,0,0,0.05,40.95,0)" xlink:href="#Z"/><use transform="matrix(0.05,0,0,0.05,46.900000000000006,0)" xlink:href="#ai"/><use transform="matrix(0.05,0,0,0.05,56.900000000000006,0)" xlink:href="#Z"/><use transform="matrix(0.05,0,0,0.05,62.85,0)" xlink:href="#ae"/><use transform="matrix(0.05,0,0,0.05,71.85000000000001,0)" xlink:href="#ad"/><use transform="matrix(0.05,0,0,0.05,81.85000000000001,0)" xlink:href="#am"/><use transform="matrix(0.05,0,0,0.05,85.80000000000001,0)" xlink:href="#ai"/><use transform="matrix(0.05,0,0,0.05,95.80000000000001,0)" xlink:href="#ae"/><use transform="matrix(0.05,0,0,0.05,104.80000000000001,0)" xlink:href="#ae"/><use transform="matrix(0.05,0,0,0.05,113.80000000000001,0)" xlink:href="#ad"/><use transform="matrix(0.05,0,0,0.05,123.80000000000001,0)" xlink:href="#al"/><use transform="matrix(0.05,0,0,0.05,128.8,0)" xlink:href="#ac"/><use transform="matrix(0.05,0,0,0.05,138.8,0)" xlink:href="#ak"/></g><path fill="#333" d="M212-179c-10-28-35-45-73-45-59 0-87 40-87 99 0 60 29 101 89 101 43 0 62-24 78-52l27 14C228-24 195 4 139 4 59 4 22-46 18-125c-6-104 99-153 187-111 19 9 31 26 39 46" id="aU"/><g id="F"><use transform="matrix(0.05,0,0,0.05,0,0)" xlink:href="#aU"/><use transform="matrix(0.05,0,0,0.05,12.950000000000001,0)" xlink:href="#aa"/><use transform="matrix(0.05,0,0,0.05,22.950000000000003,0)" xlink:href="#am"/><use transform="matrix(0.05,0,0,0.05,26.900000000000002,0)" xlink:href="#am"/><use transform="matrix(0.05,0,0,0.05,30.85,0)" xlink:href="#aa"/><use transform="matrix(0.05,0,0,0.05,40.85,0)" xlink:href="#aq"/><use transform="matrix(0.05,0,0,0.05,50.85,0)" xlink:href="#am"/><use transform="matrix(0.05,0,0,0.05,54.800000000000004,0)" xlink:href="#af"/><use transform="matrix(0.05,0,0,0.05,64.80000000000001,0)" xlink:href="#aQ"/><use transform="matrix(0.05,0,0,0.05,69.80000000000001,0)" xlink:href="#ao"/><use transform="matrix(0.05,0,0,0.05,74.80000000000001,0)" xlink:href="#ao"/><use transform="matrix(0.05,0,0,0.05,79.80000000000001,0)" xlink:href="#ao"/><use transform="matrix(0.05,0,0,0.05,84.80000000000001,0)" xlink:href="#aO"/></g><g id="G"><use transform="matrix(0.05,0,0,0.05,0,0)" xlink:href="#aA"/><use transform="matrix(0.05,0,0,0.05,8.950000000000001,0)" xlink:href="#af"/><use transform="matrix(0.05,0,0,0.05,18.950000000000003,0)" xlink:href="#ac"/><use transform="matrix(0.05,0,0,0.05,28.950000000000003,0)" xlink:href="#ae"/><use transform="matrix(0.05,0,0,0.05,37.95,0)" xlink:href="#ai"/><use transform="matrix(0.05,0,0,0.05,47.95,0)" xlink:href="#Z"/><use transform="matrix(0.05,0,0,0.05,53.900000000000006,0)" xlink:href="#aT"/><use transform="matrix(0.05,0,0,0.05,58.900000000000006,0)" xlink:href="#aO"/></g><g id="H"><use transform="matrix(0.05,0,0,0.05,0,0)" xlink:href="#am"/><use transform="matrix(0.05,0,0,0.05,3.95,0)" xlink:href="#ai"/><use transform="matrix(0.05,0,0,0.05,13.949999999999998,0)" xlink:href="#at"/><use transform="matrix(0.05,0,0,0.05,23.95,0)" xlink:href="#ad"/><use transform="matrix(0.05,0,0,0.05,33.95,0)" xlink:href="#ae"/><use transform="matrix(0.05,0,0,0.05,42.95,0)" xlink:href="#Y"/><use transform="matrix(0.05,0,0,0.05,47.95,0)" xlink:href="#af"/><use transform="matrix(0.05,0,0,0.05,57.95,0)" xlink:href="#ag"/><use transform="matrix(0.05,0,0,0.05,67.95,0)" xlink:href="#ae"/><use transform="matrix(0.05,0,0,0.05,76.95,0)" xlink:href="#ak"/></g><g id="I"><use transform="matrix(0.05,0,0,0.05,0,0)" xlink:href="#ab"/><use transform="matrix(0.05,0,0,0.05,3.95,0)" xlink:href="#ac"/><use transform="matrix(0.05,0,0,0.05,13.949999999999998,0)" xlink:href="#Y"/><use transform="matrix(0.05,0,0,0.05,18.95,0)" xlink:href="#aO"/></g><g id="J"><use transform="matrix(0.05,0,0,0.05,0,0)" xlink:href="#am"/><use transform="matrix(0.05,0,0,0.05,3.95,0)" xlink:href="#ai"/><use transform="matrix(0.05,0,0,0.05,13.949999999999998,0)" xlink:href="#at"/><use transform="matrix(0.05,0,0,0.05,23.95,0)" xlink:href="#ad"/><use transform="matrix(0.05,0,0,0.05,33.95,0)" xlink:href="#aK"/><use transform="matrix(0.05,0,0,0.05,43.95,0)" xlink:href="#ab"/><use transform="matrix(0.05,0,0,0.05,47.900000000000006,0)" xlink:href="#Z"/><use transform="matrix(0.05,0,0,0.05,53.85,0)" xlink:href="#ak"/></g><g id="K"><use transform="matrix(0.05,0,0,0.05,0,0)" xlink:href="#ae"/><use transform="matrix(0.05,0,0,0.05,9,0)" xlink:href="#Y"/><use transform="matrix(0.05,0,0,0.05,14,0)" xlink:href="#Z"/><use transform="matrix(0.05,0,0,0.05,18.95,0)" xlink:href="#aO"/></g><path fill="#333" d="M106-169C34-169 62-67 57 0H25v-261h32l-1 103c12-21 28-36 61-36 89 0 53 116 60 194h-32v-121c2-32-8-49-39-48" id="aV"/><g id="L"><use transform="matrix(0.05,0,0,0.05,0,0)" xlink:href="#Y"/><use transform="matrix(0.05,0,0,0.05,5,0)" xlink:href="#Z"/><use transform="matrix(0.05,0,0,0.05,10.95,0)" xlink:href="#aa"/><use transform="matrix(0.05,0,0,0.05,20.95,0)" xlink:href="#ab"/><use transform="matrix(0.05,0,0,0.05,24.9,0)" xlink:href="#ac"/><use transform="matrix(0.05,0,0,0.05,34.9,0)" xlink:href="#ab"/><use transform="matrix(0.05,0,0,0.05,38.85,0)" xlink:href="#ac"/><use transform="matrix(0.05,0,0,0.05,48.85,0)" xlink:href="#at"/><use transform="matrix(0.05,0,0,0.05,58.85,0)" xlink:href="#ad"/><use transform="matrix(0.05,0,0,0.05,68.85,0)" xlink:href="#aq"/><use transform="matrix(0.05,0,0,0.05,78.85,0)" xlink:href="#aa"/><use transform="matrix(0.05,0,0,0.05,88.85,0)" xlink:href="#Y"/><use transform="matrix(0.05,0,0,0.05,93.85,0)" xlink:href="#ah"/><use transform="matrix(0.05,0,0,0.05,102.84999999999998,0)" xlink:href="#aV"/><use transform="matrix(0.05,0,0,0.05,112.84999999999998,0)" xlink:href="#ad"/><use transform="matrix(0.05,0,0,0.05,122.84999999999998,0)" xlink:href="#ae"/><use transform="matrix(0.05,0,0,0.05,131.85,0)" xlink:href="#ab"/><use transform="matrix(0.05,0,0,0.05,135.79999999999998,0)" xlink:href="#aP"/><use transform="matrix(0.05,0,0,0.05,144.79999999999998,0)" xlink:href="#af"/><use transform="matrix(0.05,0,0,0.05,154.79999999999998,0)" xlink:href="#ak"/></g><use transform="matrix(0.05,0,0,0.05,0,0)" xlink:href="#aL" id="M"/><g id="N"><use transform="matrix(0.05,0,0,0.05,0,0)" xlink:href="#Y"/><use transform="matrix(0.05,0,0,0.05,5,0)" xlink:href="#Z"/><use transform="matrix(0.05,0,0,0.05,10.95,0)" xlink:href="#aa"/><use transform="matrix(0.05,0,0,0.05,20.95,0)" xlink:href="#ab"/><use transform="matrix(0.05,0,0,0.05,24.9,0)" xlink:href="#ac"/><use transform="matrix(0.05,0,0,0.05,34.9,0)" xlink:href="#aJ"/><use transform="matrix(0.05,0,0,0.05,40.85,0)" xlink:href="#ab"/><use transform="matrix(0.05,0,0,0.05,44.800000000000004,0)" xlink:href="#Y"/><use transform="matrix(0.05,0,0,0.05,49.800000000000004,0)" xlink:href="#af"/><use transform="matrix(0.05,0,0,0.05,59.800000000000004,0)" xlink:href="#Z"/><use transform="matrix(0.05,0,0,0.05,65.75,0)" xlink:href="#aa"/><use transform="matrix(0.05,0,0,0.05,75.75,0)" xlink:href="#Y"/><use transform="matrix(0.05,0,0,0.05,80.75,0)" xlink:href="#ab"/><use transform="matrix(0.05,0,0,0.05,84.7,0)" xlink:href="#ai"/><use transform="matrix(0.05,0,0,0.05,94.7,0)" xlink:href="#ac"/><use transform="matrix(0.05,0,0,0.05,104.7,0)" xlink:href="#ae"/><use transform="matrix(0.05,0,0,0.05,113.7,0)" xlink:href="#ak"/></g><g id="O"><use transform="matrix(0.05,0,0,0.05,0,0)" xlink:href="#ab"/><use transform="matrix(0.05,0,0,0.05,3.95,0)" xlink:href="#ac"/><use transform="matrix(0.05,0,0,0.05,13.949999999999998,0)" xlink:href="#Y"/><use transform="matrix(0.05,0,0,0.05,18.95,0)" xlink:href="#aL"/></g></defs></g></svg>