<svg xmlns="http://www.w3.org/2000/svg" xmlns:xlink="http://www.w3.org/1999/xlink" xmlns:lucid="lucid" width="2043" height="663"><g transform="translate(521.5 219.61594202898576)" lucid:page-tab-id="3KBPjdq3u7jW"><path d="M-500-500h2000V500H-500z" fill="#fff"/><path d="M-500-192.12a6 6 0 0 1 6-6h1988a6 6 0 0 1 6 6v608a6 6 0 0 1-6 6H-494a6 6 0 0 1-6-6z" fill="#fff"/><path d="M-433.76-198.12h60.25m30.1 0h60.25m30.12 0h60.24m30.13 0h60.25m30.12 0h60.24m30.12 0H78.3m30.12 0h60.25m30.12 0h60.23m30.12 0h60.24m30.12 0h60.24m30.12 0h60.24m30.12 0h60.25m30.1 0h60.25m30.12 0h60.24m30.13 0h60.25m30.12 0h60.24m30.12 0h60.24m30.12 0h60.25m30.12 0h60.23m30.12 0h60.24m30.12 0h60.24m30.12 0H1494l.94.08.9.22.88.36.8.5.72.6.6.72.5.8.37.87.23.9.07.95v28.96m0 28.95v57.9m0 28.95v57.9m0 28.95v57.9m0 28.96v57.9m0 28.96v57.9m0 28.95v57.9m0 28.96v28.95l-.07.94-.22.92-.35.87-.5.8-.6.73-.72.6-.8.5-.88.36-.9.2-.95.08h-30.12m-30.12 0h-60.24m-30.13 0h-60.25m-30.12 0h-60.24m-30.13 0h-60.25m-30.12 0h-60.24m-30.12 0H921.7m-30.12 0h-60.25m-30.12 0h-60.23m-30.12 0H650.6m-30.12 0h-60.24m-30.12 0h-60.24m-30.12 0H379.5m-30.1 0h-60.25m-30.12 0H198.8m-30.13 0h-60.25m-30.12 0H18.06m-30.12 0H-72.3m-30.12 0h-60.25m-30.12 0h-60.23m-30.12 0h-60.24m-30.12 0h-60.24m-30.12 0H-494l-.94-.07-.9-.2-.88-.37-.8-.5-.72-.6-.6-.72-.5-.8-.37-.86-.23-.92-.07-.94v-28.95m0-28.95v-57.9m0-28.96v-57.9m0-28.96v-57.9m0-28.95V39.5m0-28.95v-57.9m0-28.96v-57.9m0-28.96v-28.96l.07-.94.22-.9.35-.88.5-.8.6-.72.72-.6.8-.5.88-.36.9-.22.95-.08h30.12" stroke="#5e5e5e" stroke-width="3" fill="none"/><use xlink:href="#a" transform="matrix(1,0,0,1,-488,-186.11594202898576) translate(888.4444444444445 28.444444444444436)"/><use xlink:href="#b" transform="matrix(1,0,0,1,-488,-186.11594202898576) translate(971.2098765432098 28.444444444444436)"/><path d="M-440 6a6 6 0 0 1 6-6H94a6 6 0 0 1 6 6v248a6 6 0 0 1-6 6h-528a6 6 0 0 1-6-6z" stroke="#5e5e5e" stroke-width="3" fill="#fff"/><use xlink:href="#c" transform="matrix(1,0,0,1,-428,12) translate(211.58024691358025 28.444444444444436)"/><path d="M-290 86a6 6 0 0 1 6-6h228a6 6 0 0 1 6 6v108a6 6 0 0 1-6 6h-228a6 6 0 0 1-6-6z" stroke="#5e5e5e" stroke-width="3" fill="#fff"/><use xlink:href="#d" transform="matrix(1,0,0,1,-285,85) translate(45.91358024691361 62.819444444444436)"/><path d="M520-74a6 6 0 0 1 6-6h888a6 6 0 0 1 6 6v408a6 6 0 0 1-6 6H526a6 6 0 0 1-6-6z" fill="#fff"/><path d="M585.2-80h59.2m29.6 0h59.2m29.6 0H822m29.6 0h59.2m29.6 0h59.2m29.6 0h59.2m29.6 0h59.2m29.6 0h59.2m29.6 0h59.2m29.6 0h29.6l.94.07.9.22.88.35.8.5.72.6.6.72.5.8.37.88.23.9.07.95v27.2m0 27.2v54.4m0 27.2v54.4m0 27.2V198m0 27.2v54.4m0 27.2V334l-.07.94-.22.9-.35.88-.5.8-.6.72-.72.6-.8.5-.88.37-.9.23-.95.07h-29.6m-29.6 0h-59.2m-29.6 0h-59.2m-29.6 0H1118m-29.6 0h-59.2m-29.6 0h-59.2m-29.6 0h-59.2m-29.6 0h-59.2m-29.6 0H674m-29.6 0h-59.2m-29.6 0H526l-.94-.07-.9-.22-.88-.35-.8-.5-.72-.6-.6-.72-.5-.8-.37-.88-.23-.9-.07-.95v-27.2m0-27.2v-54.4m0-27.2v-54.4m0-27.2V62m0-27.2v-54.4m0-27.2V-74l.07-.94.22-.9.35-.88.5-.8.6-.72.72-.6.8-.5.88-.37.9-.23.95-.07h29.6" stroke="#5e5e5e" stroke-width="3" fill="none"/><use xlink:href="#e" transform="matrix(1,0,0,1,532,-68.00000000000026) translate(337.4567901234568 28.444444444444436)"/><use xlink:href="#b" transform="matrix(1,0,0,1,532,-68.00000000000026) translate(422.1975308641975 28.444444444444436)"/><path d="M605-14a6 6 0 0 1 6-6h768a6 6 0 0 1 6 6v251.77a6 6 0 0 1-6 6H611a6 6 0 0 1-6-6z" stroke="#5e5e5e" stroke-width="3" fill="#fff"/><path d="M585 6a6 6 0 0 1 6-6h768a6 6 0 0 1 6 6v251.77a6 6 0 0 1-6 6H591a6 6 0 0 1-6-6z" stroke="#5e5e5e" stroke-width="3" fill="#fff"/><path d="M560 22.23a6 6 0 0 1 6-6h768a6 6 0 0 1 6 6V274a6 6 0 0 1-6 6H566a6 6 0 0 1-6-6z" stroke="#5e5e5e" stroke-width="3" fill="#fff"/><use xlink:href="#f" transform="matrix(1,0,0,1,572,28.231884057970746) translate(278.3950617283951 28.444444444444436)"/><path d="M765 126a6 6 0 0 1 6-6h358a6 6 0 0 1 6 6v108a6 6 0 0 1-6 6H771a6 6 0 0 1-6-6z" stroke="#5e5e5e" stroke-width="3" fill="#fff"/><use xlink:href="#g" transform="matrix(1,0,0,1,777,132) translate(13.246913580246996 55.444444444444436)"/><use xlink:href="#b" transform="matrix(1,0,0,1,777,132) translate(216.4074074074074 55.444444444444436)"/><path d="M281.78 57.03H103.5v-4h178.28zm253.98 0H378.22v-4h157.54z" stroke="#5e5e5e" stroke-width=".05" fill="#5e5e5e"/><path d="M103.55 57.03h-2.05v-4h2.05z" fill="#5e5e5e"/><path d="M103.58 57.06h-2.1V53h2.1zm-2.05-4V57h2v-3.94z" stroke="#5e5e5e" stroke-width=".05" fill="#5e5e5e"/><path d="M552.03 55.03l-14.27 4.64V50.4z" fill="#5e5e5e"/><path d="M558.5 55.03l-22.74 7.4V47.64zm-18.74 1.9l5.8-1.9-5.8-1.88z" stroke="#5e5e5e" stroke-width=".05" fill="#5e5e5e"/><use xlink:href="#h" transform="matrix(1,0,0,1,281.77774417785764,36.36693871402506) translate(0 24.888888888888886)"/><path d="M273.9 234.13H124.25v-4H273.9zm282.6 0H386.1v-4h170.4z" stroke="#5e5e5e" stroke-width=".05" fill="#5e5e5e"/><path d="M558.5 234.13h-2.05v-4h2.05z" fill="#5e5e5e"/><path d="M558.52 234.15h-2.1v-4.05h2.1zm-2.05-4v3.95h2v-3.95z" stroke="#5e5e5e" stroke-width=".05" fill="#5e5e5e"/><path d="M122.24 236.76l-14.27-4.63 14.27-4.64z" fill="#5e5e5e"/><path d="M124.24 239.5l-22.74-7.37 22.74-7.4zm-9.8-7.37l5.8 1.88v-3.76z" stroke="#5e5e5e" stroke-width=".05" fill="#5e5e5e"/><use xlink:href="#i" transform="matrix(1,0,0,1,273.91361752086596,213.45937935468476) translate(0 24.888888888888886)"/><path d="M292.06 182H124.24v-4h167.82zm264.44 0H367.94v-4H556.5z" stroke="#5e5e5e" stroke-width=".05" fill="#5e5e5e"/><path d="M558.5 182h-2.05v-4h2.05z" fill="#5e5e5e"/><path d="M558.52 182.03h-2.1v-4.06h2.1zm-2.05-4v3.94h2v-3.94z" stroke="#5e5e5e" stroke-width=".05" fill="#5e5e5e"/><path d="M122.24 184.63L107.97 180l14.27-4.63z" fill="#5e5e5e"/><path d="M124.24 187.4L101.5 180l22.74-7.4zm-9.8-7.4l5.8 1.88v-3.76z" stroke="#5e5e5e" stroke-width=".05" fill="#5e5e5e"/><g><use xlink:href="#j" transform="matrix(1,0,0,1,292.06174480773547,161.3333333333331) translate(0 24.888888888888886)"/></g><defs><path fill="#333" d="M30-248c118-7 216 8 213 122C240-48 200 0 122 0H30v-248zM63-27c89 8 146-16 146-99s-60-101-146-95v194" id="k"/><path fill="#333" d="M100-194c62-1 85 37 85 99 1 63-27 99-86 99S16-35 15-95c0-66 28-99 85-99zM99-20c44 1 53-31 53-75 0-43-8-75-51-75s-53 32-53 75 10 74 51 75" id="l"/><path fill="#333" d="M24-231v-30h32v30H24zM-9 49c24 4 33-6 33-30v-209h32V24c2 40-23 58-65 49V49" id="m"/><g id="a"><use transform="matrix(0.0987654320987654,0,0,0.0987654320987654,0,0)" xlink:href="#k"/><use transform="matrix(0.0987654320987654,0,0,0.0987654320987654,25.58024691358024,0)" xlink:href="#l"/><use transform="matrix(0.0987654320987654,0,0,0.0987654320987654,45.333333333333314,0)" xlink:href="#m"/><use transform="matrix(0.0987654320987654,0,0,0.0987654320987654,53.13580246913578,0)" xlink:href="#l"/></g><path fill="#333" d="M210-169c-67 3-38 105-44 169h-31v-121c0-29-5-50-35-48C34-165 62-65 56 0H25l-1-190h30c1 10-1 24 2 32 10-44 99-50 107 0 11-21 27-35 58-36 85-2 47 119 55 194h-31v-121c0-29-5-49-35-48" id="n"/><path fill="#333" d="M85-194c31 0 48 13 60 33l-1-100h32l1 261h-30c-2-10 0-23-3-31C134-8 116 4 85 4 32 4 16-35 15-94c0-66 23-100 70-100zm9 24c-40 0-46 34-46 75 0 40 6 74 45 74 42 0 51-32 51-76 0-42-9-74-50-73" id="o"/><path fill="#333" d="M84 4C-5 8 30-112 23-190h32v120c0 31 7 50 39 49 72-2 45-101 50-169h31l1 190h-30c-1-10 1-25-2-33-11 22-28 36-60 37" id="p"/><path fill="#333" d="M24 0v-261h32V0H24" id="q"/><path fill="#333" d="M100-194c63 0 86 42 84 106H49c0 40 14 67 53 68 26 1 43-12 49-29l28 8c-11 28-37 45-77 45C44 4 14-33 15-96c1-61 26-98 85-98zm52 81c6-60-76-77-97-28-3 7-6 17-6 28h103" id="r"/><g id="b"><use transform="matrix(0.0987654320987654,0,0,0.0987654320987654,0,0)" xlink:href="#n"/><use transform="matrix(0.0987654320987654,0,0,0.0987654320987654,29.530864197530853,0)" xlink:href="#l"/><use transform="matrix(0.0987654320987654,0,0,0.0987654320987654,49.283950617283935,0)" xlink:href="#o"/><use transform="matrix(0.0987654320987654,0,0,0.0987654320987654,69.03703703703701,0)" xlink:href="#p"/><use transform="matrix(0.0987654320987654,0,0,0.0987654320987654,88.79012345679008,0)" xlink:href="#q"/><use transform="matrix(0.0987654320987654,0,0,0.0987654320987654,96.59259259259255,0)" xlink:href="#r"/></g><path fill="#333" d="M205 0l-28-72H64L36 0H1l101-248h38L239 0h-34zm-38-99l-47-123c-12 45-31 82-46 123h93" id="s"/><path fill="#333" d="M177-190C167-65 218 103 67 71c-23-6-38-20-44-43l32-5c15 47 100 32 89-28v-30C133-14 115 1 83 1 29 1 15-40 15-95c0-56 16-97 71-98 29-1 48 16 59 35 1-10 0-23 2-32h30zM94-22c36 0 50-32 50-73 0-42-14-75-50-75-39 0-46 34-46 75s6 73 46 73" id="t"/><path fill="#333" d="M117-194c89-4 53 116 60 194h-32v-121c0-31-8-49-39-48C34-167 62-67 57 0H25l-1-190h30c1 10-1 24 2 32 11-22 29-35 61-36" id="u"/><path fill="#333" d="M59-47c-2 24 18 29 38 22v24C64 9 27 4 27-40v-127H5v-23h24l9-43h21v43h35v23H59v120" id="v"/><g id="c"><use transform="matrix(0.0987654320987654,0,0,0.0987654320987654,0,0)" xlink:href="#s"/><use transform="matrix(0.0987654320987654,0,0,0.0987654320987654,23.703703703703695,0)" xlink:href="#t"/><use transform="matrix(0.0987654320987654,0,0,0.0987654320987654,43.45679012345677,0)" xlink:href="#r"/><use transform="matrix(0.0987654320987654,0,0,0.0987654320987654,63.209876543209845,0)" xlink:href="#u"/><use transform="matrix(0.0987654320987654,0,0,0.0987654320987654,82.96296296296292,0)" xlink:href="#v"/></g><path fill="#333" d="M101-234c-31-9-42 10-38 44h38v23H63V0H32v-167H5v-23h27c-7-52 17-82 69-68v24" id="w"/><path fill="#333" d="M16-82v-28h88v28H16" id="x"/><path fill="#333" d="M141-36C126-15 110 5 73 4 37 3 15-17 15-53c-1-64 63-63 125-63 3-35-9-54-41-54-24 1-41 7-42 31l-33-3c5-37 33-52 76-52 45 0 72 20 72 64v82c-1 20 7 32 28 27v20c-31 9-61-2-59-35zM48-53c0 20 12 33 32 33 41-3 63-29 60-74-43 2-92-5-92 41" id="y"/><path fill="#333" d="M135-143c-3-34-86-38-87 0 15 53 115 12 119 90S17 21 10-45l28-5c4 36 97 45 98 0-10-56-113-15-118-90-4-57 82-63 122-42 12 7 21 19 24 35" id="z"/><g id="d"><use transform="matrix(0.0987654320987654,0,0,0.0987654320987654,0,0)" xlink:href="#v"/><use transform="matrix(0.0987654320987654,0,0,0.0987654320987654,9.876543209876539,0)" xlink:href="#w"/><use transform="matrix(0.0987654320987654,0,0,0.0987654320987654,19.753086419753078,0)" xlink:href="#x"/><use transform="matrix(0.0987654320987654,0,0,0.0987654320987654,31.506172839506164,0)" xlink:href="#y"/><use transform="matrix(0.0987654320987654,0,0,0.0987654320987654,51.259259259259245,0)" xlink:href="#t"/><use transform="matrix(0.0987654320987654,0,0,0.0987654320987654,71.01234567901231,0)" xlink:href="#r"/><use transform="matrix(0.0987654320987654,0,0,0.0987654320987654,90.76543209876539,0)" xlink:href="#u"/><use transform="matrix(0.0987654320987654,0,0,0.0987654320987654,110.51851851851846,0)" xlink:href="#v"/><use transform="matrix(0.0987654320987654,0,0,0.0987654320987654,120.39506172839499,0)" xlink:href="#z"/></g><path fill="#333" d="M63-220v92h138v28H63V0H30v-248h175v28H63" id="A"/><path fill="#333" d="M30 0v-248h187v28H63v79h144v27H63v87h162V0H30" id="B"/><path fill="#333" d="M240 0l2-218c-23 76-54 145-80 218h-23L58-218 59 0H30v-248h44l77 211c21-75 51-140 76-211h43V0h-30" id="C"/><g id="e"><use transform="matrix(0.0987654320987654,0,0,0.0987654320987654,0,0)" xlink:href="#A"/><use transform="matrix(0.0987654320987654,0,0,0.0987654320987654,21.629629629629623,0)" xlink:href="#B"/><use transform="matrix(0.0987654320987654,0,0,0.0987654320987654,45.333333333333314,0)" xlink:href="#C"/></g><path fill="#333" d="M108 0H70L1-190h34L89-25l56-165h34" id="D"/><path fill="#333" d="M24-231v-30h32v30H24zM24 0v-190h32V0H24" id="E"/><path fill="#333" d="M114-163C36-179 61-72 57 0H25l-1-190h30c1 12-1 29 2 39 6-27 23-49 58-41v29" id="F"/><g id="f"><use transform="matrix(0.0987654320987654,0,0,0.0987654320987654,0,0)" xlink:href="#B"/><use transform="matrix(0.0987654320987654,0,0,0.0987654320987654,23.703703703703695,0)" xlink:href="#u"/><use transform="matrix(0.0987654320987654,0,0,0.0987654320987654,43.45679012345677,0)" xlink:href="#D"/><use transform="matrix(0.0987654320987654,0,0,0.0987654320987654,61.234567901234534,0)" xlink:href="#E"/><use transform="matrix(0.0987654320987654,0,0,0.0987654320987654,69.03703703703701,0)" xlink:href="#F"/><use transform="matrix(0.0987654320987654,0,0,0.0987654320987654,80.7901234567901,0)" xlink:href="#l"/><use transform="matrix(0.0987654320987654,0,0,0.0987654320987654,100.54320987654317,0)" xlink:href="#u"/><use transform="matrix(0.0987654320987654,0,0,0.0987654320987654,120.29629629629626,0)" xlink:href="#n"/><use transform="matrix(0.0987654320987654,0,0,0.0987654320987654,149.8271604938271,0)" xlink:href="#r"/><use transform="matrix(0.0987654320987654,0,0,0.0987654320987654,169.5802469135802,0)" xlink:href="#u"/><use transform="matrix(0.0987654320987654,0,0,0.0987654320987654,189.3333333333333,0)" xlink:href="#v"/></g><path fill="#333" d="M212-179c-10-28-35-45-73-45-59 0-87 40-87 99 0 60 29 101 89 101 43 0 62-24 78-52l27 14C228-24 195 4 139 4 59 4 22-46 18-125c-6-104 99-153 187-111 19 9 31 26 39 46" id="G"/><g id="g"><use transform="matrix(0.0987654320987654,0,0,0.0987654320987654,0,0)" xlink:href="#G"/><use transform="matrix(0.0987654320987654,0,0,0.0987654320987654,25.58024691358024,0)" xlink:href="#l"/><use transform="matrix(0.0987654320987654,0,0,0.0987654320987654,45.333333333333314,0)" xlink:href="#l"/><use transform="matrix(0.0987654320987654,0,0,0.0987654320987654,65.08641975308639,0)" xlink:href="#F"/><use transform="matrix(0.0987654320987654,0,0,0.0987654320987654,76.83950617283946,0)" xlink:href="#o"/><use transform="matrix(0.0987654320987654,0,0,0.0987654320987654,96.59259259259254,0)" xlink:href="#E"/><use transform="matrix(0.0987654320987654,0,0,0.0987654320987654,104.395061728395,0)" xlink:href="#u"/><use transform="matrix(0.0987654320987654,0,0,0.0987654320987654,124.14814814814808,0)" xlink:href="#y"/><use transform="matrix(0.0987654320987654,0,0,0.0987654320987654,143.90123456790116,0)" xlink:href="#v"/><use transform="matrix(0.0987654320987654,0,0,0.0987654320987654,153.7777777777777,0)" xlink:href="#r"/><use transform="matrix(0.0987654320987654,0,0,0.0987654320987654,173.53086419753078,0)" xlink:href="#o"/></g><path fill="#333" d="M199 0l-22-63H83L61 0H9l90-248h61L250 0h-51zm-33-102l-36-108c-10 38-24 72-36 108h72" id="H"/><path fill="#333" d="M190-63c-7 42-38 67-86 67-59 0-84-38-90-98-12-110 154-137 174-36l-49 2c-2-19-15-32-35-32-30 0-35 28-38 64-6 74 65 87 74 30" id="I"/><path fill="#333" d="M115-3C79 11 28 4 28-45v-112H4v-33h27l15-45h31v45h36v33H77v99c-1 23 16 31 38 25v30" id="J"/><path fill="#333" d="M25-224v-37h50v37H25zM25 0v-190h50V0H25" id="K"/><path fill="#333" d="M110-194c64 0 96 36 96 99 0 64-35 99-97 99-61 0-95-36-95-99 0-62 34-99 96-99zm-1 164c35 0 45-28 45-65 0-40-10-65-43-65-34 0-45 26-45 65 0 36 10 65 43 65" id="L"/><path fill="#333" d="M135-194c87-1 58 113 63 194h-50c-7-57 23-157-34-157-59 0-34 97-39 157H25l-1-190h47c2 12-1 28 3 38 12-26 28-41 61-42" id="M"/><g id="h"><use transform="matrix(0.08641975308641973,0,0,0.08641975308641973,0,0)" xlink:href="#H"/><use transform="matrix(0.08641975308641973,0,0,0.08641975308641973,22.38271604938271,0)" xlink:href="#I"/><use transform="matrix(0.08641975308641973,0,0,0.08641975308641973,39.66666666666666,0)" xlink:href="#J"/><use transform="matrix(0.08641975308641973,0,0,0.08641975308641973,49.950617283950606,0)" xlink:href="#K"/><use transform="matrix(0.08641975308641973,0,0,0.08641975308641973,58.59259259259258,0)" xlink:href="#L"/><use transform="matrix(0.08641975308641973,0,0,0.08641975308641973,77.5185185185185,0)" xlink:href="#M"/></g><path fill="#333" d="M240-174c0 40-23 61-54 70L253 0h-59l-57-94H76V0H24v-248c93 4 217-23 216 74zM76-134c48-2 112 12 112-38 0-48-66-32-112-35v73" id="N"/><path fill="#333" d="M185-48c-13 30-37 53-82 52C43 2 14-33 14-96s30-98 90-98c62 0 83 45 84 108H66c0 31 8 55 39 56 18 0 30-7 34-22zm-45-69c5-46-57-63-70-21-2 6-4 13-4 21h74" id="O"/><path fill="#333" d="M231 0h-52l-39-155L100 0H48L-1-190h46L77-45c9-52 24-97 36-145h53l37 145 32-145h46" id="P"/><path fill="#333" d="M133-34C117-15 103 5 69 4 32 3 11-16 11-54c-1-60 55-63 116-61 1-26-3-47-28-47-18 1-26 9-28 27l-52-2c7-38 36-58 82-57s74 22 75 68l1 82c-1 14 12 18 25 15v27c-30 8-71 5-69-32zm-48 3c29 0 43-24 42-57-32 0-66-3-65 30 0 17 8 27 23 27" id="Q"/><path fill="#333" d="M135-150c-39-12-60 13-60 57V0H25l-1-190h47c2 13-1 29 3 40 6-28 27-53 61-41v41" id="R"/><path fill="#333" d="M88-194c31-1 46 15 58 34l-1-101h50l1 261h-48c-2-10 0-23-3-31C134-8 116 4 84 4 32 4 16-41 15-95c0-56 19-97 73-99zm17 164c33 0 40-30 41-66 1-37-9-64-41-64s-38 30-39 65c0 43 13 65 39 65" id="S"/><g id="i"><use transform="matrix(0.08641975308641973,0,0,0.08641975308641973,0,0)" xlink:href="#N"/><use transform="matrix(0.08641975308641973,0,0,0.08641975308641973,22.38271604938271,0)" xlink:href="#O"/><use transform="matrix(0.08641975308641973,0,0,0.08641975308641973,39.66666666666666,0)" xlink:href="#P"/><use transform="matrix(0.08641975308641973,0,0,0.08641975308641973,63.86419753086418,0)" xlink:href="#Q"/><use transform="matrix(0.08641975308641973,0,0,0.08641975308641973,81.14814814814812,0)" xlink:href="#R"/><use transform="matrix(0.08641975308641973,0,0,0.08641975308641973,93.24691358024687,0)" xlink:href="#S"/></g><path fill="#333" d="M169-182c-1-43-94-46-97-3 18 66 151 10 154 114 3 95-165 93-204 36-6-8-10-19-12-30l50-8c3 46 112 56 116 5-17-69-150-10-154-114-4-87 153-88 188-35 5 8 8 18 10 28" id="T"/><g id="j"><use transform="matrix(0.08641975308641973,0,0,0.08641975308641973,0,0)" xlink:href="#T"/><use transform="matrix(0.08641975308641973,0,0,0.08641975308641973,20.740740740740737,0)" xlink:href="#J"/><use transform="matrix(0.08641975308641973,0,0,0.08641975308641973,31.024691358024686,0)" xlink:href="#Q"/><use transform="matrix(0.08641975308641973,0,0,0.08641975308641973,48.30864197530863,0)" xlink:href="#J"/><use transform="matrix(0.08641975308641973,0,0,0.08641975308641973,58.59259259259258,0)" xlink:href="#O"/></g></defs></g></svg>