<svg xmlns="http://www.w3.org/2000/svg" xmlns:xlink="http://www.w3.org/1999/xlink" xmlns:lucid="lucid" width="763" height="312.17"><g transform="translate(201.5 41.83328333333342)" lucid:page-tab-id="u8BPLK4xEZku"><path d="M-500-500h1500V500H-500z" fill="#fff"/><path d="M-180 26a6 6 0 0 1 6-6H94a6 6 0 0 1 6 6v128a6 6 0 0 1-6 6h-268a6 6 0 0 1-6-6z" stroke="#5e5e5e" stroke-width="3" fill="#fff"/><use xlink:href="#a" transform="matrix(1,0,0,1,-168,32) translate(84.48148148148148 62.91666666666667)"/><path d="M260 26a6 6 0 0 1 6-6h268a6 6 0 0 1 6 6v128a6 6 0 0 1-6 6H266a6 6 0 0 1-6-6z" stroke="#5e5e5e" stroke-width="3" fill="#fff"/><use xlink:href="#b" transform="matrix(1,0,0,1,272,32) translate(34.62037037037037 62.91666666666667)"/><path d="M139.92-20.5H-33.96l-.82.07-.76.18-.73.3-.67.4-.6.52-.5.6-.4.66-.3.73-.2.76-.06.82V17.5h-2v-33.04l.08-1.05.26-1.06.42-1.02.57-.94.72-.83.83-.72.94-.57 1.02-.42 1.06-.26 1.06-.08h173.96zm255.18-1.92l1.06.26 1.02.42.94.57.83.72.72.83.57.94.42 1.02.26 1.07.08 1.06V0h-2v-15.46l-.06-.82-.2-.76-.3-.73-.4-.67-.5-.6-.6-.5-.67-.4-.73-.3-.76-.2-.82-.06H220.08v-2h173.96z" stroke="#5e5e5e" stroke-width=".05" fill="#5e5e5e"/><path d="M-39 18.5h-2v-1.03h2z" fill="#5e5e5e"/><path d="M-38.98 18.52h-2.05v-1.07h2.05zm-2-1.02v.98h1.95v-.98z" stroke="#5e5e5e" stroke-width=".05" fill="#5e5e5e"/><path d="M400 15.26L395.37 1h9.26z" fill="#5e5e5e"/><path d="M400 18.5L394 0h12zM396.74 2L400 12.03 403.26 2z" stroke="#5e5e5e" stroke-width=".05" fill="#5e5e5e"/><use xlink:href="#c" transform="matrix(1,0,0,1,139.91666666666669,-38.83328333333342) translate(0 23.111111111111114)"/><path d="M-76.33 243.96l.06.82.18.76.3.73.42.67.5.6.6.5.68.4.72.3.77.2.8.06h204.33v2h-204.4l-1.06-.08-1.07-.26-1-.42-.95-.57-.83-.72-.72-.83-.57-.94-.42-1.02-.25-1.06-.08-1.06V180h2zm520 .08l-.1 1.06-.24 1.06-.42 1.02-.57.94-.7.83-.85.72-.93.57-1.02.42-1.07.26-1.05.08H232.3v-2h204.33l.82-.06.76-.2.74-.3.66-.4.6-.5.5-.6.42-.67.3-.73.18-.76.07-.82V162.5h2z" stroke="#5e5e5e" stroke-width=".05" fill="#5e5e5e"/><path d="M443.67 162.53h-2v-1.03h2z" fill="#5e5e5e"/><path d="M443.7 162.55h-2.06v-1.08h2.05zm-2-1.03v.98h1.94v-.97z" stroke="#5e5e5e" stroke-width=".05" fill="#5e5e5e"/><path d="M-72.7 179h-9.27l4.64-14.26z" fill="#5e5e5e"/><path d="M-71.32 180h-12.03l6.02-18.5zm-9.27-2h6.53l-3.26-10.03z" stroke="#5e5e5e" stroke-width=".05" fill="#5e5e5e"/><use xlink:href="#d" transform="matrix(1,0,0,1,133.03396436104615,232.66666666666666) translate(0 23.111111111111114)"/><path d="M2.33 195.46l.07.82.18.76.3.73.4.67.52.6.6.5.67.4.72.3.75.2.82.06h140.26v2H7.3l-1.06-.08-1.07-.26-1.02-.42-.93-.57-.84-.72-.7-.83-.6-.94-.4-1.02-.26-1.06-.1-1.06V180h2zm360 .08l-.08 1.06-.26 1.06-.43 1.02-.57.94-.7.83-.85.72-.94.57-1 .42-1.07.26-1.06.08H215.04v-2H355.3l.8-.06.78-.2.72-.3.67-.4.6-.5.5-.6.42-.67.3-.73.17-.76.06-.82V162.5h2z" stroke="#5e5e5e" stroke-width=".05" fill="#5e5e5e"/><path d="M362.33 162.53h-2v-1.03h2z" fill="#5e5e5e"/><path d="M362.36 162.55h-2.05v-1.08h2.06zm-2-1.03v.98h1.95v-.97z" stroke="#5e5e5e" stroke-width=".05" fill="#5e5e5e"/><path d="M5.97 179H-3.3l4.63-14.26z" fill="#5e5e5e"/><path d="M7.34 180H-4.67l6-18.5zm-9.27-2H4.6l-3.27-10.03z" stroke="#5e5e5e" stroke-width=".05" fill="#5e5e5e"/><use xlink:href="#e" transform="matrix(1,0,0,1,147.6296135226465,184.16663109452705) translate(0 23.111111111111114)"/><defs><path fill="#333" d="M205 0l-28-72H64L36 0H1l101-248h38L239 0h-34zm-38-99l-47-123c-12 45-31 82-46 123h93" id="f"/><path fill="#333" d="M177-190C167-65 218 103 67 71c-23-6-38-20-44-43l32-5c15 47 100 32 89-28v-30C133-14 115 1 83 1 29 1 15-40 15-95c0-56 16-97 71-98 29-1 48 16 59 35 1-10 0-23 2-32h30zM94-22c36 0 50-32 50-73 0-42-14-75-50-75-39 0-46 34-46 75s6 73 46 73" id="g"/><path fill="#333" d="M100-194c63 0 86 42 84 106H49c0 40 14 67 53 68 26 1 43-12 49-29l28 8c-11 28-37 45-77 45C44 4 14-33 15-96c1-61 26-98 85-98zm52 81c6-60-76-77-97-28-3 7-6 17-6 28h103" id="h"/><path fill="#333" d="M117-194c89-4 53 116 60 194h-32v-121c0-31-8-49-39-48C34-167 62-67 57 0H25l-1-190h30c1 10-1 24 2 32 11-22 29-35 61-36" id="i"/><path fill="#333" d="M59-47c-2 24 18 29 38 22v24C64 9 27 4 27-40v-127H5v-23h24l9-43h21v43h35v23H59v120" id="j"/><g id="a"><use transform="matrix(0.0925925925925926,0,0,0.0925925925925926,0,0)" xlink:href="#f"/><use transform="matrix(0.0925925925925926,0,0,0.0925925925925926,22.222222222222225,0)" xlink:href="#g"/><use transform="matrix(0.0925925925925926,0,0,0.0925925925925926,40.74074074074075,0)" xlink:href="#h"/><use transform="matrix(0.0925925925925926,0,0,0.0925925925925926,59.25925925925927,0)" xlink:href="#i"/><use transform="matrix(0.0925925925925926,0,0,0.0925925925925926,77.77777777777779,0)" xlink:href="#j"/></g><path fill="#333" d="M30 0v-248h187v28H63v79h144v27H63v87h162V0H30" id="k"/><path fill="#333" d="M108 0H70L1-190h34L89-25l56-165h34" id="l"/><path fill="#333" d="M24-231v-30h32v30H24zM24 0v-190h32V0H24" id="m"/><path fill="#333" d="M114-163C36-179 61-72 57 0H25l-1-190h30c1 12-1 29 2 39 6-27 23-49 58-41v29" id="n"/><path fill="#333" d="M100-194c62-1 85 37 85 99 1 63-27 99-86 99S16-35 15-95c0-66 28-99 85-99zM99-20c44 1 53-31 53-75 0-43-8-75-51-75s-53 32-53 75 10 74 51 75" id="o"/><path fill="#333" d="M210-169c-67 3-38 105-44 169h-31v-121c0-29-5-50-35-48C34-165 62-65 56 0H25l-1-190h30c1 10-1 24 2 32 10-44 99-50 107 0 11-21 27-35 58-36 85-2 47 119 55 194h-31v-121c0-29-5-49-35-48" id="p"/><g id="b"><use transform="matrix(0.0925925925925926,0,0,0.0925925925925926,0,0)" xlink:href="#k"/><use transform="matrix(0.0925925925925926,0,0,0.0925925925925926,22.222222222222225,0)" xlink:href="#i"/><use transform="matrix(0.0925925925925926,0,0,0.0925925925925926,40.74074074074075,0)" xlink:href="#l"/><use transform="matrix(0.0925925925925926,0,0,0.0925925925925926,57.407407407407426,0)" xlink:href="#m"/><use transform="matrix(0.0925925925925926,0,0,0.0925925925925926,64.72222222222223,0)" xlink:href="#n"/><use transform="matrix(0.0925925925925926,0,0,0.0925925925925926,75.74074074074075,0)" xlink:href="#o"/><use transform="matrix(0.0925925925925926,0,0,0.0925925925925926,94.25925925925927,0)" xlink:href="#i"/><use transform="matrix(0.0925925925925926,0,0,0.0925925925925926,112.77777777777779,0)" xlink:href="#p"/><use transform="matrix(0.0925925925925926,0,0,0.0925925925925926,140.46296296296296,0)" xlink:href="#h"/><use transform="matrix(0.0925925925925926,0,0,0.0925925925925926,158.98148148148147,0)" xlink:href="#i"/><use transform="matrix(0.0925925925925926,0,0,0.0925925925925926,177.5,0)" xlink:href="#j"/></g><path fill="#333" d="M96-169c-40 0-48 33-48 73s9 75 48 75c24 0 41-14 43-38l32 2c-6 37-31 61-74 61-59 0-76-41-82-99-10-93 101-131 147-64 4 7 5 14 7 22l-32 3c-4-21-16-35-41-35" id="q"/><g id="c"><use transform="matrix(0.08024691358024691,0,0,0.08024691358024691,0,0)" xlink:href="#f"/><use transform="matrix(0.08024691358024691,0,0,0.08024691358024691,19.25925925925926,0)" xlink:href="#q"/><use transform="matrix(0.08024691358024691,0,0,0.08024691358024691,33.7037037037037,0)" xlink:href="#j"/><use transform="matrix(0.08024691358024691,0,0,0.08024691358024691,41.72839506172839,0)" xlink:href="#m"/><use transform="matrix(0.08024691358024691,0,0,0.08024691358024691,48.0679012345679,0)" xlink:href="#o"/><use transform="matrix(0.08024691358024691,0,0,0.08024691358024691,64.11728395061728,0)" xlink:href="#i"/></g><path fill="#333" d="M233-177c-1 41-23 64-60 70L243 0h-38l-65-103H63V0H30v-248c88 3 205-21 203 71zM63-129c60-2 137 13 137-47 0-61-80-42-137-45v92" id="r"/><path fill="#333" d="M206 0h-36l-40-164L89 0H53L-1-190h32L70-26l43-164h34l41 164 42-164h31" id="s"/><path fill="#333" d="M141-36C126-15 110 5 73 4 37 3 15-17 15-53c-1-64 63-63 125-63 3-35-9-54-41-54-24 1-41 7-42 31l-33-3c5-37 33-52 76-52 45 0 72 20 72 64v82c-1 20 7 32 28 27v20c-31 9-61-2-59-35zM48-53c0 20 12 33 32 33 41-3 63-29 60-74-43 2-92-5-92 41" id="t"/><path fill="#333" d="M85-194c31 0 48 13 60 33l-1-100h32l1 261h-30c-2-10 0-23-3-31C134-8 116 4 85 4 32 4 16-35 15-94c0-66 23-100 70-100zm9 24c-40 0-46 34-46 75 0 40 6 74 45 74 42 0 51-32 51-76 0-42-9-74-50-73" id="u"/><g id="d"><use transform="matrix(0.08024691358024691,0,0,0.08024691358024691,0,0)" xlink:href="#r"/><use transform="matrix(0.08024691358024691,0,0,0.08024691358024691,20.78395061728395,0)" xlink:href="#h"/><use transform="matrix(0.08024691358024691,0,0,0.08024691358024691,36.83333333333333,0)" xlink:href="#s"/><use transform="matrix(0.08024691358024691,0,0,0.08024691358024691,57.61728395061728,0)" xlink:href="#t"/><use transform="matrix(0.08024691358024691,0,0,0.08024691358024691,73.66666666666666,0)" xlink:href="#n"/><use transform="matrix(0.08024691358024691,0,0,0.08024691358024691,83.21604938271605,0)" xlink:href="#u"/></g><path fill="#333" d="M185-189c-5-48-123-54-124 2 14 75 158 14 163 119 3 78-121 87-175 55-17-10-28-26-33-46l33-7c5 56 141 63 141-1 0-78-155-14-162-118-5-82 145-84 179-34 5 7 8 16 11 25" id="v"/><g id="e"><use transform="matrix(0.08024691358024691,0,0,0.08024691358024691,0,0)" xlink:href="#v"/><use transform="matrix(0.08024691358024691,0,0,0.08024691358024691,19.25925925925926,0)" xlink:href="#j"/><use transform="matrix(0.08024691358024691,0,0,0.08024691358024691,27.28395061728395,0)" xlink:href="#t"/><use transform="matrix(0.08024691358024691,0,0,0.08024691358024691,43.33333333333333,0)" xlink:href="#j"/><use transform="matrix(0.08024691358024691,0,0,0.08024691358024691,51.358024691358025,0)" xlink:href="#h"/></g></defs></g></svg>